<?xml version="1.0" encoding="UTF-8"?>
<svg xmlns="http://www.w3.org/2000/svg" xmlns:xlink="http://www.w3.org/1999/xlink" width="245.487058" height="283.464567" viewBox="0 0 245.487058 283.464567">
<defs>
<linearGradient id="linear-pattern-0" gradientUnits="userSpaceOnUse" x1="51.549999" y1="83.080002" x2="356.200012" y2="387.73999" gradientTransform="matrix(0.602053, 0, 0, 0.602053, 0.00000075, 0)">
<stop offset="0" stop-color="rgb(22.352941%, 22.745098%, 96.470588%)" stop-opacity="1"/>
<stop offset="0.28" stop-color="rgb(22.352941%, 22.745098%, 96.470588%)" stop-opacity="1"/>
<stop offset="0.5" stop-color="rgb(14.509805%, 17.647059%, 78.823531%)" stop-opacity="1"/>
<stop offset="0.72" stop-color="rgb(7.843138%, 13.333334%, 63.921571%)" stop-opacity="1"/>
<stop offset="0.89" stop-color="rgb(3.529412%, 10.980392%, 54.509807%)" stop-opacity="1"/>
<stop offset="1" stop-color="rgb(2.352941%, 10.196079%, 51.372552%)" stop-opacity="1"/>
</linearGradient>
</defs>
<path fill-rule="nonzero" fill="rgb(23.529412%, 57.254905%, 97.647059%)" fill-opacity="1" d="M 245.488281 70.867188 L 122.742188 0 L 0 70.867188 L 0 212.597656 L 122.742188 283.464844 L 245.488281 212.597656 Z M 245.488281 70.867188 "/>
<path fill-rule="nonzero" fill="url(#linear-pattern-0)" d="M 239.027344 74.59375 L 122.742188 7.460938 L 6.460938 74.59375 L 6.460938 208.871094 L 122.742188 276.003906 L 239.027344 208.871094 Z M 239.027344 74.59375 "/>
<path fill-rule="nonzero" fill="rgb(100%, 100%, 100%)" fill-opacity="1" d="M 175.234375 203.734375 L 175.234375 191.996094 L 183.421875 191.996094 L 183.421875 194.46875 L 178.425781 194.46875 L 178.425781 196.523438 L 182.488281 196.523438 L 182.488281 198.996094 L 178.425781 198.996094 L 178.425781 201.265625 L 183.457031 201.265625 L 183.457031 203.742188 L 175.238281 203.742188 Z M 175.234375 203.734375 "/>
<path fill-rule="nonzero" fill="rgb(100%, 100%, 100%)" fill-opacity="1" d="M 163.589844 203.734375 L 163.589844 194.554688 L 160.183594 194.554688 L 160.183594 191.996094 L 170.265625 191.996094 L 170.265625 194.554688 L 166.859375 194.554688 L 166.859375 203.734375 Z M 163.589844 203.734375 "/>
<path fill-rule="nonzero" fill="rgb(100%, 100%, 100%)" fill-opacity="1" d="M 153.878906 203.734375 L 153.234375 201.464844 L 149.640625 201.464844 L 149.03125 203.734375 L 145.578125 203.734375 L 149.710938 191.996094 L 153.324219 191.996094 L 157.460938 203.734375 Z M 150.253906 199.160156 L 152.625 199.160156 L 151.421875 194.804688 Z M 150.253906 199.160156 "/>
<path fill-rule="nonzero" fill="rgb(100%, 100%, 100%)" fill-opacity="1" d="M 137.394531 203.734375 L 137.394531 191.996094 L 140.664062 191.996094 L 140.664062 203.734375 Z M 137.394531 203.734375 "/>
<path fill-rule="nonzero" fill="rgb(100%, 100%, 100%)" fill-opacity="1" d="M 132.035156 203.425781 C 131.109375 203.777344 130.039062 203.953125 128.816406 203.953125 C 126.871094 203.953125 125.394531 203.441406 124.382812 202.410156 C 123.371094 201.378906 122.867188 199.882812 122.867188 197.902344 C 122.867188 195.921875 123.398438 194.449219 124.449219 193.378906 C 125.503906 192.308594 126.980469 191.773438 128.863281 191.773438 C 129.90625 191.773438 130.90625 191.933594 131.863281 192.265625 L 131.863281 194.738281 C 130.910156 194.535156 130.097656 194.433594 129.421875 194.433594 C 128.382812 194.433594 127.597656 194.710938 127.070312 195.257812 C 126.539062 195.804688 126.273438 196.617188 126.273438 197.691406 L 126.273438 198.0625 C 126.273438 199.117188 126.535156 199.917969 127.046875 200.472656 C 127.558594 201.027344 128.320312 201.300781 129.328125 201.300781 C 130.097656 201.300781 131 201.1875 132.035156 200.964844 L 132.035156 203.441406 Z M 132.035156 203.425781 "/>
<path fill-rule="nonzero" fill="rgb(100%, 100%, 100%)" fill-opacity="1" d="M 111.546875 204.019531 C 110.320312 204.019531 109.253906 203.757812 108.363281 203.246094 C 107.472656 202.734375 106.792969 202.011719 106.328125 201.085938 C 105.863281 200.160156 105.636719 199.074219 105.636719 197.835938 C 105.636719 196.59375 105.878906 195.460938 106.363281 194.542969 C 106.851562 193.621094 107.539062 192.914062 108.421875 192.433594 C 109.308594 191.945312 110.351562 191.707031 111.546875 191.707031 C 112.746094 191.707031 113.84375 191.957031 114.734375 192.46875 C 115.625 192.976562 116.304688 193.699219 116.773438 194.621094 C 117.242188 195.546875 117.480469 196.636719 117.480469 197.890625 C 117.480469 199.140625 117.238281 200.265625 116.75 201.195312 C 116.261719 202.121094 115.574219 202.824219 114.683594 203.300781 C 113.792969 203.78125 112.746094 204.023438 111.546875 204.023438 Z M 111.546875 201.429688 C 112.410156 201.429688 113.054688 201.128906 113.488281 200.53125 C 113.921875 199.929688 114.136719 199.050781 114.136719 197.890625 C 114.136719 196.726562 113.914062 195.804688 113.476562 195.203125 C 113.035156 194.601562 112.390625 194.292969 111.542969 194.292969 C 110.695312 194.292969 110.054688 194.59375 109.621094 195.191406 C 109.1875 195.792969 108.972656 196.671875 108.972656 197.835938 C 108.972656 198.996094 109.1875 199.898438 109.621094 200.515625 C 110.054688 201.121094 110.699219 201.429688 111.542969 201.429688 Z M 111.546875 201.429688 "/>
<path fill-rule="nonzero" fill="rgb(100%, 100%, 100%)" fill-opacity="1" d="M 94.859375 198.984375 C 93.789062 198.609375 93.011719 198.140625 92.535156 197.574219 C 92.058594 197.007812 91.824219 196.269531 91.824219 195.355469 C 91.824219 194.609375 92.03125 193.957031 92.433594 193.402344 C 92.84375 192.847656 93.394531 192.429688 94.101562 192.132812 C 94.804688 191.839844 95.617188 191.695312 96.53125 191.695312 C 97.71875 191.695312 98.84375 191.898438 99.90625 192.300781 L 99.90625 194.671875 C 98.832031 194.367188 97.796875 194.214844 96.804688 194.214844 C 95.640625 194.214844 95.058594 194.523438 95.058594 195.132812 C 95.058594 195.359375 95.160156 195.546875 95.363281 195.710938 C 95.570312 195.867188 95.941406 196.035156 96.484375 196.214844 L 97.503906 196.550781 C 98.664062 196.9375 99.496094 197.394531 99.984375 197.929688 C 100.476562 198.464844 100.71875 199.183594 100.71875 200.074219 C 100.71875 201.3125 100.273438 202.285156 99.386719 202.96875 C 98.5 203.65625 97.253906 204.003906 95.648438 204.003906 C 94.960938 204.003906 94.292969 203.945312 93.648438 203.824219 C 93.003906 203.703125 92.457031 203.546875 92.003906 203.34375 L 92.003906 200.933594 C 92.558594 201.078125 93.171875 201.207031 93.84375 201.300781 C 94.515625 201.398438 95.125 201.445312 95.679688 201.445312 C 96.269531 201.445312 96.703125 201.367188 96.984375 201.21875 C 97.269531 201.066406 97.40625 200.828125 97.40625 200.496094 C 97.40625 200.316406 97.371094 200.171875 97.296875 200.054688 C 97.226562 199.941406 97.082031 199.832031 96.875 199.726562 C 96.664062 199.617188 96.324219 199.476562 95.835938 199.308594 L 94.851562 198.972656 Z M 94.859375 198.984375 "/>
<path fill-rule="nonzero" fill="rgb(100%, 100%, 100%)" fill-opacity="1" d="M 81.253906 198.984375 C 80.179688 198.609375 79.40625 198.140625 78.929688 197.574219 C 78.453125 197.007812 78.21875 196.269531 78.21875 195.355469 C 78.21875 194.609375 78.421875 193.957031 78.828125 193.402344 C 79.234375 192.847656 79.789062 192.429688 80.496094 192.132812 C 81.199219 191.839844 82.011719 191.695312 82.925781 191.695312 C 84.113281 191.695312 85.238281 191.898438 86.296875 192.300781 L 86.296875 194.671875 C 85.226562 194.367188 84.191406 194.214844 83.199219 194.214844 C 82.035156 194.214844 81.453125 194.523438 81.453125 195.132812 C 81.453125 195.359375 81.554688 195.546875 81.757812 195.710938 C 81.964844 195.867188 82.335938 196.035156 82.878906 196.214844 L 83.894531 196.550781 C 85.058594 196.9375 85.890625 197.394531 86.375 197.929688 C 86.871094 198.464844 87.109375 199.183594 87.109375 200.074219 C 87.109375 201.3125 86.664062 202.285156 85.78125 202.96875 C 84.894531 203.65625 83.648438 204.003906 82.042969 204.003906 C 81.347656 204.003906 80.6875 203.945312 80.042969 203.824219 C 79.398438 203.703125 78.851562 203.546875 78.398438 203.34375 L 78.398438 200.933594 C 78.953125 201.078125 79.566406 201.207031 80.234375 201.300781 C 80.910156 201.398438 81.519531 201.445312 82.070312 201.445312 C 82.660156 201.445312 83.09375 201.367188 83.378906 201.21875 C 83.660156 201.066406 83.800781 200.828125 83.800781 200.496094 C 83.800781 200.316406 83.761719 200.171875 83.691406 200.054688 C 83.617188 199.941406 83.476562 199.832031 83.269531 199.726562 C 83.058594 199.617188 82.714844 199.476562 82.226562 199.308594 L 81.246094 198.972656 Z M 81.253906 198.984375 "/>
<path fill-rule="nonzero" fill="rgb(100%, 100%, 100%)" fill-opacity="1" d="M 70.335938 203.734375 L 69.695312 201.464844 L 66.097656 201.464844 L 65.492188 203.734375 L 62.035156 203.734375 L 66.171875 191.996094 L 69.785156 191.996094 L 73.921875 203.734375 Z M 66.714844 199.160156 L 69.085938 199.160156 L 67.882812 194.804688 Z M 66.714844 199.160156 "/>
<path fill="none" stroke-width="1" stroke-linecap="butt" stroke-linejoin="miter" stroke="rgb(100%, 100%, 100%)" stroke-opacity="1" stroke-miterlimit="10" d="M 94.964167 236.187507 L 282.990215 236.187507 " transform="matrix(0.75, 0, 0, 0.75, -18.988748, 0)"/>
<path fill="none" stroke-width="1" stroke-linecap="butt" stroke-linejoin="miter" stroke="rgb(100%, 100%, 100%)" stroke-opacity="1" stroke-miterlimit="10" d="M 94.964167 131.718754 L 282.990215 131.718754 " transform="matrix(0.75, 0, 0, 0.75, -18.988748, 0)"/>
<path fill-rule="nonzero" fill="rgb(100%, 100%, 100%)" fill-opacity="1" d="M 160.007812 85.363281 L 159.863281 84.023438 C 159.273438 84.515625 158.617188 84.90625 157.886719 85.195312 C 157.160156 85.484375 156.460938 85.628906 155.792969 85.628906 C 154.214844 85.628906 152.964844 85.074219 152.046875 83.96875 C 151.132812 82.859375 150.667969 81.335938 150.667969 79.410156 C 150.667969 77.484375 151.132812 75.863281 152.058594 74.707031 C 152.988281 73.554688 154.246094 72.976562 155.839844 72.976562 C 157.324219 72.976562 158.664062 73.5 159.863281 74.550781 L 159.863281 67.660156 L 161.230469 67.660156 L 161.230469 85.371094 L 160.007812 85.371094 Z M 156.105469 84.382812 C 157.304688 84.382812 158.558594 83.871094 159.863281 82.855469 L 159.863281 75.769531 C 159.195312 75.226562 158.550781 74.828125 157.9375 74.582031 C 157.324219 74.335938 156.671875 74.210938 155.984375 74.210938 C 154.710938 74.210938 153.738281 74.640625 153.078125 75.503906 C 152.414062 76.363281 152.085938 77.640625 152.085938 79.332031 C 152.085938 82.699219 153.425781 84.382812 156.105469 84.382812 Z M 156.105469 84.382812 "/>
<path fill-rule="nonzero" fill="rgb(100%, 100%, 100%)" fill-opacity="1" d="M 140.429688 79.574219 C 140.445312 81.246094 140.8125 82.488281 141.53125 83.28125 C 142.246094 84.082031 143.355469 84.480469 144.859375 84.480469 C 146.234375 84.480469 147.550781 84.203125 148.808594 83.644531 L 148.808594 84.769531 C 147.675781 85.40625 146.328125 85.726562 144.761719 85.726562 C 142.867188 85.726562 141.433594 85.191406 140.476562 84.113281 C 139.519531 83.035156 139.039062 81.433594 139.039062 79.3125 C 139.039062 77.304688 139.519531 75.746094 140.488281 74.636719 C 141.457031 73.527344 142.808594 72.976562 144.546875 72.976562 C 145.996094 72.976562 147.113281 73.390625 147.886719 74.222656 C 148.664062 75.050781 149.050781 76.238281 149.050781 77.785156 C 149.050781 78.5 149.003906 79.105469 148.90625 79.578125 L 140.433594 79.578125 Z M 144.425781 74.191406 C 141.902344 74.191406 140.574219 75.617188 140.429688 78.476562 L 147.703125 78.476562 C 147.71875 78.253906 147.726562 77.988281 147.726562 77.6875 C 147.726562 76.539062 147.449219 75.671875 146.890625 75.082031 C 146.328125 74.492188 145.511719 74.195312 144.425781 74.195312 Z M 144.425781 74.191406 "/>
<path fill-rule="nonzero" fill="rgb(100%, 100%, 100%)" fill-opacity="1" d="M 127.4375 85.363281 L 127.4375 74.523438 L 125.089844 74.523438 L 125.089844 73.566406 L 127.4375 73.347656 L 127.4375 70.597656 C 127.4375 69.523438 127.714844 68.710938 128.273438 68.152344 C 128.832031 67.59375 129.628906 67.316406 130.667969 67.316406 C 131.054688 67.316406 131.445312 67.351562 131.855469 67.425781 C 132.265625 67.496094 132.609375 67.585938 132.898438 67.699219 L 132.898438 68.828125 C 132.097656 68.652344 131.417969 68.5625 130.839844 68.5625 C 130.121094 68.5625 129.605469 68.710938 129.285156 69.007812 C 128.964844 69.300781 128.808594 69.785156 128.808594 70.453125 L 128.808594 73.324219 L 136.613281 73.324219 L 136.613281 85.363281 L 135.246094 85.363281 L 135.246094 74.523438 L 128.808594 74.523438 L 128.808594 85.363281 Z M 135.929688 70.742188 C 135.613281 70.742188 135.359375 70.644531 135.179688 70.453125 C 135 70.257812 134.902344 70.007812 134.902344 69.6875 C 134.902344 69.367188 134.992188 69.117188 135.179688 68.921875 C 135.367188 68.730469 135.613281 68.632812 135.929688 68.632812 C 136.25 68.632812 136.503906 68.730469 136.683594 68.921875 C 136.863281 69.117188 136.960938 69.367188 136.960938 69.6875 C 136.960938 70.007812 136.871094 70.257812 136.683594 70.453125 C 136.503906 70.644531 136.25 70.742188 135.929688 70.742188 Z M 135.929688 70.742188 "/>
<path fill-rule="nonzero" fill="rgb(100%, 100%, 100%)" fill-opacity="1" d="M 122.691406 70.742188 C 122.375 70.742188 122.121094 70.644531 121.941406 70.453125 C 121.757812 70.257812 121.664062 70.007812 121.664062 69.6875 C 121.664062 69.367188 121.753906 69.117188 121.941406 68.921875 C 122.125 68.730469 122.375 68.632812 122.691406 68.632812 C 123.011719 68.632812 123.265625 68.730469 123.445312 68.921875 C 123.625 69.117188 123.722656 69.367188 123.722656 69.6875 C 123.722656 70.007812 123.632812 70.257812 123.445312 70.453125 C 123.265625 70.644531 123.011719 70.742188 122.691406 70.742188 Z M 122 85.363281 L 122 73.324219 L 123.367188 73.324219 L 123.367188 85.363281 Z M 122 85.363281 "/>
<path fill-rule="nonzero" fill="rgb(100%, 100%, 100%)" fill-opacity="1" d="M 120.132812 85.105469 C 119.464844 85.378906 118.660156 85.515625 117.71875 85.515625 C 116.78125 85.515625 116.058594 85.261719 115.5625 84.761719 C 115.070312 84.261719 114.824219 83.527344 114.824219 82.570312 L 114.824219 74.527344 L 112.570312 74.527344 L 112.570312 73.570312 L 114.871094 73.355469 L 115.0625 69.839844 L 116.191406 69.839844 L 116.191406 73.328125 L 120.019531 73.328125 L 120.019531 74.527344 L 116.191406 74.527344 L 116.191406 82.5 C 116.191406 83.15625 116.328125 83.617188 116.613281 83.890625 C 116.886719 84.160156 117.359375 84.300781 118.015625 84.300781 C 118.671875 84.300781 119.382812 84.203125 120.144531 84.011719 L 120.144531 85.113281 Z M 120.132812 85.105469 "/>
<path fill-rule="nonzero" fill="rgb(100%, 100%, 100%)" fill-opacity="1" d="M 106.0625 85.363281 L 106.0625 73.324219 L 107.261719 73.324219 L 107.40625 75.070312 C 108.015625 74.402344 108.605469 73.925781 109.1875 73.644531 C 109.773438 73.367188 110.429688 73.222656 111.164062 73.222656 C 111.433594 73.222656 111.757812 73.246094 112.144531 73.292969 L 112.144531 74.515625 C 111.730469 74.484375 111.355469 74.46875 111.019531 74.46875 C 110.285156 74.46875 109.632812 74.605469 109.066406 74.878906 C 108.503906 75.148438 107.953125 75.585938 107.429688 76.195312 L 107.429688 85.363281 Z M 106.0625 85.363281 "/>
<path fill-rule="nonzero" fill="rgb(100%, 100%, 100%)" fill-opacity="1" d="M 95.195312 79.574219 C 95.214844 81.246094 95.582031 82.488281 96.296875 83.28125 C 97.015625 84.082031 98.121094 84.480469 99.628906 84.480469 C 101 84.480469 102.3125 84.203125 103.578125 83.644531 L 103.578125 84.769531 C 102.445312 85.40625 101.097656 85.726562 99.53125 85.726562 C 97.636719 85.726562 96.203125 85.191406 95.246094 84.113281 C 94.289062 83.035156 93.8125 81.433594 93.8125 79.3125 C 93.8125 77.304688 94.292969 75.746094 95.257812 74.636719 C 96.21875 73.527344 97.574219 72.976562 99.316406 72.976562 C 100.765625 72.976562 101.878906 73.390625 102.65625 74.222656 C 103.433594 75.050781 103.816406 76.238281 103.816406 77.785156 C 103.816406 78.5 103.769531 79.105469 103.671875 79.578125 L 95.203125 79.578125 Z M 99.195312 74.191406 C 96.671875 74.191406 95.339844 75.617188 95.195312 78.476562 L 102.476562 78.476562 C 102.492188 78.253906 102.5 77.988281 102.5 77.6875 C 102.5 76.539062 102.222656 75.671875 101.664062 75.082031 C 101.101562 74.492188 100.285156 74.195312 99.199219 74.195312 Z M 99.195312 74.191406 "/>
<path fill-rule="nonzero" fill="rgb(100%, 100%, 100%)" fill-opacity="1" d="M 92.898438 84.960938 C 91.910156 85.40625 90.910156 85.628906 89.90625 85.628906 C 88.054688 85.628906 86.648438 85.101562 85.691406 84.039062 C 84.734375 82.980469 84.25 81.421875 84.25 79.363281 C 84.25 77.304688 84.738281 75.761719 85.707031 74.683594 C 86.683594 73.605469 88.09375 73.070312 89.945312 73.070312 C 90.933594 73.070312 91.867188 73.265625 92.746094 73.644531 L 92.746094 74.769531 C 91.867188 74.480469 90.957031 74.335938 90.019531 74.335938 C 88.5 74.335938 87.40625 74.722656 86.726562 75.496094 C 86.046875 76.273438 85.707031 77.515625 85.707031 79.21875 L 85.707031 79.507812 C 85.707031 81.167969 86.050781 82.390625 86.738281 83.179688 C 87.425781 83.96875 88.5 84.367188 89.972656 84.367188 C 90.851562 84.367188 91.820312 84.191406 92.890625 83.84375 L 92.890625 84.96875 Z M 92.898438 84.960938 "/>
<path fill-rule="nonzero" fill="rgb(100%, 60.000002%, 0%)" fill-opacity="1" d="M 161.585938 48.445312 L 151.84375 42.816406 L 142.097656 48.445312 L 142.097656 59.695312 L 151.84375 65.324219 L 161.585938 59.695312 Z M 161.585938 48.445312 "/>
<path fill-rule="nonzero" fill="rgb(100%, 100%, 100%)" fill-opacity="1" d="M 157.285156 51.035156 L 156.183594 49.933594 C 156.082031 49.832031 155.917969 49.832031 155.824219 49.933594 L 149.296875 56.460938 L 147.753906 54.917969 C 147.652344 54.816406 147.492188 54.816406 147.394531 54.917969 L 146.292969 56.019531 C 146.191406 56.125 146.191406 56.285156 146.292969 56.382812 L 149.019531 59.109375 C 149.175781 59.265625 149.433594 59.265625 149.597656 59.109375 L 157.296875 51.398438 C 157.402344 51.292969 157.402344 51.132812 157.296875 51.035156 Z M 157.285156 51.035156 "/>
<path fill-rule="nonzero" fill="rgb(100%, 100%, 100%)" fill-opacity="1" d="M 98.054688 58.175781 C 98.054688 58.753906 98.054688 59.339844 98.351562 59.902344 C 98.496094 60.34375 98.777344 60.921875 98.929688 61.347656 C 99.074219 61.5 99.074219 61.644531 99.074219 61.789062 C 99.074219 62.070312 98.929688 62.226562 98.632812 62.367188 L 97.332031 63.234375 L 96.90625 63.234375 C 96.613281 63.234375 96.46875 63.089844 96.328125 62.949219 C 96.046875 62.65625 95.75 62.371094 95.605469 62.078125 C 95.460938 61.792969 95.167969 61.355469 95.027344 60.929688 C 93.582031 62.65625 91.558594 63.671875 89.25 63.671875 C 87.804688 63.816406 86.359375 63.234375 85.351562 62.226562 C 84.335938 61.210938 83.90625 59.910156 83.90625 58.464844 C 83.90625 56.875 84.484375 55.429688 85.636719 54.425781 C 86.9375 53.40625 88.671875 52.835938 90.410156 52.835938 C 91.132812 52.835938 91.855469 52.835938 92.433594 52.980469 C 93.15625 53.125 93.878906 53.261719 94.601562 53.40625 L 94.601562 51.964844 C 94.746094 50.8125 94.449219 49.652344 93.726562 48.789062 C 92.859375 48.066406 91.710938 47.785156 90.554688 47.921875 C 89.832031 47.921875 89.109375 48.066406 88.386719 48.207031 C 87.664062 48.351562 86.941406 48.644531 86.21875 48.929688 C 85.9375 49.074219 85.78125 49.074219 85.496094 49.222656 L 85.214844 49.222656 C 84.917969 49.222656 84.773438 49.074219 84.773438 48.644531 L 84.773438 47.628906 C 84.773438 47.34375 84.773438 47.199219 84.917969 46.90625 C 85.0625 46.761719 85.214844 46.621094 85.496094 46.476562 C 86.21875 46.039062 87.085938 45.757812 87.949219 45.613281 C 88.964844 45.316406 89.972656 45.171875 90.988281 45.171875 C 92.859375 45.027344 94.601562 45.613281 96.046875 46.761719 C 97.195312 48.0625 97.773438 49.796875 97.636719 51.535156 L 98.0625 58.183594 Z M 90.109375 61.066406 C 90.832031 61.066406 91.410156 60.921875 92.132812 60.785156 C 92.855469 60.488281 93.433594 60.0625 94.015625 59.484375 C 94.300781 59.1875 94.59375 58.761719 94.738281 58.183594 C 94.882812 57.605469 94.882812 57.019531 94.882812 56.453125 L 94.882812 55.582031 C 94.304688 55.4375 93.722656 55.296875 93.15625 55.296875 C 92.578125 55.152344 91.992188 55.152344 91.269531 55.152344 C 90.265625 55.007812 89.25 55.296875 88.382812 55.875 C 87.21875 57.027344 87.082031 58.910156 88.097656 60.210938 C 88.671875 60.933594 89.394531 61.214844 90.117188 61.078125 Z M 105.859375 63.234375 C 105.574219 63.234375 105.28125 63.234375 105.136719 63.089844 C 104.992188 62.945312 104.855469 62.648438 104.710938 62.367188 L 100.078125 47.195312 C 99.933594 46.898438 99.933594 46.617188 99.933594 46.472656 C 99.933594 46.175781 100.078125 46.03125 100.21875 46.03125 L 102.242188 46.03125 C 102.535156 46.03125 102.820312 46.03125 102.964844 46.175781 C 103.109375 46.328125 103.257812 46.617188 103.402344 46.898438 L 106.71875 59.761719 L 109.761719 46.898438 C 109.761719 46.617188 109.90625 46.328125 110.1875 46.175781 C 110.484375 46.03125 110.765625 46.03125 110.910156 46.03125 L 112.5 46.03125 C 112.792969 46.03125 113.078125 46.03125 113.222656 46.175781 C 113.371094 46.328125 113.515625 46.617188 113.660156 46.898438 L 116.695312 60.054688 L 120.023438 46.898438 C 120.023438 46.617188 120.167969 46.328125 120.453125 46.175781 C 120.746094 46.03125 120.890625 46.03125 121.175781 46.03125 L 123.058594 46.03125 C 123.34375 46.03125 123.5 46.175781 123.5 46.328125 L 123.5 46.753906 C 123.5 46.898438 123.347656 47.050781 123.347656 47.195312 L 118.730469 62.222656 C 118.730469 62.503906 118.585938 62.792969 118.292969 62.945312 C 118.148438 63.226562 117.863281 63.226562 117.570312 63.226562 L 115.839844 63.226562 C 115.558594 63.226562 115.261719 63.226562 115.117188 63.082031 C 114.972656 62.789062 114.835938 62.644531 114.679688 62.359375 L 111.644531 49.785156 L 108.609375 62.359375 C 108.609375 62.644531 108.464844 62.9375 108.171875 63.082031 C 108.027344 63.226562 107.742188 63.226562 107.597656 63.226562 L 105.859375 63.226562 Z M 131 63.816406 C 129.996094 63.816406 128.976562 63.671875 127.964844 63.523438 C 127.242188 63.378906 126.375 63.09375 125.65625 62.800781 C 125.214844 62.65625 124.933594 62.226562 124.933594 61.648438 L 124.933594 60.632812 C 124.933594 60.207031 125.078125 60.0625 125.359375 60.0625 L 125.65625 60.0625 C 125.800781 60.0625 125.9375 60.207031 126.082031 60.207031 C 126.804688 60.488281 127.527344 60.785156 128.25 60.929688 C 128.972656 61.070312 129.839844 61.210938 130.5625 61.210938 C 131.578125 61.210938 132.585938 61.066406 133.449219 60.488281 C 134.027344 60.0625 134.46875 59.339844 134.46875 58.617188 C 134.46875 58.039062 134.324219 57.597656 133.890625 57.316406 C 133.3125 56.875 132.589844 56.449219 131.867188 56.296875 L 128.976562 55.429688 C 127.828125 55.148438 126.664062 54.425781 125.804688 53.40625 C 125.226562 52.542969 124.789062 51.535156 124.789062 50.519531 C 124.789062 49.796875 124.9375 49.074219 125.367188 48.351562 C 125.660156 47.777344 126.234375 47.199219 126.808594 46.761719 C 127.386719 46.335938 128.109375 45.894531 128.832031 45.757812 C 129.699219 45.460938 130.421875 45.460938 131.285156 45.460938 C 131.722656 45.460938 132.15625 45.460938 132.585938 45.613281 C 133.023438 45.613281 133.449219 45.757812 133.882812 45.894531 C 134.324219 46.039062 134.605469 46.039062 135.046875 46.175781 C 135.328125 46.328125 135.617188 46.328125 135.914062 46.472656 C 136.195312 46.617188 136.339844 46.753906 136.492188 46.898438 C 136.636719 47.050781 136.636719 47.339844 136.636719 47.621094 L 136.636719 48.496094 C 136.636719 48.921875 136.492188 49.066406 136.195312 49.066406 C 135.902344 49.066406 135.617188 48.921875 135.472656 48.785156 C 134.324219 48.207031 133.023438 48.0625 131.71875 48.0625 C 130.851562 48.0625 129.988281 48.207031 129.109375 48.640625 C 128.539062 48.921875 128.105469 49.644531 128.242188 50.367188 C 128.242188 50.945312 128.386719 51.386719 128.820312 51.8125 C 129.398438 52.390625 130.121094 52.679688 130.988281 52.832031 L 133.734375 53.695312 C 134.882812 53.980469 135.902344 54.703125 136.769531 55.570312 C 137.347656 56.292969 137.636719 57.308594 137.636719 58.316406 C 137.636719 59.039062 137.492188 59.902344 137.058594 60.625 C 136.773438 61.347656 136.191406 61.925781 135.613281 62.367188 C 135.039062 62.792969 134.167969 63.234375 133.445312 63.515625 C 132.875 63.667969 131.855469 63.8125 130.996094 63.8125 Z M 131 63.816406 "/>
<path fill-rule="nonzero" fill="rgb(100%, 100%, 100%)" fill-opacity="1" d="M 186.328125 162.945312 C 185.148438 163.386719 183.800781 163.601562 182.285156 163.601562 C 180.386719 163.582031 178.992188 163.136719 178.085938 162.269531 C 177.191406 161.40625 176.738281 160.03125 176.738281 158.152344 L 176.738281 151.742188 L 174.613281 151.742188 L 174.613281 148.570312 L 176.890625 148.027344 L 177.785156 143.890625 L 182.367188 143.890625 L 182.367188 147.90625 L 186.261719 147.90625 L 186.261719 151.742188 L 182.367188 151.742188 L 182.367188 157.792969 C 182.367188 158.394531 182.519531 158.808594 182.820312 159.050781 C 183.121094 159.292969 183.625 159.410156 184.347656 159.410156 C 184.910156 159.410156 185.566406 159.351562 186.324219 159.230469 L 186.324219 162.945312 Z M 186.328125 162.945312 "/>
<path fill-rule="nonzero" fill="rgb(100%, 100%, 100%)" fill-opacity="1" d="M 173.570312 162.652344 C 172.953125 162.96875 172.234375 163.222656 171.417969 163.398438 C 170.597656 163.578125 169.75 163.667969 168.871094 163.667969 C 166.292969 163.667969 164.332031 162.992188 162.980469 161.644531 C 161.632812 160.296875 160.957031 158.328125 160.957031 155.726562 C 160.957031 153.125 161.675781 151.152344 163.101562 149.722656 C 164.527344 148.296875 166.535156 147.582031 169.105469 147.582031 C 170.820312 147.582031 172.289062 147.914062 173.503906 148.570312 L 173.503906 152.132812 C 172.351562 151.773438 171.261719 151.589844 170.242188 151.589844 C 169.003906 151.589844 168.09375 151.898438 167.515625 152.519531 C 166.9375 153.136719 166.648438 154.109375 166.648438 155.425781 L 166.648438 155.847656 C 166.648438 157.148438 166.9375 158.105469 167.515625 158.726562 C 168.09375 159.34375 168.972656 159.652344 170.152344 159.652344 C 171.230469 159.652344 172.367188 159.460938 173.566406 159.082031 L 173.566406 162.644531 Z M 173.570312 162.652344 "/>
<path fill-rule="nonzero" fill="rgb(100%, 100%, 100%)" fill-opacity="1" d="M 150.089844 157.046875 C 150.195312 158.042969 150.574219 158.765625 151.246094 159.21875 C 151.921875 159.671875 152.921875 159.894531 154.257812 159.894531 C 155.59375 159.894531 157.09375 159.632812 158.929688 159.117188 L 158.929688 162.558594 C 158.171875 162.941406 157.261719 163.242188 156.203125 163.457031 C 155.144531 163.675781 154.09375 163.789062 153.058594 163.789062 C 147.664062 163.789062 144.972656 161.074219 144.972656 155.644531 C 144.972656 153.085938 145.660156 151.085938 147.039062 149.640625 C 148.417969 148.195312 150.332031 147.46875 152.789062 147.46875 C 154.867188 147.46875 156.472656 148.019531 157.613281 149.128906 C 158.75 150.234375 159.320312 151.820312 159.320312 153.871094 C 159.320312 154.332031 159.285156 154.878906 159.21875 155.503906 C 159.152344 156.128906 159.074219 156.648438 158.996094 157.046875 Z M 152.632812 151.207031 C 151.914062 151.207031 151.332031 151.429688 150.898438 151.878906 C 150.460938 152.332031 150.1875 152.976562 150.089844 153.8125 L 154.582031 153.8125 L 154.582031 153.453125 C 154.582031 151.953125 153.933594 151.207031 152.636719 151.207031 Z M 152.632812 151.207031 "/>
<path fill-rule="nonzero" fill="rgb(100%, 100%, 100%)" fill-opacity="1" d="M 143.890625 162.945312 C 142.710938 163.386719 141.363281 163.601562 139.84375 163.601562 C 137.949219 163.582031 136.550781 163.136719 135.65625 162.269531 C 134.757812 161.40625 134.304688 160.03125 134.304688 158.152344 L 134.304688 151.742188 L 132.179688 151.742188 L 132.179688 148.570312 L 134.457031 148.027344 L 135.355469 143.890625 L 139.933594 143.890625 L 139.933594 147.90625 L 143.832031 147.90625 L 143.832031 151.742188 L 139.933594 151.742188 L 139.933594 157.792969 C 139.933594 158.394531 140.085938 158.808594 140.386719 159.050781 C 140.6875 159.292969 141.195312 159.410156 141.914062 159.410156 C 142.476562 159.410156 143.132812 159.351562 143.890625 159.230469 Z M 143.890625 162.945312 "/>
<path fill-rule="nonzero" fill="rgb(100%, 100%, 100%)" fill-opacity="1" d="M 127.925781 145.960938 C 126.96875 145.960938 126.203125 145.703125 125.628906 145.183594 C 125.058594 144.667969 124.777344 143.976562 124.777344 143.121094 C 124.777344 142.265625 125.058594 141.574219 125.628906 141.054688 C 126.203125 140.539062 126.960938 140.277344 127.925781 140.277344 C 128.886719 140.277344 129.644531 140.539062 130.21875 141.054688 C 130.789062 141.574219 131.074219 142.265625 131.074219 143.121094 C 131.074219 143.976562 130.789062 144.667969 130.21875 145.183594 C 129.644531 145.703125 128.886719 145.960938 127.925781 145.960938 Z M 125.105469 163.335938 L 125.105469 147.914062 L 130.734375 147.914062 L 130.734375 163.335938 Z M 125.105469 163.335938 "/>
<path fill-rule="nonzero" fill="rgb(100%, 100%, 100%)" fill-opacity="1" d="M 116.304688 163.335938 L 116.304688 153.210938 C 116.304688 152.609375 116.191406 152.175781 115.960938 151.890625 C 115.734375 151.613281 115.347656 151.46875 114.804688 151.46875 C 114.066406 151.46875 113.289062 151.722656 112.46875 152.21875 L 112.46875 163.332031 L 106.839844 163.332031 L 106.839844 141.164062 L 112.46875 141.164062 L 112.46875 149.160156 C 113.332031 148.554688 114.15625 148.125 114.957031 147.859375 C 115.757812 147.585938 116.605469 147.453125 117.503906 147.453125 C 118.941406 147.453125 120.039062 147.847656 120.796875 148.621094 C 121.554688 149.398438 121.933594 150.507812 121.933594 151.945312 L 121.933594 163.332031 L 116.304688 163.332031 Z M 116.304688 163.335938 "/>
<path fill-rule="nonzero" fill="rgb(100%, 100%, 100%)" fill-opacity="1" d="M 104.59375 162.652344 C 103.972656 162.96875 103.257812 163.222656 102.4375 163.398438 C 101.621094 163.578125 100.773438 163.667969 99.894531 163.667969 C 97.316406 163.667969 95.351562 162.992188 94.003906 161.644531 C 92.65625 160.296875 91.980469 158.328125 91.980469 155.726562 C 91.980469 153.125 92.691406 151.152344 94.125 149.722656 C 95.550781 148.296875 97.558594 147.582031 100.132812 147.582031 C 101.847656 147.582031 103.316406 147.914062 104.535156 148.570312 L 104.535156 152.132812 C 103.378906 151.773438 102.289062 151.589844 101.269531 151.589844 C 100.03125 151.589844 99.121094 151.898438 98.542969 152.519531 C 97.964844 153.136719 97.675781 154.109375 97.675781 155.425781 L 97.675781 155.847656 C 97.675781 157.148438 97.964844 158.105469 98.542969 158.726562 C 99.121094 159.34375 100 159.652344 101.179688 159.652344 C 102.257812 159.652344 103.398438 159.460938 104.59375 159.082031 Z M 104.59375 162.652344 "/>
<path fill-rule="nonzero" fill="rgb(100%, 100%, 100%)" fill-opacity="1" d="M 91.414062 152.824219 C 90.777344 152.722656 90.117188 152.675781 89.441406 152.675781 C 88.183594 152.675781 87.042969 152.84375 86.027344 153.1875 L 86.027344 163.34375 L 80.398438 163.34375 L 80.398438 147.917969 L 84.980469 147.917969 L 85.667969 150.253906 C 87.082031 148.574219 88.605469 147.738281 90.21875 147.738281 C 90.640625 147.738281 91.035156 147.769531 91.414062 147.828125 L 91.414062 152.832031 Z M 91.414062 152.824219 "/>
<path fill-rule="nonzero" fill="rgb(100%, 100%, 100%)" fill-opacity="1" d="M 72.691406 163.335938 L 71.554688 159.320312 L 65.203125 159.320312 L 64.125 163.335938 L 58.015625 163.335938 L 65.324219 142.578125 L 71.703125 142.578125 L 79.011719 163.335938 Z M 66.285156 155.25 L 70.476562 155.25 L 68.351562 147.550781 Z M 66.285156 155.25 "/>
<path fill-rule="nonzero" fill="rgb(100%, 100%, 100%)" fill-opacity="1" d="M 183.378906 130.097656 C 183.378906 129.820312 183.289062 129.605469 183.109375 129.453125 C 182.929688 129.304688 182.558594 129.117188 182 128.898438 L 179.785156 128.03125 C 178.527344 127.53125 177.617188 126.917969 177.058594 126.191406 C 176.496094 125.460938 176.222656 124.511719 176.222656 123.332031 C 176.222656 122.355469 176.496094 121.5 177.046875 120.785156 C 177.59375 120.066406 178.351562 119.511719 179.320312 119.132812 C 180.289062 118.753906 181.410156 118.5625 182.691406 118.5625 C 184.527344 118.5625 186.207031 118.953125 187.726562 119.730469 L 187.726562 123.144531 C 186.089844 122.644531 184.570312 122.398438 183.175781 122.398438 C 182.496094 122.398438 182.019531 122.457031 181.734375 122.578125 C 181.457031 122.699219 181.3125 122.914062 181.3125 123.234375 C 181.3125 123.476562 181.417969 123.671875 181.628906 123.835938 C 181.839844 124 182.191406 124.171875 182.691406 124.378906 L 184.910156 125.246094 C 186.289062 125.785156 187.234375 126.382812 187.757812 127.046875 C 188.273438 127.703125 188.53125 128.609375 188.53125 129.773438 C 188.53125 131.351562 187.949219 132.601562 186.78125 133.53125 C 185.613281 134.457031 184.03125 134.921875 182.03125 134.921875 C 179.710938 134.921875 177.796875 134.480469 176.28125 133.601562 L 176.28125 130.128906 C 177.496094 130.464844 178.515625 130.699219 179.320312 130.832031 C 180.128906 130.964844 180.941406 131.023438 181.757812 131.023438 C 182.320312 131.023438 182.730469 130.953125 182.988281 130.800781 C 183.246094 130.652344 183.378906 130.417969 183.378906 130.097656 Z M 183.378906 130.097656 "/>
<path fill-rule="nonzero" fill="rgb(100%, 100%, 100%)" fill-opacity="1" d="M 168.4375 134.4375 L 168.4375 124.3125 C 168.4375 123.710938 168.320312 123.277344 168.09375 122.992188 C 167.863281 122.714844 167.480469 122.570312 166.9375 122.570312 C 166.195312 122.570312 165.421875 122.824219 164.601562 123.320312 L 164.601562 134.433594 L 158.972656 134.433594 L 158.972656 119.007812 L 163.554688 119.007812 L 164.035156 120.566406 C 164.972656 119.867188 165.890625 119.355469 166.792969 119.039062 C 167.691406 118.71875 168.640625 118.554688 169.640625 118.554688 C 171.078125 118.554688 172.175781 118.949219 172.933594 119.722656 C 173.691406 120.5 174.070312 121.609375 174.070312 123.046875 L 174.070312 134.433594 L 168.441406 134.433594 Z M 168.4375 134.4375 "/>
<path fill-rule="nonzero" fill="rgb(100%, 100%, 100%)" fill-opacity="1" d="M 148.515625 134.890625 C 146.015625 134.890625 144.058594 134.171875 142.644531 132.734375 C 141.222656 131.296875 140.519531 129.289062 140.519531 126.714844 C 140.519531 124.136719 141.230469 122.164062 142.644531 120.722656 C 144.058594 119.285156 146.015625 118.566406 148.515625 118.566406 C 151.011719 118.566406 152.96875 119.285156 154.382812 120.722656 C 155.800781 122.164062 156.507812 124.160156 156.507812 126.714844 C 156.507812 129.265625 155.800781 131.296875 154.382812 132.734375 C 152.964844 134.171875 151.007812 134.890625 148.515625 134.890625 Z M 148.515625 130.933594 C 150.050781 130.933594 150.820312 129.527344 150.820312 126.714844 C 150.820312 123.902344 150.050781 122.523438 148.515625 122.523438 C 146.980469 122.523438 146.207031 123.921875 146.207031 126.714844 C 146.207031 129.507812 146.980469 130.933594 148.515625 130.933594 Z M 148.515625 130.933594 "/>
<path fill-rule="nonzero" fill="rgb(100%, 100%, 100%)" fill-opacity="1" d="M 135.246094 117.0625 C 134.289062 117.0625 133.523438 116.804688 132.953125 116.285156 C 132.378906 115.769531 132.097656 115.078125 132.097656 114.222656 C 132.097656 113.367188 132.378906 112.675781 132.953125 112.15625 C 133.523438 111.636719 134.28125 111.378906 135.246094 111.378906 C 136.207031 111.378906 136.96875 111.636719 137.539062 112.15625 C 138.109375 112.675781 138.394531 113.367188 138.394531 114.222656 C 138.394531 115.078125 138.109375 115.769531 137.539062 116.285156 C 136.96875 116.804688 136.207031 117.0625 135.246094 117.0625 Z M 132.433594 134.4375 L 132.433594 119.015625 L 138.0625 119.015625 L 138.0625 134.4375 Z M 132.433594 134.4375 "/>
<path fill-rule="nonzero" fill="rgb(100%, 100%, 100%)" fill-opacity="1" d="M 130.574219 134.046875 C 129.394531 134.488281 128.042969 134.703125 126.527344 134.703125 C 124.632812 134.683594 123.234375 134.238281 122.335938 133.371094 C 121.441406 132.503906 120.988281 131.132812 120.988281 129.253906 L 120.988281 122.84375 L 118.863281 122.84375 L 118.863281 119.671875 L 121.140625 119.128906 L 122.035156 114.992188 L 126.617188 114.992188 L 126.617188 119.007812 L 130.511719 119.007812 L 130.511719 122.84375 L 126.617188 122.84375 L 126.617188 128.894531 C 126.617188 129.496094 126.769531 129.910156 127.070312 130.152344 C 127.371094 130.394531 127.875 130.511719 128.597656 130.511719 C 129.160156 130.511719 129.816406 130.453125 130.574219 130.332031 Z M 130.574219 134.046875 "/>
<path fill-rule="nonzero" fill="rgb(100%, 100%, 100%)" fill-opacity="1" d="M 112.84375 134.4375 L 112.367188 132.910156 C 110.609375 134.226562 108.84375 134.882812 107.0625 134.882812 C 105.625 134.882812 104.503906 134.46875 103.710938 133.644531 C 102.914062 132.820312 102.511719 131.679688 102.511719 130.242188 L 102.511719 119.007812 L 108.140625 119.007812 L 108.140625 129.164062 C 108.140625 129.765625 108.253906 130.199219 108.484375 130.464844 C 108.710938 130.734375 109.085938 130.867188 109.609375 130.867188 C 110.328125 130.867188 111.0625 130.65625 111.796875 130.242188 L 111.796875 119.007812 L 117.425781 119.007812 L 117.425781 134.433594 L 112.84375 134.433594 Z M 112.84375 134.4375 "/>
<path fill-rule="nonzero" fill="rgb(100%, 100%, 100%)" fill-opacity="1" d="M 100.773438 134.257812 C 99.796875 134.679688 98.695312 134.882812 97.476562 134.882812 C 95.882812 134.882812 94.691406 134.457031 93.914062 133.59375 C 93.136719 132.734375 92.746094 131.441406 92.746094 129.699219 L 92.746094 112.265625 L 98.375 112.265625 L 98.375 129.25 C 98.375 129.765625 98.464844 130.144531 98.644531 130.386719 C 98.828125 130.628906 99.128906 130.746094 99.542969 130.746094 C 99.878906 130.746094 100.289062 130.707031 100.773438 130.628906 Z M 100.773438 134.257812 "/>
<path fill-rule="nonzero" fill="rgb(100%, 100%, 100%)" fill-opacity="1" d="M 82.292969 134.890625 C 79.796875 134.890625 77.839844 134.171875 76.425781 132.734375 C 75.003906 131.296875 74.300781 129.289062 74.300781 126.714844 C 74.300781 124.136719 75.011719 122.164062 76.425781 120.722656 C 77.839844 119.285156 79.796875 118.566406 82.292969 118.566406 C 84.792969 118.566406 86.75 119.285156 88.164062 120.722656 C 89.578125 122.164062 90.289062 124.160156 90.289062 126.714844 C 90.289062 129.265625 89.578125 131.296875 88.164062 132.734375 C 86.75 134.171875 84.785156 134.890625 82.292969 134.890625 Z M 82.292969 130.933594 C 83.828125 130.933594 84.601562 129.527344 84.601562 126.714844 C 84.601562 123.902344 83.828125 122.523438 82.292969 122.523438 C 80.757812 122.523438 79.988281 123.921875 79.988281 126.714844 C 79.988281 129.507812 80.757812 130.933594 82.292969 130.933594 Z M 82.292969 130.933594 "/>
<path fill-rule="nonzero" fill="rgb(100%, 100%, 100%)" fill-opacity="1" d="M 62.3125 126.050781 C 60.414062 125.394531 59.050781 124.566406 58.207031 123.566406 C 57.371094 122.566406 56.949219 121.257812 56.949219 119.640625 C 56.949219 118.320312 57.308594 117.171875 58.027344 116.195312 C 58.742188 115.222656 59.730469 114.46875 60.976562 113.949219 C 62.222656 113.433594 63.65625 113.175781 65.273438 113.175781 C 67.371094 113.175781 69.355469 113.535156 71.234375 114.25 L 71.234375 118.449219 C 69.339844 117.90625 67.507812 117.640625 65.757812 117.640625 C 63.695312 117.640625 62.671875 118.183594 62.671875 119.261719 C 62.671875 119.65625 62.855469 120 63.214844 120.277344 C 63.578125 120.554688 64.234375 120.855469 65.191406 121.175781 L 66.992188 121.777344 C 69.050781 122.457031 70.511719 123.269531 71.378906 124.214844 C 72.246094 125.167969 72.679688 126.425781 72.679688 128.003906 C 72.679688 130.199219 71.898438 131.902344 70.324219 133.125 C 68.761719 134.34375 66.558594 134.957031 63.722656 134.957031 C 62.503906 134.957031 61.324219 134.855469 60.1875 134.644531 C 59.050781 134.433594 58.078125 134.148438 57.28125 133.789062 L 57.28125 129.539062 C 58.253906 129.796875 59.339844 130.011719 60.53125 130.183594 C 61.714844 130.351562 62.800781 130.433594 63.78125 130.433594 C 64.816406 130.433594 65.585938 130.300781 66.085938 130.03125 C 66.585938 129.761719 66.832031 129.339844 66.832031 128.753906 C 66.832031 128.4375 66.769531 128.175781 66.640625 127.976562 C 66.507812 127.78125 66.261719 127.585938 65.894531 127.394531 C 65.527344 127.203125 64.914062 126.960938 64.050781 126.660156 L 62.3125 126.058594 Z M 62.3125 126.050781 "/>
</svg>
