<?xml version="1.0" encoding="UTF-8" standalone="no"?>
<svg
   width="245.487"
   height="283.46457"
   viewBox="0 0 245.487 283.46457"
   version="1.1"
   id="svg47"
   sodipodi:docname="aws-certified-solutions-architect-associate.svg"
   inkscape:version="1.4.3 (0d15f75, 2025-12-25)"
   xmlns:inkscape="http://www.inkscape.org/namespaces/inkscape"
   xmlns:sodipodi="http://sodipodi.sourceforge.net/DTD/sodipodi-0.dtd"
   xmlns="http://www.w3.org/2000/svg"
   xmlns:svg="http://www.w3.org/2000/svg"
   xmlns:rdf="http://www.w3.org/1999/02/22-rdf-syntax-ns#"
   xmlns:cc="http://creativecommons.org/ns#"
   xmlns:dc="http://purl.org/dc/elements/1.1/">
  <title
     id="title47">AWS Certified Solutions Architect - Associate</title>
  <sodipodi:namedview
     id="namedview47"
     pagecolor="#ffffff"
     bordercolor="#000000"
     borderopacity="0.25"
     inkscape:showpageshadow="2"
     inkscape:pageopacity="0.0"
     inkscape:pagecheckerboard="0"
     inkscape:deskcolor="#d1d1d1"
     inkscape:zoom="1.0614794"
     inkscape:cx="96.563342"
     inkscape:cy="191.24252"
     inkscape:window-width="1512"
     inkscape:window-height="921"
     inkscape:window-x="127"
     inkscape:window-y="33"
     inkscape:window-maximized="0"
     inkscape:current-layer="svg47" />
  <defs
     id="defs6">
    <linearGradient
       id="linear-pattern-0"
       gradientUnits="userSpaceOnUse"
       x1="51.549999"
       y1="83.080002"
       x2="356.20001"
       y2="387.73999"
       gradientTransform="scale(0.602053)">
      <stop
         offset="0"
         stop-color="rgb(22.352941%, 22.745098%, 96.470588%)"
         stop-opacity="1"
         id="stop1" />
      <stop
         offset="0.28"
         stop-color="rgb(22.352941%, 22.745098%, 96.470588%)"
         stop-opacity="1"
         id="stop2" />
      <stop
         offset="0.5"
         stop-color="rgb(14.509805%, 17.647059%, 78.823531%)"
         stop-opacity="1"
         id="stop3" />
      <stop
         offset="0.72"
         stop-color="rgb(7.843138%, 13.333334%, 63.921571%)"
         stop-opacity="1"
         id="stop4" />
      <stop
         offset="0.89"
         stop-color="rgb(3.529412%, 10.980392%, 54.509807%)"
         stop-opacity="1"
         id="stop5" />
      <stop
         offset="1"
         stop-color="rgb(2.352941%, 10.196079%, 51.372552%)"
         stop-opacity="1"
         id="stop6" />
    </linearGradient>
  </defs>
  <path
     fill-rule="nonzero"
     fill="#3c92f9"
     fill-opacity="1"
     d="M 245.48828,70.867188 122.74219,0 0,70.867188 V 212.59766 l 122.74219,70.86718 122.74609,-70.86718 z m 0,0"
     id="path6" />
  <path
     fill-rule="nonzero"
     fill="url(#linear-pattern-0)"
     d="M 239.02734,74.59375 122.74219,7.460938 6.460938,74.59375 v 134.27734 l 116.281252,67.13282 116.28515,-67.13282 z m 0,0"
     id="path7"
     style="fill:url(#linear-pattern-0)" />
  <path
     fill-rule="nonzero"
     fill="#ffffff"
     fill-opacity="1"
     d="m 175.23437,203.73437 v -11.73828 h 8.1875 v 2.47266 h -4.99609 v 2.05469 h 4.0625 v 2.47265 h -4.0625 v 2.26953 h 5.03125 v 2.47657 h -8.21875 z m 0,0"
     id="path8" />
  <path
     fill-rule="nonzero"
     fill="#ffffff"
     fill-opacity="1"
     d="m 163.58984,203.73437 v -9.17968 h -3.40625 v -2.5586 h 10.08203 v 2.5586 h -3.40625 v 9.17968 z m 0,0"
     id="path9" />
  <path
     fill-rule="nonzero"
     fill="#ffffff"
     fill-opacity="1"
     d="m 153.87891,203.73437 -0.64454,-2.26953 h -3.59375 l -0.60937,2.26953 h -3.45313 l 4.13282,-11.73828 h 3.61328 l 4.13672,11.73828 z m -3.625,-4.57421 h 2.37109 l -1.20313,-4.35547 z m 0,0"
     id="path10" />
  <path
     fill-rule="nonzero"
     fill="#ffffff"
     fill-opacity="1"
     d="m 137.39453,203.73437 v -11.73828 h 3.26953 v 11.73828 z m 0,0"
     id="path11" />
  <path
     fill-rule="nonzero"
     fill="#ffffff"
     fill-opacity="1"
     d="m 132.03516,203.42578 c -0.92579,0.35156 -1.9961,0.52734 -3.21875,0.52734 -1.94532,0 -3.42188,-0.51171 -4.4336,-1.54296 -1.01172,-1.03125 -1.51562,-2.52735 -1.51562,-4.50782 0,-1.98047 0.53125,-3.45312 1.58203,-4.52343 1.05469,-1.07032 2.53125,-1.60547 4.41406,-1.60547 1.04297,0 2.04297,0.16015 3,0.49218 v 2.47266 c -0.95312,-0.20312 -1.76562,-0.30469 -2.44141,-0.30469 -1.03906,0 -1.82421,0.27735 -2.35156,0.82422 -0.53125,0.54688 -0.79687,1.35938 -0.79687,2.4336 v 0.37109 c 0,1.05469 0.26172,1.85547 0.77344,2.41016 0.51171,0.55468 1.27343,0.82812 2.28124,0.82812 0.76954,0 1.67188,-0.11328 2.70704,-0.33594 v 2.47657 z m 0,0"
     id="path12" />
  <path
     fill-rule="nonzero"
     fill="#ffffff"
     fill-opacity="1"
     d="m 111.54688,204.01953 c -1.22657,0 -2.29297,-0.26172 -3.1836,-0.77344 -0.89062,-0.51172 -1.57031,-1.23437 -2.03515,-2.16015 -0.46485,-0.92578 -0.69141,-2.01172 -0.69141,-3.25 0,-1.24219 0.24219,-2.375 0.72656,-3.29297 0.48828,-0.92188 1.17578,-1.62891 2.0586,-2.10938 0.88671,-0.48828 1.92968,-0.72656 3.125,-0.72656 1.19921,0 2.29687,0.25 3.1875,0.76172 0.89062,0.50781 1.57031,1.23047 2.03906,2.15234 0.46875,0.92578 0.70703,2.01563 0.70703,3.26953 0,1.25 -0.24219,2.375 -0.73047,3.30469 -0.48828,0.92578 -1.17578,1.62891 -2.06641,2.10547 -0.89062,0.48047 -1.9375,0.72266 -3.13671,0.72266 z m 0,-2.58984 c 0.86328,0 1.50781,-0.30078 1.9414,-0.89844 0.4336,-0.60156 0.64844,-1.48047 0.64844,-2.64063 0,-1.16406 -0.22266,-2.08593 -0.66016,-2.6875 -0.4414,-0.60156 -1.08593,-0.91015 -1.93359,-0.91015 -0.84766,0 -1.48828,0.30078 -1.92188,0.89844 -0.43359,0.60156 -0.64843,1.48046 -0.64843,2.64453 0,1.16015 0.21484,2.0625 0.64843,2.67968 0.4336,0.60547 1.07813,0.91407 1.92188,0.91407 z m 0,0"
     id="path13" />
  <path
     fill-rule="nonzero"
     fill="#ffffff"
     fill-opacity="1"
     d="m 94.859375,198.98437 c -1.070313,-0.375 -1.847656,-0.84375 -2.324219,-1.41015 -0.476562,-0.56641 -0.710937,-1.30469 -0.710937,-2.21875 0,-0.7461 0.207031,-1.39844 0.609375,-1.95313 0.410156,-0.55468 0.960937,-0.97265 1.667968,-1.26953 0.703126,-0.29297 1.515626,-0.4375 2.429688,-0.4375 1.1875,0 2.3125,0.20313 3.375,0.60547 v 2.37109 c -1.074219,-0.30468 -2.109375,-0.45703 -3.101562,-0.45703 -1.164063,0 -1.746094,0.3086 -1.746094,0.91797 0,0.22656 0.101562,0.41406 0.304687,0.57813 0.207031,0.15625 0.578125,0.32422 1.121094,0.5039 l 1.019531,0.33594 c 1.160156,0.38672 1.992188,0.84375 2.480469,1.37891 0.492185,0.53515 0.734375,1.2539 0.734375,2.14453 0,1.23828 -0.44531,2.21094 -1.332031,2.89453 -0.886719,0.6875 -2.132813,1.03516 -3.738281,1.03516 -0.6875,0 -1.355469,-0.0586 -2,-0.17969 -0.644532,-0.1211 -1.191407,-0.27735 -1.644532,-0.48047 v -2.41016 c 0.554688,0.14453 1.167969,0.27344 1.839844,0.36719 0.671875,0.0977 1.28125,0.14453 1.835938,0.14453 0.589843,0 1.023437,-0.0781 1.304687,-0.22656 0.285156,-0.15234 0.421875,-0.39063 0.421875,-0.72266 0,-0.17968 -0.03516,-0.32422 -0.109375,-0.4414 -0.07031,-0.11328 -0.214844,-0.22266 -0.421875,-0.32813 -0.210938,-0.10937 -0.550781,-0.25 -1.039062,-0.41797 l -0.984376,-0.33593 z m 0,0"
     id="path14" />
  <path
     fill-rule="nonzero"
     fill="#ffffff"
     fill-opacity="1"
     d="m 81.253906,198.98437 c -1.074218,-0.375 -1.847656,-0.84375 -2.324218,-1.41015 -0.476563,-0.56641 -0.710938,-1.30469 -0.710938,-2.21875 0,-0.7461 0.203125,-1.39844 0.609375,-1.95313 0.40625,-0.55468 0.960937,-0.97265 1.667969,-1.26953 0.703125,-0.29297 1.515625,-0.4375 2.429687,-0.4375 1.1875,0 2.3125,0.20313 3.371094,0.60547 v 2.37109 c -1.070313,-0.30468 -2.105469,-0.45703 -3.097656,-0.45703 -1.164063,0 -1.746094,0.3086 -1.746094,0.91797 0,0.22656 0.101563,0.41406 0.304687,0.57813 0.207032,0.15625 0.578126,0.32422 1.121094,0.5039 l 1.015625,0.33594 c 1.164063,0.38672 1.996094,0.84375 2.480469,1.37891 0.496094,0.53515 0.734375,1.2539 0.734375,2.14453 0,1.23828 -0.445313,2.21094 -1.328125,2.89453 -0.886719,0.6875 -2.132812,1.03516 -3.738281,1.03516 -0.695313,0 -1.355469,-0.0586 -2,-0.17969 -0.644531,-0.1211 -1.191407,-0.27735 -1.644531,-0.48047 v -2.41016 c 0.554687,0.14453 1.167968,0.27344 1.835937,0.36719 0.675781,0.0977 1.285156,0.14453 1.835937,0.14453 0.589844,0 1.023438,-0.0781 1.308594,-0.22656 0.28125,-0.15234 0.421875,-0.39063 0.421875,-0.72266 0,-0.17968 -0.03906,-0.32422 -0.109375,-0.4414 -0.07422,-0.11328 -0.214844,-0.22266 -0.421875,-0.32813 -0.210937,-0.10937 -0.554687,-0.25 -1.042969,-0.41797 l -0.980468,-0.33593 z m 0,0"
     id="path15" />
  <path
     fill-rule="nonzero"
     fill="#ffffff"
     fill-opacity="1"
     d="m 70.335938,203.73437 -0.640626,-2.26953 h -3.597656 l -0.605468,2.26953 h -3.457032 l 4.136719,-11.73828 h 3.613281 l 4.136719,11.73828 z m -3.621094,-4.57421 h 2.371094 l -1.203126,-4.35547 z m 0,0"
     id="path16" />
  <path
     fill="none"
     stroke-width="0.75"
     stroke-linecap="butt"
     stroke-linejoin="miter"
     stroke="#ffffff"
     stroke-opacity="1"
     stroke-miterlimit="10"
     d="M 52.234377,177.14063 H 193.25391"
     id="path17" />
  <path
     fill="none"
     stroke-width="0.75"
     stroke-linecap="butt"
     stroke-linejoin="miter"
     stroke="#ffffff"
     stroke-opacity="1"
     stroke-miterlimit="10"
     d="M 52.234377,98.789062 H 193.25391"
     id="path18" />
  <path
     fill-rule="nonzero"
     fill="#ffffff"
     fill-opacity="1"
     d="m 160.00781,85.363281 -0.14453,-1.339843 c -0.58984,0.492187 -1.24609,0.882812 -1.97656,1.171874 -0.72656,0.289063 -1.42578,0.433594 -2.09375,0.433594 -1.57813,0 -2.82813,-0.554687 -3.7461,-1.660156 -0.91406,-1.109375 -1.3789,-2.632812 -1.3789,-4.558594 0,-1.925781 0.46484,-3.546875 1.39062,-4.703125 0.92969,-1.152343 2.1875,-1.730469 3.78125,-1.730469 1.48438,0 2.82422,0.523438 4.02344,1.574219 v -6.890625 h 1.36719 v 17.710938 h -1.22266 z m -3.90234,-0.980469 c 1.19922,0 2.45312,-0.511718 3.75781,-1.527343 v -7.085938 c -0.66797,-0.542969 -1.3125,-0.941406 -1.92578,-1.1875 -0.61328,-0.246093 -1.26563,-0.371093 -1.95313,-0.371093 -1.27343,0 -2.24609,0.429687 -2.90625,1.292968 -0.66406,0.859375 -0.99218,2.136719 -0.99218,3.828125 0,3.367188 1.33984,5.050781 4.01953,5.050781 z m 0,0"
     id="path19" />
  <path
     fill-rule="nonzero"
     fill="#ffffff"
     fill-opacity="1"
     d="m 140.42969,79.574219 c 0.0156,1.671875 0.38281,2.914062 1.10156,3.707031 0.71484,0.800781 1.82422,1.199219 3.32812,1.199219 1.375,0 2.69141,-0.277344 3.94922,-0.835938 v 1.125 c -1.13281,0.636719 -2.48047,0.957031 -4.04687,0.957031 -1.89453,0 -3.32813,-0.535156 -4.28516,-1.613281 -0.95703,-1.078125 -1.4375,-2.679687 -1.4375,-4.800781 0,-2.007812 0.48047,-3.566406 1.44922,-4.675781 0.96875,-1.109375 2.32031,-1.660157 4.05859,-1.660157 1.44922,0 2.56641,0.414063 3.33985,1.246094 0.77734,0.828125 1.16406,2.015625 1.16406,3.5625 0,0.714844 -0.0469,1.320313 -0.14453,1.792969 h -8.47266 z m 3.99609,-5.382813 c -2.52344,0 -3.85156,1.425782 -3.99609,4.285156 h 7.27343 c 0.0156,-0.222656 0.0234,-0.488281 0.0234,-0.789062 0,-1.148438 -0.27734,-2.015625 -0.83594,-2.605469 -0.5625,-0.589843 -1.3789,-0.886719 -2.46484,-0.886719 z m 0,0"
     id="path20" />
  <path
     fill-rule="nonzero"
     fill="#ffffff"
     fill-opacity="1"
     d="M 127.4375,85.363281 V 74.523438 h -2.34766 v -0.957032 l 2.34766,-0.21875 v -2.75 c 0,-1.074218 0.27734,-1.886718 0.83594,-2.445312 0.55859,-0.558594 1.35547,-0.835938 2.39453,-0.835938 0.38672,0 0.77734,0.03516 1.1875,0.109375 0.41015,0.07031 0.7539,0.160157 1.04297,0.273438 v 1.128906 c -0.80078,-0.175781 -1.48047,-0.265625 -2.0586,-0.265625 -0.71875,0 -1.23437,0.148438 -1.55468,0.445312 -0.32032,0.292969 -0.47657,0.777344 -0.47657,1.445313 v 2.871094 h 7.80469 v 12.039062 h -1.36719 V 74.523438 h -6.4375 v 10.839843 z m 8.49219,-14.621093 c -0.31641,0 -0.57032,-0.09766 -0.75,-0.289063 C 135,70.257812 134.90234,70.007812 134.90234,69.6875 c 0,-0.320312 0.0898,-0.570312 0.27735,-0.765625 0.1875,-0.191406 0.43359,-0.289063 0.75,-0.289063 0.32031,0 0.57422,0.09766 0.7539,0.289063 0.17969,0.195313 0.27735,0.445313 0.27735,0.765625 0,0.320312 -0.0898,0.570312 -0.27735,0.765625 -0.17968,0.191406 -0.43359,0.289063 -0.7539,0.289063 z m 0,0"
     id="path21" />
  <path
     fill-rule="nonzero"
     fill="#ffffff"
     fill-opacity="1"
     d="m 122.69141,70.742188 c -0.31641,0 -0.57032,-0.09766 -0.75,-0.289063 -0.1836,-0.195313 -0.27735,-0.445313 -0.27735,-0.765625 0,-0.320312 0.0898,-0.570312 0.27735,-0.765625 0.18359,-0.191406 0.43359,-0.289063 0.75,-0.289063 0.32031,0 0.57422,0.09766 0.7539,0.289063 0.17969,0.195313 0.27735,0.445313 0.27735,0.765625 0,0.320312 -0.0898,0.570312 -0.27735,0.765625 -0.17968,0.191406 -0.43359,0.289063 -0.7539,0.289063 z M 122,85.363281 V 73.324219 h 1.36719 v 12.039062 z m 0,0"
     id="path22" />
  <path
     fill-rule="nonzero"
     fill="#ffffff"
     fill-opacity="1"
     d="m 120.13281,85.105469 c -0.66797,0.273437 -1.47265,0.410156 -2.41406,0.410156 -0.9375,0 -1.66016,-0.253906 -2.15625,-0.753906 -0.49219,-0.5 -0.73828,-1.234375 -0.73828,-2.191407 v -8.042968 h -2.25391 v -0.957032 l 2.30078,-0.214843 0.19141,-3.515625 h 1.12891 v 3.488281 h 3.82812 v 1.199219 h -3.82812 V 82.5 c 0,0.65625 0.13672,1.117188 0.42187,1.390625 0.27344,0.269531 0.7461,0.410156 1.40235,0.410156 0.65625,0 1.36718,-0.09766 2.1289,-0.289062 v 1.101562 z m 0,0"
     id="path23" />
  <path
     fill-rule="nonzero"
     fill="#ffffff"
     fill-opacity="1"
     d="M 106.0625,85.363281 V 73.324219 h 1.19922 l 0.14453,1.746093 c 0.60938,-0.667968 1.19922,-1.144531 1.78125,-1.425781 0.58594,-0.277343 1.24219,-0.421875 1.97656,-0.421875 0.26953,0 0.59375,0.02344 0.98047,0.07031 v 1.222656 c -0.41406,-0.03125 -0.78906,-0.04687 -1.125,-0.04687 -0.73437,0 -1.38672,0.136719 -1.95312,0.410156 -0.5625,0.269532 -1.11328,0.707032 -1.63672,1.316406 v 9.167969 z m 0,0"
     id="path24" />
  <path
     fill-rule="nonzero"
     fill="#ffffff"
     fill-opacity="1"
     d="m 95.195312,79.574219 c 0.01953,1.671875 0.386719,2.914062 1.101563,3.707031 0.71875,0.800781 1.824219,1.199219 3.332031,1.199219 1.371094,0 2.683594,-0.277344 3.949224,-0.835938 v 1.125 c -1.13282,0.636719 -2.48047,0.957031 -4.04688,0.957031 -1.894531,0 -3.328125,-0.535156 -4.285156,-1.613281 C 94.289062,83.035156 93.8125,81.433594 93.8125,79.3125 c 0,-2.007812 0.480469,-3.566406 1.445312,-4.675781 0.960938,-1.109375 2.316407,-1.660157 4.058594,-1.660157 1.449224,0 2.562504,0.414063 3.339844,1.246094 0.77734,0.828125 1.16016,2.015625 1.16016,3.5625 0,0.714844 -0.0469,1.320313 -0.14453,1.792969 h -8.468755 z m 4,-5.382813 c -2.523437,0 -3.855468,1.425782 -4,4.285156 h 7.281248 c 0.0156,-0.222656 0.0234,-0.488281 0.0234,-0.789062 0,-1.148438 -0.27734,-2.015625 -0.83594,-2.605469 -0.5625,-0.589843 -1.3789,-0.886719 -2.464841,-0.886719 z m 0,0"
     id="path25" />
  <path
     fill-rule="nonzero"
     fill="#ffffff"
     fill-opacity="1"
     d="m 92.898438,84.960938 c -0.988282,0.445312 -1.988282,0.667968 -2.992188,0.667968 -1.851562,0 -3.257812,-0.527344 -4.214844,-1.589844 C 84.734375,82.980469 84.25,81.421875 84.25,79.363281 c 0,-2.058593 0.488281,-3.601562 1.457031,-4.679687 0.976563,-1.078125 2.386719,-1.613282 4.238281,-1.613282 0.988282,0 1.921876,0.195313 2.800782,0.574219 v 1.125 c -0.878906,-0.289062 -1.789063,-0.433593 -2.726563,-0.433593 -1.519531,0 -2.613281,0.386718 -3.292969,1.160156 -0.679687,0.777344 -1.019531,2.019531 -1.019531,3.722656 v 0.289062 c 0,1.660157 0.34375,2.882813 1.03125,3.671876 0.6875,0.789062 1.761719,1.1875 3.234375,1.1875 0.878906,0 1.847656,-0.175782 2.917969,-0.523438 v 1.125 z m 0,0"
     id="path26" />
  <path
     fill-rule="nonzero"
     fill="#ff9900"
     fill-opacity="1"
     d="m 161.58594,48.445312 -9.74219,-5.628906 -9.74609,5.628906 v 11.25 l 9.74609,5.628907 9.74219,-5.628907 z m 0,0"
     id="path27" />
  <path
     fill-rule="nonzero"
     fill="#ffffff"
     fill-opacity="1"
     d="m 157.28516,51.035156 -1.10157,-1.101562 c -0.10156,-0.101563 -0.26562,-0.101563 -0.35937,0 l -6.52735,6.527344 -1.54296,-1.542969 c -0.10157,-0.101563 -0.26172,-0.101563 -0.35938,0 l -1.10156,1.101562 c -0.10156,0.105469 -0.10156,0.265625 0,0.363281 l 2.72656,2.726563 c 0.15625,0.15625 0.41406,0.15625 0.57813,0 l 7.69921,-7.710937 c 0.10547,-0.105469 0.10547,-0.265626 0,-0.363282 z m 0,0"
     id="path28" />
  <path
     fill-rule="nonzero"
     fill="#ffffff"
     fill-opacity="1"
     d="m 98.054688,58.175781 c 0,0.578125 0,1.164063 0.296874,1.726563 0.144532,0.441406 0.425782,1.019531 0.578126,1.445312 0.144531,0.152344 0.144531,0.296875 0.144531,0.441406 0,0.28125 -0.144531,0.4375 -0.441407,0.578126 l -1.300781,0.867187 H 96.90625 c -0.292969,0 -0.4375,-0.144531 -0.578125,-0.285156 -0.28125,-0.292969 -0.578125,-0.578125 -0.722656,-0.871094 -0.144531,-0.285156 -0.4375,-0.722656 -0.578125,-1.148437 -1.445313,1.726562 -3.46875,2.742187 -5.777344,2.742187 -1.445312,0.144531 -2.890625,-0.4375 -3.898438,-1.445313 -1.015624,-1.015624 -1.445312,-2.316406 -1.445312,-3.761718 0,-1.589844 0.578125,-3.035156 1.730469,-4.039063 1.300781,-1.019531 3.035156,-1.589843 4.773437,-1.589843 0.722656,0 1.445313,0 2.023438,0.144531 0.722656,0.144531 1.445312,0.28125 2.167968,0.425781 v -1.441406 c 0.144532,-1.152344 -0.152343,-2.3125 -0.875,-3.175782 -0.867187,-0.722656 -2.015624,-1.003906 -3.171874,-0.867187 -0.722657,0 -1.445313,0.144531 -2.167969,0.285156 -0.722657,0.144531 -1.445313,0.4375 -2.167969,0.722657 -0.28125,0.144531 -0.4375,0.144531 -0.722656,0.292968 h -0.28125 c -0.296875,0 -0.441406,-0.148437 -0.441406,-0.578125 v -1.015625 c 0,-0.285156 0,-0.429687 0.144531,-0.722656 0.144531,-0.144531 0.296875,-0.285156 0.578125,-0.429688 0.722656,-0.4375 1.589844,-0.71875 2.453125,-0.863281 1.015625,-0.296875 2.023437,-0.441406 3.039062,-0.441406 1.871094,-0.144531 3.613281,0.441406 5.058594,1.589844 1.148437,1.300781 1.726563,3.035156 1.589844,4.773437 l 0.425781,6.648438 z m -7.945313,2.890625 c 0.722656,0 1.300781,-0.144531 2.023437,-0.28125 0.722657,-0.296875 1.300782,-0.722656 1.882813,-1.300781 0.285156,-0.296875 0.578125,-0.722656 0.722656,-1.300781 0.144531,-0.578125 0.144531,-1.164063 0.144531,-1.730469 V 55.582031 C 94.304688,55.4375 93.722656,55.296875 93.15625,55.296875 92.578125,55.152344 91.992188,55.152344 91.269531,55.152344 90.265625,55.007812 89.25,55.296875 88.382812,55.875 c -1.164062,1.152344 -1.300781,3.035156 -0.285156,4.335938 0.574219,0.722656 1.296875,1.003906 2.019532,0.867187 z m 15.750005,2.167969 c -0.28516,0 -0.57813,0 -0.72266,-0.144531 -0.14453,-0.144532 -0.28125,-0.441406 -0.42578,-0.722656 l -4.63281,-15.171876 c -0.144536,-0.296874 -0.144536,-0.578124 -0.144536,-0.722656 0,-0.296875 0.144536,-0.441406 0.285156,-0.441406 h 2.02344 c 0.29297,0 0.57812,0 0.72265,0.144531 0.14454,0.152344 0.29297,0.441407 0.4375,0.722657 l 3.31641,12.863281 3.04297,-12.863281 c 0,-0.28125 0.14453,-0.570313 0.42578,-0.722657 0.29688,-0.144531 0.57813,-0.144531 0.72266,-0.144531 H 112.5 c 0.29297,0 0.57813,0 0.72266,0.144531 0.14843,0.152344 0.29297,0.441407 0.4375,0.722657 l 3.03515,13.15625 3.32813,-13.15625 c 0,-0.28125 0.14453,-0.570313 0.42969,-0.722657 0.29296,-0.144531 0.4375,-0.144531 0.72265,-0.144531 h 1.88281 c 0.28516,0 0.44141,0.144531 0.44141,0.296875 v 0.425781 c 0,0.144532 -0.15234,0.296875 -0.15234,0.441406 l -4.61719,15.027344 c 0,0.28125 -0.14453,0.570313 -0.4375,0.722656 -0.14453,0.28125 -0.42969,0.28125 -0.72266,0.28125 h -1.73047 c -0.28125,0 -0.57812,0 -0.72265,-0.144531 -0.14453,-0.292969 -0.28125,-0.4375 -0.4375,-0.722656 l -3.03516,-12.574219 -3.03515,12.574219 c 0,0.285156 -0.14454,0.578125 -0.4375,0.722656 -0.14454,0.144531 -0.42969,0.144531 -0.57422,0.144531 h -1.73828 z M 131,63.816406 c -1.00391,0 -2.02344,-0.144531 -3.03516,-0.292968 -0.72265,-0.144532 -1.58984,-0.429688 -2.30859,-0.722657 -0.44141,-0.144531 -0.72266,-0.574219 -0.72266,-1.152343 v -1.015626 c 0,-0.425781 0.14454,-0.570312 0.42579,-0.570312 h 0.29687 c 0.14453,0 0.28125,0.144531 0.42578,0.144531 0.72266,0.28125 1.44531,0.578125 2.16797,0.722657 0.72266,0.140624 1.58984,0.28125 2.3125,0.28125 1.01562,0 2.02344,-0.144532 2.88672,-0.722657 0.57812,-0.425781 1.01953,-1.148437 1.01953,-1.871093 0,-0.578126 -0.14453,-1.019532 -0.57813,-1.300782 -0.57812,-0.441406 -1.30078,-0.867187 -2.02343,-1.019531 l -2.89063,-0.867187 c -1.14843,-0.28125 -2.3125,-1.003907 -3.17187,-2.023438 -0.57813,-0.863281 -1.01563,-1.871094 -1.01563,-2.886719 0,-0.722656 0.14844,-1.445312 0.57813,-2.167969 0.29297,-0.574218 0.86719,-1.152343 1.4414,-1.589843 0.57813,-0.425781 1.30078,-0.867188 2.02344,-1.003907 0.86719,-0.296874 1.58984,-0.296874 2.45313,-0.296874 0.4375,0 0.87109,0 1.30078,0.152343 0.4375,0 0.86328,0.144531 1.29687,0.28125 0.44141,0.144531 0.72266,0.144531 1.16406,0.28125 0.28125,0.152344 0.57032,0.152344 0.86719,0.296875 0.28125,0.144532 0.42578,0.28125 0.57813,0.425782 0.14453,0.152343 0.14453,0.441406 0.14453,0.722656 v 0.875 c 0,0.425781 -0.14453,0.570312 -0.44141,0.570312 -0.29297,0 -0.57812,-0.144531 -0.72265,-0.28125 -1.14844,-0.578125 -2.44922,-0.722656 -3.75391,-0.722656 -0.86719,0 -1.73047,0.144531 -2.60938,0.578125 -0.57031,0.28125 -1.0039,1.003906 -0.86718,1.726563 0,0.578124 0.14453,1.019531 0.57812,1.445312 0.57813,0.578125 1.30078,0.867188 2.16797,1.019531 l 2.74609,0.863281 c 1.14844,0.285157 2.16797,1.007813 3.03516,1.875 0.57813,0.722657 0.86719,1.738282 0.86719,2.746094 0,0.722656 -0.14453,1.585938 -0.57813,2.308594 -0.28515,0.722656 -0.86718,1.300781 -1.44531,1.742188 -0.57422,0.425781 -1.44531,0.867187 -2.16797,1.148437 -0.57031,0.152344 -1.58984,0.296875 -2.44922,0.296875 z m 0,0"
     id="path29" />
  <path
     fill-rule="nonzero"
     fill="#ffffff"
     fill-opacity="1"
     d="m 186.32812,162.94531 c -1.17968,0.44141 -2.52734,0.65625 -4.04296,0.65625 -1.89844,-0.0195 -3.29297,-0.46484 -4.19922,-1.33203 -0.89453,-0.86328 -1.34766,-2.23828 -1.34766,-4.11719 v -6.41015 h -2.125 v -3.17188 l 2.27734,-0.54297 0.89454,-4.13672 h 4.58203 v 4.01563 h 3.89453 v 3.83594 h -3.89453 v 6.05078 c 0,0.60156 0.15234,1.01562 0.45312,1.25781 0.30078,0.24219 0.80469,0.35938 1.52735,0.35938 0.5625,0 1.21875,-0.0586 1.97656,-0.17969 v 3.71484 z m 0,0"
     id="path30" />
  <path
     fill-rule="nonzero"
     fill="#ffffff"
     fill-opacity="1"
     d="m 173.57031,162.65234 c -0.61719,0.31641 -1.33594,0.57032 -2.15234,0.7461 -0.82031,0.17968 -1.66797,0.26953 -2.54688,0.26953 -2.57812,0 -4.53906,-0.67578 -5.89062,-2.02344 -1.34766,-1.34766 -2.02344,-3.31641 -2.02344,-5.91797 0,-2.60156 0.71875,-4.57422 2.14453,-6.0039 1.42578,-1.42579 3.4336,-2.14063 6.00391,-2.14063 1.71484,0 3.18359,0.33203 4.39844,0.98828 v 3.5625 c -1.15235,-0.35937 -2.24219,-0.54297 -3.26172,-0.54297 -1.23828,0 -2.14844,0.3086 -2.72657,0.92969 -0.57812,0.61719 -0.86718,1.58984 -0.86718,2.90625 v 0.42188 c 0,1.30078 0.28906,2.25781 0.86718,2.8789 0.57813,0.61719 1.45704,0.92578 2.63672,0.92578 1.07813,0 2.21485,-0.1914 3.41407,-0.57031 v 3.5625 z m 0,0"
     id="path31" />
  <path
     fill-rule="nonzero"
     fill="#ffffff"
     fill-opacity="1"
     d="m 150.08984,157.04687 c 0.10547,0.9961 0.48438,1.71875 1.15625,2.17188 0.67578,0.45312 1.67578,0.67578 3.01172,0.67578 1.33594,0 2.83594,-0.26172 4.67188,-0.77734 v 3.4414 c -0.75782,0.38282 -1.66797,0.6836 -2.72657,0.89844 -1.05859,0.21875 -2.10937,0.33203 -3.14453,0.33203 -5.39453,0 -8.08593,-2.71484 -8.08593,-8.14453 0,-2.55859 0.6875,-4.55859 2.0664,-6.00391 1.37891,-1.44531 3.29297,-2.17187 5.75,-2.17187 2.07813,0 3.6836,0.55078 4.82422,1.66016 1.13672,1.10546 1.70703,2.6914 1.70703,4.74218 0,0.46094 -0.0352,1.00782 -0.10156,1.63282 -0.0664,0.625 -0.14453,1.14453 -0.22266,1.54296 z m 2.54297,-5.83984 c -0.71875,0 -1.30078,0.22266 -1.73437,0.67188 -0.4375,0.45312 -0.71094,1.09765 -0.8086,1.93359 h 4.49219 v -0.35938 c 0,-1.5 -0.64844,-2.24609 -1.94531,-2.24609 z m 0,0"
     id="path32" />
  <path
     fill-rule="nonzero"
     fill="#ffffff"
     fill-opacity="1"
     d="m 143.89062,162.94531 c -1.17968,0.44141 -2.52734,0.65625 -4.04687,0.65625 -1.89453,-0.0195 -3.29297,-0.46484 -4.1875,-1.33203 -0.89844,-0.86328 -1.35156,-2.23828 -1.35156,-4.11719 v -6.41015 h -2.125 v -3.17188 l 2.27734,-0.54297 0.89844,-4.13672 h 4.57812 v 4.01563 h 3.89844 v 3.83594 h -3.89844 v 6.05078 c 0,0.60156 0.15235,1.01562 0.45313,1.25781 0.30078,0.24219 0.80859,0.35938 1.52734,0.35938 0.5625,0 1.21875,-0.0586 1.97656,-0.17969 z m 0,0"
     id="path33" />
  <path
     fill-rule="nonzero"
     fill="#ffffff"
     fill-opacity="1"
     d="m 127.92578,145.96094 c -0.95703,0 -1.72265,-0.25782 -2.29687,-0.77735 -0.57032,-0.51562 -0.85157,-1.20703 -0.85157,-2.0625 0,-0.85547 0.28125,-1.54687 0.85157,-2.0664 0.57422,-0.51563 1.33203,-0.77735 2.29687,-0.77735 0.96094,0 1.71875,0.26172 2.29297,0.77735 0.57031,0.51953 0.85547,1.21093 0.85547,2.0664 0,0.85547 -0.28516,1.54688 -0.85547,2.0625 -0.57422,0.51953 -1.33203,0.77735 -2.29297,0.77735 z m -2.82031,17.375 v -15.42188 h 5.6289 v 15.42188 z m 0,0"
     id="path34" />
  <path
     fill-rule="nonzero"
     fill="#ffffff"
     fill-opacity="1"
     d="m 116.30469,163.33594 v -10.125 c 0,-0.60157 -0.11328,-1.03516 -0.34375,-1.32032 -0.22656,-0.27734 -0.61328,-0.42187 -1.15625,-0.42187 -0.73828,0 -1.51563,0.25391 -2.33594,0.75 v 11.11328 h -5.62891 v -22.16797 h 5.62891 v 7.9961 c 0.86328,-0.60547 1.6875,-1.03516 2.48828,-1.30079 0.80078,-0.27343 1.64844,-0.40625 2.54688,-0.40625 1.4375,0 2.53515,0.39454 3.29297,1.16797 0.75781,0.77735 1.13671,1.88672 1.13671,3.32422 v 11.38672 h -5.6289 z m 0,0"
     id="path35" />
  <path
     fill-rule="nonzero"
     fill="#ffffff"
     fill-opacity="1"
     d="m 104.59375,162.65234 c -0.62109,0.31641 -1.33594,0.57032 -2.15625,0.7461 -0.81641,0.17968 -1.66406,0.26953 -2.542969,0.26953 -2.578125,0 -4.542969,-0.67578 -5.890625,-2.02344 -1.347656,-1.34766 -2.023437,-3.31641 -2.023437,-5.91797 0,-2.60156 0.710937,-4.57422 2.144531,-6.0039 1.425781,-1.42579 3.433594,-2.14063 6.00781,-2.14063 1.71485,0 3.1836,0.33203 4.40235,0.98828 v 3.5625 c -1.15625,-0.35937 -2.2461,-0.54297 -3.26563,-0.54297 -1.23828,0 -2.148436,0.3086 -2.726561,0.92969 -0.578125,0.61719 -0.867188,1.58984 -0.867188,2.90625 v 0.42188 c 0,1.30078 0.289063,2.25781 0.867188,2.8789 0.578125,0.61719 1.457031,0.92578 2.636721,0.92578 1.07812,0 2.21875,-0.1914 3.41406,-0.57031 z m 0,0"
     id="path36" />
  <path
     fill-rule="nonzero"
     fill="#ffffff"
     fill-opacity="1"
     d="m 91.414062,152.82422 c -0.636718,-0.10156 -1.296874,-0.14844 -1.972656,-0.14844 -1.257812,0 -2.398437,0.16797 -3.414062,0.51172 v 10.15625 h -5.628906 v -15.42578 h 4.582031 l 0.6875,2.33594 c 1.414062,-1.67969 2.9375,-2.51563 4.550781,-2.51563 0.421875,0 0.816406,0.0312 1.195312,0.0898 v 5.00391 z m 0,0"
     id="path37" />
  <path
     fill-rule="nonzero"
     fill="#ffffff"
     fill-opacity="1"
     d="m 72.691406,163.33594 -1.136718,-4.01563 H 65.203125 L 64.125,163.33594 h -6.109375 l 7.308594,-20.75782 h 6.378906 l 7.308594,20.75782 z M 66.285156,155.25 h 4.191406 l -2.125,-7.69922 z m 0,0"
     id="path38" />
  <path
     fill-rule="nonzero"
     fill="#ffffff"
     fill-opacity="1"
     d="m 183.37891,130.09766 c 0,-0.27735 -0.0898,-0.49219 -0.26954,-0.64454 -0.17968,-0.14843 -0.55078,-0.33593 -1.10937,-0.55468 l -2.21484,-0.86719 c -1.25782,-0.5 -2.16797,-1.11328 -2.72657,-1.83984 -0.5625,-0.73047 -0.83593,-1.67969 -0.83593,-2.85938 0,-0.97656 0.27343,-1.83203 0.82421,-2.54687 0.54688,-0.71875 1.30469,-1.27344 2.27344,-1.65235 0.96875,-0.3789 2.08985,-0.57031 3.3711,-0.57031 1.83593,0 3.51562,0.39063 5.03515,1.16797 v 3.41406 c -1.63672,-0.5 -3.15625,-0.74609 -4.55078,-0.74609 -0.67969,0 -1.15625,0.0586 -1.44141,0.17969 -0.27734,0.12109 -0.42187,0.33593 -0.42187,0.65625 0,0.24218 0.10547,0.4375 0.31641,0.60156 0.21093,0.16406 0.5625,0.33594 1.0625,0.54297 l 2.21875,0.86718 c 1.3789,0.53907 2.32421,1.13672 2.84765,1.80079 0.51563,0.65625 0.77344,1.56249 0.77344,2.72656 0,1.57812 -0.58203,2.82812 -1.75,3.75781 -1.16797,0.92578 -2.75,1.39062 -4.75,1.39062 -2.32031,0 -4.23438,-0.4414 -5.75,-1.32031 v -3.47265 c 1.21484,0.33593 2.23437,0.57031 3.03906,0.70312 0.8086,0.13281 1.6211,0.19141 2.4375,0.19141 0.5625,0 0.97266,-0.0703 1.23047,-0.22266 0.25781,-0.14844 0.39063,-0.38281 0.39063,-0.70312 z m 0,0"
     id="path39" />
  <path
     fill-rule="nonzero"
     fill="#ffffff"
     fill-opacity="1"
     d="m 168.4375,134.4375 v -10.125 c 0,-0.60156 -0.11719,-1.03516 -0.34375,-1.32031 -0.23047,-0.27735 -0.61328,-0.42188 -1.15625,-0.42188 -0.74219,0 -1.51563,0.25391 -2.33594,0.75 v 11.11328 h -5.6289 v -15.42578 h 4.58203 l 0.48047,1.5586 c 0.9375,-0.69922 1.85546,-1.21094 2.75781,-1.52735 0.89844,-0.32031 1.84765,-0.48437 2.84765,-0.48437 1.4375,0 2.53516,0.39453 3.29297,1.16797 0.75782,0.77734 1.13672,1.88672 1.13672,3.32422 v 11.38671 h -5.6289 z m 0,0"
     id="path40" />
  <path
     fill-rule="nonzero"
     fill="#ffffff"
     fill-opacity="1"
     d="m 148.51562,134.89062 c -2.5,0 -4.45703,-0.71875 -5.87109,-2.15625 -1.42187,-1.4375 -2.125,-3.44531 -2.125,-6.01953 0,-2.57812 0.71094,-4.55078 2.125,-5.99218 1.41406,-1.4375 3.37109,-2.15625 5.87109,-2.15625 2.4961,0 4.45313,0.71875 5.86719,2.15625 1.41797,1.4414 2.125,3.4375 2.125,5.99218 0,2.55078 -0.70703,4.58203 -2.125,6.01953 -1.41797,1.4375 -3.375,2.15625 -5.86719,2.15625 z m 0,-3.95703 c 1.53516,0 2.30469,-1.40625 2.30469,-4.21875 0,-2.8125 -0.76953,-4.1914 -2.30469,-4.1914 -1.53515,0 -2.30859,1.39844 -2.30859,4.1914 0,2.79297 0.77344,4.21875 2.30859,4.21875 z m 0,0"
     id="path41" />
  <path
     fill-rule="nonzero"
     fill="#ffffff"
     fill-opacity="1"
     d="m 135.24609,117.0625 c -0.95703,0 -1.72265,-0.25781 -2.29297,-0.77734 -0.57421,-0.51563 -0.85546,-1.20703 -0.85546,-2.0625 0,-0.85547 0.28125,-1.54688 0.85546,-2.06641 0.57032,-0.51953 1.32813,-0.77734 2.29297,-0.77734 0.96094,0 1.72266,0.25781 2.29297,0.77734 0.57031,0.51953 0.85547,1.21094 0.85547,2.06641 0,0.85547 -0.28516,1.54687 -0.85547,2.0625 -0.57031,0.51953 -1.33203,0.77734 -2.29297,0.77734 z m -2.8125,17.375 v -15.42187 h 5.62891 v 15.42187 z m 0,0"
     id="path42" />
  <path
     fill-rule="nonzero"
     fill="#ffffff"
     fill-opacity="1"
     d="m 130.57422,134.04687 c -1.17969,0.44141 -2.53125,0.65625 -4.04688,0.65625 -1.89453,-0.0195 -3.29296,-0.46484 -4.1914,-1.33203 -0.89453,-0.86718 -1.34766,-2.23828 -1.34766,-4.11718 v -6.41016 h -2.125 v -3.17187 l 2.27735,-0.54297 0.89453,-4.13672 h 4.58203 v 4.01562 h 3.89453 v 3.83594 h -3.89453 v 6.05078 c 0,0.60156 0.15234,1.01563 0.45312,1.25781 0.30078,0.24219 0.80469,0.35938 1.52735,0.35938 0.5625,0 1.21875,-0.0586 1.97656,-0.17969 z m 0,0"
     id="path43" />
  <path
     fill-rule="nonzero"
     fill="#ffffff"
     fill-opacity="1"
     d="m 112.84375,134.4375 -0.47656,-1.52734 c -1.75781,1.3164 -3.52344,1.97265 -5.30469,1.97265 -1.4375,0 -2.55859,-0.41406 -3.35156,-1.23828 -0.79688,-0.82422 -1.19922,-1.96484 -1.19922,-3.40234 v -11.23438 h 5.62891 v 10.15625 c 0,0.60156 0.11328,1.03516 0.34375,1.30078 0.22656,0.26953 0.60156,0.40235 1.125,0.40235 0.71875,0 1.45312,-0.21094 2.1875,-0.625 v -11.23438 h 5.6289 v 15.42578 h -4.58203 z m 0,0"
     id="path44" />
  <path
     fill-rule="nonzero"
     fill="#ffffff"
     fill-opacity="1"
     d="m 100.77344,134.25781 c -0.976565,0.42188 -2.078128,0.625 -3.296878,0.625 -1.59375,0 -2.785156,-0.42578 -3.5625,-1.28906 -0.777343,-0.85938 -1.167968,-2.15234 -1.167968,-3.89453 V 112.26563 H 98.375 V 129.25 c 0,0.51562 0.08984,0.89453 0.269531,1.13672 0.183594,0.24219 0.484375,0.35937 0.898438,0.35937 0.335937,0 0.746091,-0.0391 1.230471,-0.11718 z m 0,0"
     id="path45" />
  <path
     fill-rule="nonzero"
     fill="#ffffff"
     fill-opacity="1"
     d="m 82.292969,134.89062 c -2.496094,0 -4.453125,-0.71875 -5.867188,-2.15625 -1.421875,-1.4375 -2.125,-3.44531 -2.125,-6.01953 0,-2.57812 0.710938,-4.55078 2.125,-5.99218 1.414063,-1.4375 3.371094,-2.15625 5.867188,-2.15625 2.5,0 4.457031,0.71875 5.871093,2.15625 1.414063,1.4414 2.125,3.4375 2.125,5.99218 0,2.55078 -0.710937,4.58203 -2.125,6.01953 -1.414062,1.4375 -3.378906,2.15625 -5.871093,2.15625 z m 0,-3.95703 c 1.535156,0 2.308593,-1.40625 2.308593,-4.21875 0,-2.8125 -0.773437,-4.1914 -2.308593,-4.1914 -1.535157,0 -2.304688,1.39844 -2.304688,4.1914 0,2.79297 0.769531,4.21875 2.304688,4.21875 z m 0,0"
     id="path46" />
  <path
     fill-rule="nonzero"
     fill="#ffffff"
     fill-opacity="1"
     d="m 62.3125,126.05078 c -1.898438,-0.65625 -3.261719,-1.48437 -4.105469,-2.48437 -0.835937,-1 -1.257812,-2.3086 -1.257812,-3.92578 0,-1.32032 0.359375,-2.46875 1.078125,-3.44532 0.714844,-0.97265 1.703125,-1.72656 2.949218,-2.24609 1.246094,-0.51563 2.679688,-0.77344 4.296876,-0.77344 2.097656,0 4.082031,0.35938 5.960937,1.07422 v 4.19922 c -1.894531,-0.54297 -3.726563,-0.80859 -5.476563,-0.80859 -2.0625,0 -3.085937,0.54296 -3.085937,1.62109 0,0.39453 0.183594,0.73828 0.542969,1.01562 0.363281,0.27735 1.019531,0.57813 1.976562,0.89844 l 1.800782,0.60156 c 2.058593,0.67969 3.519531,1.49219 4.386718,2.4375 0.867188,0.95313 1.300782,2.21094 1.300782,3.78907 0,2.19531 -0.78125,3.89843 -2.355469,5.12109 -1.5625,1.21875 -3.765625,1.83203 -6.601563,1.83203 -1.21875,0 -2.398437,-0.10156 -3.535156,-0.3125 -1.136719,-0.21094 -2.109375,-0.49609 -2.90625,-0.85547 v -4.25 c 0.972656,0.25781 2.058594,0.47266 3.25,0.64453 1.183594,0.16797 2.269531,0.25 3.25,0.25 1.035156,0 1.804688,-0.13281 2.304688,-0.40234 0.5,-0.26953 0.746093,-0.69141 0.746093,-1.27734 0,-0.31641 -0.0625,-0.57813 -0.191406,-0.77735 -0.132813,-0.19531 -0.378906,-0.39062 -0.746094,-0.58203 -0.367187,-0.1914 -0.980469,-0.43359 -1.84375,-0.73437 L 62.3125,126.05859 Z m 0,0"
     id="path47" />
  <metadata
     id="metadata47">
    <rdf:RDF>
      <cc:Work
         rdf:about="">
        <dc:title>AWS Certified Solutions Architect - Associate</dc:title>
      </cc:Work>
    </rdf:RDF>
  </metadata>
</svg>
