<?xml version="1.0" encoding="UTF-8" standalone="no"?>
<svg
   id="Layer_1"
   data-name="Layer 1"
   viewBox="0 0 245.487 283.46899"
   version="1.1"
   width="245.487"
   height="283.46899"
   xmlns:xlink="http://www.w3.org/1999/xlink"
   xmlns="http://www.w3.org/2000/svg"
   xmlns:svg="http://www.w3.org/2000/svg"
   xmlns:rdf="http://www.w3.org/1999/02/22-rdf-syntax-ns#"
   xmlns:cc="http://creativecommons.org/ns#"
   xmlns:dc="http://purl.org/dc/elements/1.1/">
  <title
     id="title1">AWS Certified Solutions Architect - Professional</title>
  <defs
     id="defs5">
    <linearGradient
       id="linearGradient155">
      <stop
         style="stop-color:#068297;stop-opacity:1;"
         offset="0"
         id="stop155" />
      <stop
         style="stop-color:#015b7b;stop-opacity:1;"
         offset="1"
         id="stop156" />
    </linearGradient>
    <style
       id="style1">
      .cls-1 {
        fill: url(#linear-gradient);
      }

      .cls-2 {
        fill: #f90;
      }

      .cls-3 {
        fill: #fff;
      }

      .cls-4 {
        fill: none;
        stroke: #fff;
        stroke-miterlimit: 10;
        stroke-width: 1.5px;
      }

      .cls-5 {
        fill: #3c92f9;
      }
    </style>
    <linearGradient
       x1="0"
       y1="0"
       x2="1"
       y2="0"
       gradientUnits="userSpaceOnUse"
       gradientTransform="matrix(-25.801926,-31.994391,31.994391,-25.801926,383.47825,-35.082728)"
       spreadMethod="pad"
       id="linearGradient206">
      <stop
         style="stop-opacity:1;stop-color:#005376 icc-color(sRGB IEC61966-2.1, 0, 0.32548523, 0.46273804);"
         offset="0"
         id="stop205" />
      <stop
         style="stop-opacity:1;stop-color:#058395 icc-color(sRGB IEC61966-2.1, 0.01960754, 0.51371765, 0.58430481);"
         offset="1"
         id="stop206" />
    </linearGradient>
    <linearGradient
       xlink:href="#linearGradient206"
       id="linearGradient378"
       gradientUnits="userSpaceOnUse"
       gradientTransform="matrix(-143.95419,-178.50321,178.50322,-143.95419,276.97066,330.07665)"
       x1="0"
       y1="0"
       x2="1"
       y2="0"
       spreadMethod="pad" />
    <linearGradient
       xlink:href="#linearGradient155"
       id="linearGradient156"
       x1="147.46852"
       y1="292.52667"
       x2="379.75497"
       y2="292.52667"
       gradientUnits="userSpaceOnUse"
       gradientTransform="matrix(1.3333222,0,0,1.3333222,-187.81869,-201.05141)" />
  </defs>
  <metadata
     id="metadata1">
    <rdf:RDF>
      <cc:Work
         rdf:about="">
        <dc:title>AWS Certified Solutions Architect - Professional</dc:title>
      </cc:Work>
    </rdf:RDF>
  </metadata>
  <g
     id="layer1">
    <g
       id="g101"
       transform="matrix(0.75000629,0,0,0.75000629,-5.0032986e-7,-0.0011549)">
      <g
         id="layer12"
         style="display:inline"
         transform="translate(-0.00407584,-0.00159293)">
        <path
           style="display:inline;fill:#1cc9f7;fill-opacity:1;fill-rule:nonzero;stroke:none;stroke-width:0.179237"
           d="M -21.999885,38.105069 -44,25.403849 V 8.9293491e-6 L -21.999885,-12.701911 -8.2028172e-4,-3.411401e-4 V 25.404199 Z"
           transform="matrix(7.4389376,0,0,-7.4389377,327.31733,283.46176)"
           id="path254" />
        <path
           style="display:none;fill:url(#linearGradient378);stroke:none;stroke-width:1.33333"
           d="M 8.7990475,100.15992 V 278.97709 L 163.65536,368.3857 318.51173,278.97709 V 100.15992 L 163.65536,10.75877 Z"
           id="path255" />
        <path
           style="display:inline;fill:url(#linearGradient156);fill-opacity:1;stroke:none;stroke-width:1.33334"
           d="M 8.804357,99.568553 V 278.38573 L 163.66068,367.79434 318.51705,278.38573 V 99.568553 L 163.66068,10.167413 Z"
           id="path155" />
        <g
           id="g381"
           style="display:inline;opacity:1;stroke-width:0.171051"
           transform="matrix(5.8462176,0,0,5.8462176,-1955.7505,536.95103)">
          <path
             id="path359"
             d="m 380.66196,-45.382142 v -2.688 h 0.74801 v 2.082667 h 1.12135 v 0.605333 z"
             style="fill:#ffffff;fill-opacity:1;fill-rule:nonzero;stroke:none;stroke-width:0.228067" />
          <path
             id="path358"
             d="m 377.74944,-46.429343 h 0.54268 l -0.27477,-0.996 z m 0.83068,1.048003 -0.14815,-0.520003 h -0.82268 l -0.13867,0.520003 h -0.792 l 0.94667,-2.688 h 0.82667 l 0.94533,2.688 z"
             style="display:inline;fill:#ffffff;fill-opacity:1;fill-rule:nonzero;stroke:none;stroke-width:0.228067" />
          <path
             id="path357"
             d="m 373.69664,-47.065041 v 1.682665 h -0.644 v -2.686666 h 0.776 l 0.94268,1.698667 v -1.698667 h 0.64399 v 2.686666 h -0.77599 z"
             style="display:inline;fill:#ffffff;fill-opacity:1;fill-rule:nonzero;stroke:none;stroke-width:0.228067" />
          <path
             id="path356"
             d="m 370.22917,-45.909442 c 0.19601,0 0.34402,-0.06799 0.444,-0.205342 0.10001,-0.137348 0.14933,-0.338684 0.14933,-0.605337 0,-0.272013 -0.0507,-0.475997 -0.15201,-0.614664 -0.10001,-0.138671 -0.24801,-0.207988 -0.44133,-0.207988 -0.19468,0 -0.34001,0.06932 -0.44,0.206665 -0.1,0.135987 -0.14933,0.338683 -0.14933,0.603998 0,0.26933 0.0493,0.473337 0.14933,0.613335 0.10001,0.139993 0.24533,0.209348 0.44,0.209348 m 0,0.593333 c -0.28131,0 -0.524,-0.05866 -0.72933,-0.176013 -0.20398,-0.117354 -0.35868,-0.282671 -0.46534,-0.494668 -0.10534,-0.211994 -0.15867,-0.459999 -0.15867,-0.745335 0,-0.292006 0.0547,-0.542664 0.16664,-0.753331 0.11067,-0.211994 0.26801,-0.372019 0.47067,-0.483999 0.20399,-0.110665 0.44267,-0.165317 0.716,-0.165317 0.28131,0 0.52533,0.05734 0.72933,0.17333 0.20399,0.117316 0.36,0.281348 0.46667,0.493334 0.10802,0.211994 0.16135,0.461333 0.16135,0.747999 0,0.292006 -0.056,0.544002 -0.16664,0.756 -0.11066,0.211993 -0.26933,0.373341 -0.47334,0.484002 -0.20398,0.109342 -0.444,0.163994 -0.71733,0.163994"
             style="display:inline;fill:#ffffff;fill-opacity:1;fill-rule:nonzero;stroke:none;stroke-width:0.228067" />
          <path
             id="path355"
             d="m 366.64529,-48.069662 h 0.74934 v 2.688 h -0.74934 z"
             style="display:inline;fill:#ffffff;fill-opacity:1;fill-rule:nonzero;stroke:none;stroke-width:0.228067" />
          <path
             id="path354"
             d="m 363.89171,-46.467743 c -0.24532,-0.08534 -0.42266,-0.193323 -0.53199,-0.321335 -0.10802,-0.129336 -0.16267,-0.299981 -0.16267,-0.509333 0,-0.169323 0.0467,-0.318652 0.13999,-0.445334 0.0933,-0.126652 0.22001,-0.224013 0.38267,-0.290684 0.16135,-0.06799 0.34666,-0.101329 0.556,-0.101329 0.27201,0 0.52933,0.04668 0.772,0.139994 v 0.542668 c -0.24533,-0.06932 -0.48267,-0.105335 -0.71067,-0.105335 -0.26533,0 -0.39866,0.07068 -0.39866,0.209348 0,0.05201 0.0238,0.096 0.0693,0.131981 0.0467,0.03742 0.13202,0.07601 0.25599,0.117354 l 0.23331,0.07733 c 0.26668,0.08799 0.456,0.193323 0.568,0.316006 0.11199,0.122684 0.168,0.286678 0.168,0.49067 0,0.283994 -0.10133,0.50533 -0.30398,0.662665 -0.20266,0.158664 -0.488,0.237354 -0.85466,0.237354 -0.15867,0 -0.31068,-0.01323 -0.45867,-0.04135 -0.14669,-0.02684 -0.27202,-0.06399 -0.37599,-0.110665 v -0.550669 c 0.12665,0.03326 0.26801,0.06266 0.42133,0.08398 0.15334,0.02117 0.29333,0.03326 0.42134,0.03326 0.13334,0 0.23331,-0.01739 0.29866,-0.05333 0.064,-0.03477 0.096,-0.08931 0.096,-0.165317 0,-0.04131 -0.008,-0.07468 -0.0253,-0.100006 -0.0159,-0.02532 -0.0493,-0.05068 -0.0973,-0.07601 -0.0467,-0.02381 -0.12669,-0.05601 -0.23736,-0.09468 z"
             style="display:inline;fill:#ffffff;fill-opacity:1;fill-rule:nonzero;stroke:none;stroke-width:0.228067" />
          <path
             id="path353"
             d="m 360.58331,-46.467743 c -0.24533,-0.08534 -0.42267,-0.193323 -0.53067,-0.321335 -0.10934,-0.129336 -0.16267,-0.299981 -0.16267,-0.509333 0,-0.169323 0.0453,-0.318652 0.13867,-0.445334 0.0933,-0.126652 0.22001,-0.224013 0.38267,-0.290684 0.16135,-0.06799 0.34666,-0.101329 0.556,-0.101329 0.27202,0 0.52933,0.04668 0.77201,0.139994 v 0.542668 c -0.24533,-0.06932 -0.48268,-0.105335 -0.70933,-0.105335 -0.26669,0 -0.4,0.07068 -0.4,0.209348 0,0.05201 0.0238,0.096 0.0707,0.131981 0.0453,0.03742 0.13066,0.07601 0.25599,0.117354 l 0.23199,0.07733 c 0.26668,0.08799 0.456,0.193323 0.568,0.316006 0.11199,0.122684 0.16932,0.286678 0.16932,0.49067 0,0.283994 -0.10133,0.50533 -0.30535,0.662665 -0.20265,0.158664 -0.48799,0.237354 -0.85466,0.237354 -0.15734,0 -0.31067,-0.01323 -0.45734,-0.04135 -0.148,-0.02684 -0.27333,-0.06399 -0.37731,-0.110665 v -0.550669 c 0.12666,0.03326 0.26801,0.06266 0.42133,0.08398 0.15466,0.02117 0.29466,0.03326 0.42134,0.03326 0.13334,0 0.23331,-0.01739 0.29866,-0.05333 0.064,-0.03477 0.096,-0.08931 0.096,-0.165317 0,-0.04131 -0.008,-0.07468 -0.0253,-0.100006 -0.0159,-0.02532 -0.048,-0.05068 -0.096,-0.07601 -0.048,-0.02381 -0.12801,-0.05601 -0.23868,-0.09468 z"
             style="display:inline;fill:#ffffff;fill-opacity:1;fill-rule:nonzero;stroke:none;stroke-width:0.228067" />
          <path
             id="path352"
             d="m 356.74411,-45.382142 v -2.688 h 1.87333 v 0.566669 h -1.14399 v 0.46933 h 0.93066 v 0.566668 h -0.93066 v 0.518665 h 1.152 v 0.566668 z"
             style="display:inline;fill:#ffffff;fill-opacity:1;fill-rule:nonzero;stroke:none;stroke-width:0.228067" />
          <path
             id="path351"
             d="m 353.61411,-45.382142 v -2.688 h 1.80401 v 0.574666 h -1.056 v 0.562666 h 0.85333 v 0.573335 h -0.85333 v 0.977333 z"
             style="display:inline;fill:#ffffff;fill-opacity:1;fill-rule:nonzero;stroke:none;stroke-width:0.228067" />
          <path
             id="path350"
             d="m 350.79052,-45.909442 c 0.196,0 0.34401,-0.06799 0.444,-0.205342 0.1,-0.137348 0.14932,-0.338684 0.14932,-0.605337 0,-0.272013 -0.0507,-0.475997 -0.15201,-0.614664 -0.1,-0.138671 -0.24801,-0.207988 -0.44133,-0.207988 -0.19332,0 -0.34,0.06932 -0.44,0.206665 -0.1,0.135987 -0.14933,0.338683 -0.14933,0.603998 0,0.26933 0.0493,0.473337 0.14933,0.613335 0.10001,0.139993 0.24665,0.209348 0.44,0.209348 m 0,0.593333 c -0.28131,0 -0.524,-0.05866 -0.72933,-0.176013 -0.20402,-0.117354 -0.35867,-0.282671 -0.46534,-0.494668 -0.10533,-0.211994 -0.15866,-0.459999 -0.15866,-0.745335 0,-0.292006 0.0547,-0.542664 0.16668,-0.753331 0.11066,-0.211994 0.268,-0.372019 0.47066,-0.483999 0.20402,-0.110665 0.44267,-0.165317 0.71601,-0.165317 0.28134,0 0.52532,0.05734 0.72932,0.17333 0.20398,0.117316 0.36,0.281348 0.46667,0.493334 0.10802,0.211994 0.16135,0.461333 0.16135,0.747999 0,0.292006 -0.056,0.544002 -0.16668,0.756 -0.11066,0.211993 -0.26933,0.373341 -0.47334,0.484002 -0.20402,0.109342 -0.444,0.163994 -0.71732,0.163994"
             style="display:inline;fill:#ffffff;fill-opacity:1;fill-rule:nonzero;stroke:none;stroke-width:0.228067" />
          <path
             id="path349"
             d="m 346.66758,-46.824542 h 0.31865 c 0.11335,0 0.20133,-0.03061 0.26532,-0.09332 0.0627,-0.06267 0.0947,-0.150652 0.0947,-0.268007 0,-0.23467 -0.12269,-0.351987 -0.36802,-0.351987 h -0.31071 z m -0.70933,1.442669 v -2.688 h 1.10932 c 0.30668,0 0.552,0.07865 0.732,0.234671 0.18135,0.156018 0.27202,0.369335 0.27202,0.638668 0,0.157342 -0.0359,0.298658 -0.10666,0.422668 -0.0707,0.124007 -0.17065,0.222652 -0.29998,0.297336 l 0.59333,1.094668 h -0.77603 l -0.47334,-0.938668 h -0.34133 v 0.938668 z"
             style="display:inline;fill:#ffffff;fill-opacity:1;fill-rule:nonzero;stroke:none;stroke-width:0.228067" />
          <path
             id="path348"
             d="m 343.24292,-46.797843 h 0.27201 c 0.11868,0 0.21067,-0.03213 0.27466,-0.09732 0.0653,-0.06399 0.0973,-0.153335 0.0973,-0.266683 0,-0.113348 -0.0321,-0.203982 -0.0973,-0.268007 -0.064,-0.06399 -0.15598,-0.09732 -0.27466,-0.09732 h -0.27201 z m 0,0.542668 v 0.873332 h -0.72133 v -2.688 h 1.10132 c 0.308,0 0.552,0.08134 0.73067,0.242683 0.17998,0.161348 0.27066,0.382666 0.27066,0.665333 0,0.281348 -0.0907,0.502666 -0.27066,0.665333 -0.17866,0.161348 -0.42267,0.241323 -0.73067,0.241323 z"
             style="display:inline;fill:#ffffff;fill-opacity:1;fill-rule:nonzero;stroke:none;stroke-width:0.228067" />
        </g>
      </g>
      <g
         id="layer5"
         transform="translate(-25.322408,-0.00159293)"
         style="display:inline">
        <line
           class="cls-4"
           x1="94.963814"
           y1="236.18938"
           x2="282.98892"
           y2="236.18938"
           id="line9"
           style="display:inline;stroke-width:0.999999" />
        <line
           class="cls-4"
           x1="94.963814"
           y1="131.72115"
           x2="282.98892"
           y2="131.72115"
           id="line8"
           style="display:inline;stroke-width:0.999999" />
      </g>
      <g
         id="layer2"
         style="display:inline"
         transform="translate(-25.322407,-0.00159293)">
        <g
           id="g16"
           style="display:inline;stroke-width:1.24574"
           transform="matrix(0.8027372,0,0,0.8027372,25.318332,0)">
          <path
             class="cls-3"
             d="M 265.77,141.78999 265.53,139.56 c -0.98,0.82 -2.07,1.47 -3.28,1.95 -1.21,0.48 -2.37,0.72 -3.48,0.72 -2.62,0 -4.7,-0.92001 -6.22,-2.76 -1.52,-1.84 -2.29,-4.37 -2.29,-7.57001 0,-3.19999 0.77,-5.88999 2.31,-7.80999 1.54,-1.92 3.63,-2.88 6.28,-2.88 2.46,0 4.69,0.87 6.68,2.62 v -11.45 h 2.27 v 29.41999 h -2.03 z M 259.29,140.16 c 1.99,0 4.07,-0.85 6.24,-2.54 v -11.77001 c -1.11,-0.9 -2.18,-1.56 -3.2,-1.96999 -1.02,-0.41 -2.1,-0.62001 -3.24,-0.62001 -2.12,0 -3.73,0.72 -4.83,2.15001 -1.1,1.43 -1.65,3.54999 -1.65,6.36 0,5.58999 2.23,8.39 6.68,8.39 z"
             id="path16"
             style="stroke-width:1.24574" />
          <path
             class="cls-3"
             d="m 233.25,132.17 c 0.0299,2.78 0.64,4.83999 1.83,6.16 1.19,1.33 3.03,1.99 5.53,1.99 2.28,0 4.47,-0.46 6.56,-1.39 v 1.87 c -1.88,1.05999 -4.12,1.58999 -6.72,1.58999 -3.15,0 -5.53,-0.89 -7.12,-2.67999 -1.59,-1.79 -2.39,-4.45001 -2.39,-7.97 0,-3.34 0.8,-5.93 2.41,-7.77 1.61,-1.84001 3.85,-2.76 6.74,-2.76 2.41,0 4.26,0.69 5.55,2.07 1.29,1.38 1.93,3.34999 1.93,5.91999 0,1.19001 -0.08,2.19001 -0.24,2.98001 h -14.07 z m 6.64,-8.94 c -4.19,0 -6.4,2.36999 -6.64,7.11999 h 12.08 c 0.0299,-0.37001 0.04,-0.80999 0.04,-1.30999 0,-1.91 -0.46,-3.35 -1.39,-4.33001 C 243.05,123.73 241.69,123.24 239.89,123.24 Z"
             id="path15"
             style="display:inline;stroke-width:1.24574" />
          <path
             class="cls-3"
             d="M 211.67,141.78999 V 123.78 h -3.9 v -1.59001 l 3.9,-0.36 V 117.26 c 0,-1.78 0.46,-3.13 1.39,-4.06 0.93,-0.93 2.25,-1.39001 3.98,-1.39001 0.64,0 1.29,0.06 1.97,0.18002 0.68,0.12 1.25,0.27001 1.73,0.46001 v 1.87 c -1.33,-0.29001 -2.46,-0.44 -3.42,-0.44 -1.19,0 -2.05,0.25001 -2.58,0.74 -0.53,0.48999 -0.79,1.29 -0.79,2.4 v 4.77 h 12.96 v 19.99999 h -2.27 v -18.00999 h -10.69 v 18.00999 h -2.27 z M 225.78,117.5 c -0.53,0 -0.95,-0.15999 -1.25,-0.48 -0.29998,-0.32001 -0.46,-0.74 -0.46,-1.27 0,-0.53 0.15001,-0.95 0.46,-1.27 0.31,-0.32002 0.72,-0.48 1.25,-0.48 0.53,0 0.95,0.15998 1.25,0.48 0.29998,0.32001 0.46,0.74 0.46,1.27 0,0.53 -0.15001,0.95 -0.46,1.27 -0.29998,0.32001 -0.72,0.48 -1.25,0.48 z"
             id="path14"
             style="display:inline;stroke-width:1.24574" />
          <path
             class="cls-3"
             d="m 203.79,117.5 c -0.53,0 -0.95,-0.15999 -1.25,-0.48 -0.3,-0.32 -0.46,-0.74 -0.46,-1.27 0,-0.53 0.15001,-0.95 0.46,-1.27 0.31,-0.32002 0.72,-0.48 1.25,-0.48 0.53,0 0.95,0.15998 1.25,0.48 0.29998,0.32001 0.46,0.74 0.46,1.27 0,0.53 -0.15001,0.95 -0.46,1.27 -0.29998,0.32001 -0.72,0.48 -1.25,0.48 z m -1.15,24.28999 V 121.79 h 2.27 v 19.99999 z"
             id="path13"
             style="display:inline;stroke-width:1.24574" />
          <path
             class="cls-3"
             d="m 199.54,141.36 c -1.11,0.45 -2.45,0.67999 -4.01,0.67999 -1.56,0 -2.76,-0.42 -3.58,-1.24999 -0.82,-0.83 -1.23,-2.05001 -1.23,-3.64 v -13.36 h -3.74 v -1.59 l 3.82,-0.36 0.32001,-5.84 h 1.87001 v 5.8 h 6.36 v 1.99 h -6.36 v 13.24 c 0,1.09 0.22998,1.86 0.69999,2.30999 0.46001,0.45001 1.24001,0.68001 2.33001,0.68001 1.08999,0 2.27,-0.15999 3.54,-0.48 v 1.82999 z"
             id="path12"
             style="display:inline;stroke-width:1.24574" />
          <path
             class="cls-3"
             d="M 176.17,141.78999 V 121.79 h 1.99 l 0.24,2.9 c 1.01,-1.11 1.99,-1.90001 2.96,-2.37 0.97,-0.46 2.06,-0.7 3.28,-0.7 0.45,0 0.99,0.04 1.63,0.12 v 2.03 c -0.69,-0.05 -1.31,-0.08 -1.87,-0.08 -1.22,0 -2.3,0.22999 -3.24,0.68 -0.94,0.45 -1.85,1.18 -2.72,2.19 v 15.23 z"
             id="path11"
             style="display:inline;stroke-width:1.24574" />
          <path
             class="cls-3"
             d="m 158.12,132.17 c 0.0299,2.78 0.64,4.83999 1.83,6.16 1.19,1.33 3.03,1.99 5.53,1.99 2.28,0 4.46,-0.46 6.56,-1.39 v 1.87 c -1.88,1.05999 -4.12,1.58999 -6.72,1.58999 -3.15,0 -5.53,-0.89 -7.12,-2.67999 -1.59,-1.79 -2.38,-4.45001 -2.38,-7.97 0,-3.34 0.8,-5.93 2.4,-7.77 1.6,-1.84001 3.85,-2.76 6.74,-2.76 2.41,0 4.26,0.69 5.55,2.07 1.29,1.38 1.93,3.34999 1.93,5.91999 0,1.19001 -0.08,2.19001 -0.24,2.98001 h -14.07 z m 6.64,-8.94 c -4.19,0 -6.4,2.36999 -6.64,7.11999 h 12.09 c 0.0299,-0.37001 0.04,-0.80999 0.04,-1.30999 0,-1.91 -0.46,-3.35 -1.39,-4.33001 C 167.93,123.73 166.57,123.24 164.77,123.24 Z"
             id="path10"
             style="display:inline;stroke-width:1.24574" />
          <path
             class="cls-3"
             d="m 154.3,141.12 c -1.64,0.73999 -3.3,1.11 -4.97,1.11 -3.07,0 -5.41,-0.88 -7,-2.64 -1.59,-1.76001 -2.39,-4.35 -2.39,-7.77 0,-3.42 0.81,-5.98001 2.42,-7.77001 1.62,-1.78999 3.96,-2.67999 7.04,-2.67999 1.64,0 3.19,0.32001 4.65,0.95 v 1.87 c -1.46,-0.48 -2.97,-0.72 -4.53,-0.72 -2.52,0 -4.34,0.63999 -5.47,1.93 -1.13,1.28999 -1.69,3.35 -1.69,6.18 v 0.48 c 0,2.76 0.57,4.79 1.71,6.1 1.14,1.31 2.93,1.97 5.37,1.97 1.46,0 3.07,-0.29001 4.85,-0.87 v 1.86999 z"
             id="path9"
             style="display:inline;stroke-width:1.24574" />
        </g>
        <g
           id="g7"
           style="display:inline;stroke-width:1.24574"
           transform="matrix(0.8027372,0,0,0.8027372,25.318332,0)">
          <polygon
             class="cls-2"
             points="236.02,99.15 252.21,108.5 268.39,99.15 268.39,80.47 252.21,71.12 236.02,80.47 "
             id="polygon7"
             style="stroke-width:1.24574" />
          <path
             class="cls-3"
             d="m 261.25,84.769997 -1.83,-1.829998 c -0.17,-0.170003 -0.44,-0.170003 -0.6,0 l -10.84,10.84 L 245.42,91.22 c -0.17,-0.170003 -0.44,-0.170003 -0.6,0 l -1.83,1.829998 c -0.17,0.170003 -0.17,0.440001 0,0.6 L 247.52,98.18 c 0.25999,0.259994 0.69,0.259994 0.96,0 l 12.79,-12.810003 c 0.17,-0.170003 0.17,-0.439997 0,-0.6 z"
             id="path7"
             style="display:inline;stroke-width:1.24574" />
        </g>
        <path
           class="cls-3"
           d="m 156.06014,77.568489 c 0,0.770634 0,1.549285 0.39334,2.303856 0.19264,0.586001 0.56994,1.356632 0.77063,1.926573 0.19264,0.200693 0.19264,0.393343 0.19264,0.585997 0,0.377272 -0.19264,0.585997 -0.58599,0.77063 l -1.73393,1.155939 h -0.56993 c -0.39335,0 -0.586,-0.192643 -0.77063,-0.377273 -0.37728,-0.393339 -0.77063,-0.770627 -0.9633,-1.163966 -0.19264,-0.377272 -0.58599,-0.963284 -0.77062,-1.533229 -1.92656,2.303856 -4.62376,3.660476 -7.70627,3.660476 -1.92657,0.192642 -3.85315,-0.585997 -5.19371,-1.926569 -1.35662,-1.356624 -1.92657,-3.090531 -1.92657,-5.017104 0,-2.119226 0.77062,-4.045799 2.30385,-5.386367 1.73391,-1.356624 4.04581,-2.119223 6.36571,-2.119223 0.96329,0 1.92657,0 2.6972,0.192643 0.96328,0.19268 1.92657,0.377272 2.88985,0.569949 v -1.926569 c 0.19264,-1.53323 -0.2007,-3.082511 -1.16397,-4.230425 -1.15595,-0.963285 -2.68916,-1.340572 -4.23043,-1.155942 -0.96328,0 -1.92656,0.192642 -2.88984,0.377272 -0.96329,0.192643 -1.92657,0.586001 -2.88987,0.963285 -0.37727,0.192642 -0.58598,0.192642 -0.96328,0.393343 h -0.37727 c -0.39334,0 -0.586,-0.200693 -0.586,-0.770627 V 63.50453 c 0,-0.377272 0,-0.569941 0.19268,-0.963284 0.19264,-0.192642 0.39334,-0.377272 0.77063,-0.569941 0.96328,-0.586001 2.11923,-0.963285 3.26714,-1.155942 1.35662,-0.393343 2.6972,-0.586001 4.05383,-0.586001 2.4965,-0.192643 4.81641,0.586001 6.74298,2.119226 1.53323,1.733912 2.30386,4.045796 2.11923,6.365704 l 0.56995,8.862225 z m -10.59613,3.853141 c 0.96328,0 1.73391,-0.192642 2.69719,-0.377272 0.96329,-0.393339 1.73391,-0.963284 2.51257,-1.733911 0.37727,-0.393336 0.77063,-0.963285 0.96329,-1.733908 0.19264,-0.770634 0.19264,-1.549285 0.19264,-2.303856 v -1.16397 c -0.77063,-0.192642 -1.54928,-0.377272 -2.30385,-0.377272 -0.77063,-0.192681 -1.54928,-0.192681 -2.51257,-0.192681 -1.34057,-0.192642 -2.6972,0.192681 -3.85314,0.963289 -1.54928,1.533229 -1.73391,4.045795 -0.37727,5.779706 0.7626,0.963285 1.72588,1.340572 2.68916,1.155946 v 0 z m 20.9996,2.889854 c -0.37727,0 -0.77063,0 -0.96329,-0.192643 -0.19264,-0.192642 -0.37727,-0.585997 -0.56994,-0.963284 L 158.75734,62.92658 c -0.19268,-0.393343 -0.19268,-0.77063 -0.19268,-0.963284 0,-0.393343 0.19268,-0.586001 0.37727,-0.586001 h 2.6972 c 0.39335,0 0.77063,0 0.96328,0.192643 0.19268,0.200693 0.39335,0.585997 0.586,0.963284 l 4.42309,17.146469 4.05382,-17.146469 c 0,-0.377272 0.19268,-0.762599 0.56994,-0.963284 0.39334,-0.192643 0.77064,-0.192643 0.96329,-0.192643 h 2.11923 c 0.39333,0 0.77062,0 0.96327,0.192643 0.2007,0.200693 0.39335,0.585997 0.586,0.963284 l 4.0458,17.539805 4.43914,-17.539805 c 0,-0.377272 0.19265,-0.762599 0.56995,-0.963284 0.39333,-0.192643 0.58599,-0.192643 0.96327,-0.192643 h 2.51258 c 0.37727,0 0.58599,0.192643 0.58599,0.393343 v 0.569942 c 0,0.192642 -0.20069,0.393343 -0.20069,0.586 l -6.15698,20.036319 c 0,0.377272 -0.19264,0.762599 -0.586,0.963284 -0.19268,0.377273 -0.56995,0.377273 -0.96329,0.377273 h -2.30385 c -0.37727,0 -0.77064,0 -0.96329,-0.19268 -0.19268,-0.39334 -0.37727,-0.58599 -0.586,-0.963277 l -4.0458,-16.769182 -4.04579,16.769182 c 0,0.377272 -0.19268,0.770623 -0.586,0.963277 -0.19264,0.19268 -0.56994,0.19268 -0.7626,0.19268 h -2.31991 z m 33.52231,0.778658 c -1.34057,0 -2.6972,-0.192643 -4.0458,-0.393343 -0.96328,-0.192643 -2.11922,-0.569942 -3.08251,-0.963288 -0.586,-0.192643 -0.96328,-0.762599 -0.96328,-1.533222 v -1.356624 c 0,-0.569945 0.19264,-0.762607 0.56994,-0.762607 h 0.39334 c 0.19264,0 0.37727,0.192643 0.56994,0.192643 0.96329,0.377272 1.92657,0.770623 2.88986,0.963284 0.96328,0.192643 2.11923,0.377273 3.08251,0.377273 1.35662,0 2.6972,-0.192643 3.85314,-0.963285 0.77063,-0.569945 1.35662,-1.533229 1.35662,-2.496514 0,-0.770626 -0.19268,-1.356623 -0.77062,-1.733911 -0.77063,-0.585997 -1.73392,-1.155938 -2.6972,-1.356623 l -3.85314,-1.155946 c -1.53323,-0.377273 -3.08251,-1.340569 -4.23043,-2.697192 -0.77062,-1.155946 -1.35662,-2.496518 -1.35662,-3.853142 0,-0.963284 0.20069,-1.926568 0.77063,-2.889853 0.39334,-0.762599 1.15594,-1.533226 1.92656,-2.119226 0.77063,-0.569942 1.73392,-1.155942 2.6972,-1.340568 1.15594,-0.393343 2.11923,-0.393343 3.26715,-0.393343 0.58599,0 1.16396,0 1.73391,0.200692 0.58599,0 1.15594,0.192643 1.73391,0.377273 0.58599,0.192642 0.96328,0.192642 1.54928,0.377272 0.37727,0.200693 0.7626,0.200693 1.15594,0.393343 0.37731,0.192643 0.56994,0.377273 0.77063,0.569942 0.19268,0.200693 0.19268,0.586 0.19268,0.963284 v 1.16397 c 0,0.569945 -0.19268,0.762599 -0.586,0.762599 -0.39335,0 -0.77063,-0.192643 -0.96328,-0.377272 -1.53324,-0.770631 -3.26715,-0.963289 -5.00909,-0.963289 -1.15594,0 -2.30385,0.192643 -3.47584,0.770631 -0.76261,0.377272 -1.34058,1.340572 -1.15595,2.303856 0,0.770627 0.19264,1.356628 0.77063,1.926565 0.77063,0.770635 1.73391,1.155946 2.88985,1.356632 l 3.66049,1.155938 c 1.53322,0.377272 2.88984,1.340572 4.04579,2.496518 0.77062,0.963284 1.15594,2.319904 1.15594,3.660476 0,0.963288 -0.19264,2.119223 -0.77063,3.082507 -0.37727,0.963288 -1.15594,1.733919 -1.92657,2.319916 -0.7626,0.569941 -1.92657,1.155938 -2.88985,1.533225 -0.7626,0.200693 -2.11923,0.393347 -3.26714,0.393347 v 0 z m 0,0"
           id="path6"
           style="display:inline;stroke-width:0.999999" />
      </g>
      <g
         id="layer3"
         transform="translate(-25.322408,-0.00159293)"
         style="display:inline">
        <g
           id="g34"
           style="display:inline;stroke-width:1.24574"
           transform="matrix(0.8027372,0,0,0.8027372,25.318332,0)">
          <g
             id="g3"
             style="stroke-width:1.24574">
            <path
               class="cls-3"
               d="m 309.49,270.64999 c -1.96,0.73 -4.2,1.09 -6.72,1.09 -3.15,-0.0299 -5.47,-0.77 -6.97,-2.21 -1.49,-1.44 -2.24,-3.72 -2.24,-6.84 v -10.65 h -3.53 v -5.27 l 3.78,-0.9 1.49,-6.87 h 7.61 v 6.67 h 6.47 v 6.37 h -6.47 v 10.05 c 0,1 0.25002,1.69 0.75,2.09 0.5,0.4 1.34,0.6 2.54,0.6 0.93,0 2.02,-0.10001 3.28,-0.29998 v 6.17 z"
               id="path34"
               style="stroke-width:1.24574" />
            <path
               class="cls-3"
               d="m 288.3,270.15999 c -1.03,0.53 -2.22,0.95 -3.58,1.24 -1.36,0.29998 -2.77,0.45 -4.23,0.45 -4.28,0 -7.54,-1.12 -9.78,-3.36 -2.24,-2.24 -3.36,-5.51 -3.36,-9.83 0,-4.32 1.19,-7.6 3.56,-9.97 2.37,-2.37 5.7,-3.56 9.97,-3.56 2.85,0 5.29,0.55 7.31,1.64 v 5.92 c -1.92,-0.6 -3.73,-0.9 -5.42,-0.9 -2.06,0 -3.57,0.51 -4.53,1.54 -0.96,1.03 -1.44,2.64 -1.44,4.83 v 0.7 c 0,2.16 0.48,3.75 1.44,4.78 0.96,1.03 2.42,1.54 4.38,1.54 1.79,0 3.68,-0.32001 5.67,-0.95 v 5.92 z"
               id="path33"
               style="display:inline;stroke-width:1.24574" />
            <path
               class="cls-3"
               d="m 249.3,260.84999 c 0.17001,1.66 0.8,2.86 1.92,3.61 1.12,0.75 2.78,1.12 5,1.12 2.22,0 4.71,-0.43 7.76,-1.29 v 5.72 c -1.26,0.63 -2.77,1.13 -4.53,1.49 -1.76,0.36 -3.5,0.55 -5.22,0.55 -8.96,0 -13.43,-4.51 -13.43,-13.53 0,-4.25 1.14,-7.57 3.43,-9.97 2.29,-2.4 5.47,-3.61 9.55,-3.61 3.45,0 6.12,0.92 8.01,2.76 1.89,1.84 2.84,4.47 2.84,7.88 0,0.76 -0.06,1.67 -0.17,2.71 -0.10999,1.04 -0.24,1.9 -0.37002,2.56 H 249.31 Z m 4.22,-9.7 c -1.19,0 -2.16,0.37002 -2.88,1.12 -0.73,0.75 -1.18,1.82 -1.34,3.21 h 7.46 v -0.6 c 0,-2.49 -1.08,-3.73 -3.23,-3.73 z"
               id="path32"
               style="display:inline;stroke-width:1.24574" />
            <path
               class="cls-3"
               d="m 239,270.64999 c -1.96,0.73 -4.2,1.09 -6.72,1.09 -3.15,-0.0299 -5.47,-0.77 -6.96,-2.21 -1.49,-1.44 -2.24,-3.72 -2.24,-6.84 v -10.65 h -3.53 v -5.27 l 3.78,-0.9 1.49,-6.87 h 7.61 v 6.67 h 6.47 v 6.37 h -6.47 v 10.05 c 0,1 0.25002,1.69 0.75,2.09 0.5,0.4 1.34,0.6 2.54,0.6 0.93,0 2.02,-0.10001 3.28,-0.29998 z"
               id="path31"
               style="display:inline;stroke-width:1.24574" />
            <path
               class="cls-3"
               d="m 212.48,242.43999 c -1.59,0 -2.86,-0.43 -3.81,-1.29 -0.95,-0.86 -1.42,-2.01 -1.42,-3.43 0,-1.42 0.47,-2.57 1.42,-3.43 0.95,-0.86 2.21,-1.29 3.81,-1.29 1.6,0 2.86,0.43 3.81,1.29 0.95,0.86 1.42,2.01 1.42,3.43 0,1.42 -0.47,2.57 -1.42,3.43 -0.95,0.86 -2.21,1.29 -3.81,1.29 z m -4.68,28.86 v -25.62 h 9.35 v 25.62 z"
               id="path30"
               style="display:inline;stroke-width:1.24574" />
            <path
               class="cls-3"
               d="m 193.18,271.29999 v -16.82 c 0,-1 -0.19,-1.72 -0.57,-2.19 -0.38,-0.46 -1.02,-0.7 -1.92,-0.7 -1.23,0 -2.52,0.42 -3.88,1.24 v 18.46 h -9.35 v -36.82 h 9.35 v 13.28 c 1.43,-1 2.8,-1.72 4.13,-2.16 1.33,-0.45 2.74,-0.67 4.23,-0.67 2.39,0 4.21,0.65 5.47,1.94 1.26,1.29 1.89,3.13 1.89,5.52 v 18.91 h -9.35 z"
               id="path29"
               style="display:inline;stroke-width:1.24574" />
            <path
               class="cls-3"
               d="m 173.73,270.15999 c -1.03,0.53 -2.22,0.95 -3.58,1.24 -1.36,0.29998 -2.77,0.45 -4.23,0.45 -4.28,0 -7.54,-1.12 -9.78,-3.36 -2.24,-2.24 -3.36,-5.51 -3.36,-9.83 0,-4.32 1.18,-7.6 3.56,-9.97 2.37,-2.37 5.7,-3.56 9.98,-3.56 2.85,0 5.29,0.55 7.31,1.64 v 5.92 c -1.92,-0.6 -3.73,-0.9 -5.42,-0.9 -2.06,0 -3.57,0.51 -4.53,1.54 -0.96,1.03 -1.44,2.64 -1.44,4.83 v 0.7 c 0,2.16 0.48,3.75 1.44,4.78 0.96,1.03 2.42,1.54 4.38,1.54 1.79,0 3.68,-0.32001 5.67,-0.95 v 5.92 z"
               id="path28"
               style="display:inline;stroke-width:1.24574" />
            <path
               class="cls-3"
               d="m 151.84,253.83999 c -1.06,-0.17 -2.16,-0.25001 -3.28,-0.25001 -2.09,0 -3.98,0.27998 -5.67,0.85 v 16.86999 h -9.35 v -25.61999 h 7.61 l 1.14,3.88 c 2.35,-2.79 4.88,-4.18 7.56,-4.18 0.7,0 1.36,0.05 1.99,0.15001 v 8.31 z"
               id="path27"
               style="display:inline;stroke-width:1.24574" />
            <path
               class="cls-3"
               d="m 120.74,271.29999 -1.89,-6.67 H 108.3 l -1.79,6.67 H 96.360001 L 108.5,236.81999 h 10.6 l 12.14,34.48 z m -10.64,-13.43 h 6.96 l -3.53,-12.79 z"
               id="path26"
               style="display:inline;stroke-width:1.24574" />
          </g>
          <g
             id="g2"
             style="display:inline;stroke-width:1.24574">
            <path
               class="cls-3"
               d="m 304.59,216.08999 c 0,-0.46 -0.15001,-0.82 -0.45,-1.07 -0.30002,-0.25001 -0.91,-0.56 -1.84,-0.92 l -3.68,-1.44 c -2.09,-0.83 -3.6,-1.85 -4.53,-3.06 -0.93,-1.21 -1.39,-2.79 -1.39,-4.75 0,-1.62 0.46,-3.03999 1.37,-4.23 0.91,-1.19 2.17,-2.10999 3.78,-2.74 1.61,-0.62999 3.47,-0.95 5.6,-0.95 3.05,0 5.84,0.65 8.36,1.94001 v 5.66999 c -2.72,-0.83 -5.24,-1.24 -7.56,-1.24 -1.13,0 -1.92,0.10001 -2.39,0.29999 -0.46,0.20001 -0.7,0.55999 -0.7,1.08999 0,0.40001 0.17,0.73 0.52,1.00001 0.35002,0.27 0.94,0.55999 1.77,0.9 l 3.68,1.44 c 2.29,0.9 3.86,1.88999 4.73,2.98999 0.86,1.09001 1.29,2.60001 1.29,4.53 0,2.62001 -0.97,4.7 -2.91,6.24 -1.94,1.54001 -4.57,2.31 -7.89,2.31 -3.85,0 -7.03,-0.73 -9.55,-2.19 v -5.76998 c 2.02,0.56 3.71,0.95 5.05,1.17 1.34,0.22001 2.69,0.32002 4.05,0.32002 0.93,0 1.61,-0.12 2.04,-0.37002 0.43,-0.25002 0.65,-0.64 0.65,-1.17 z"
               id="path25"
               style="stroke-width:1.24574" />
            <path
               class="cls-3"
               d="m 279.77,223.29999 v -16.82 c 0,-1 -0.18999,-1.72 -0.57,-2.19 -0.38,-0.46 -1.02,-0.7 -1.92,-0.7 -1.23,0 -2.52,0.42 -3.88,1.24 v 18.46 h -9.35 V 197.67 h 7.61 l 0.8,2.58999 c 1.56,-1.16 3.08,-2.01 4.58,-2.54 1.49,-0.52999 3.07,-0.8 4.73,-0.8 2.39,0 4.21,0.65 5.47,1.94 1.26,1.29 1.89,3.13001 1.89,5.52 v 18.91 h -9.35 z"
               id="path24"
               style="display:inline;stroke-width:1.24574" />
            <path
               class="cls-3"
               d="m 246.68,224.04999 c -4.15,0 -7.4,-1.19 -9.75,-3.58 -2.36,-2.39 -3.53,-5.72 -3.53,-10 0,-4.28 1.18,-7.56 3.53,-9.95 2.35,-2.39 5.6,-3.58 9.75,-3.58 4.15,0 7.4,1.19 9.75,3.58 2.35,2.39 3.53,5.71 3.53,9.95 0,4.24 -1.18,7.61 -3.53,10 -2.36,2.39 -5.61,3.58 -9.75,3.58 z m 0,-6.57 c 2.55,0 3.83,-2.34 3.83,-7.01 0,-4.67 -1.28,-6.96 -3.83,-6.96 -2.55,0 -3.83,2.32 -3.83,6.96 0,4.64 1.28,7.01 3.83,7.01 z"
               id="path23"
               style="display:inline;stroke-width:1.24574" />
            <path
               class="cls-3"
               d="m 224.64,194.43999 c -1.59,0 -2.86,-0.42999 -3.81,-1.29 -0.95,-0.86 -1.42,-2.01 -1.42,-3.43 0,-1.42 0.47,-2.57 1.42,-3.43 0.95,-0.85999 2.21,-1.29 3.81,-1.29 1.6,0 2.86,0.43001 3.81,1.29 0.95,0.86 1.42,2.01 1.42,3.43 0,1.42 -0.47,2.57 -1.42,3.43 -0.95,0.86001 -2.21,1.29 -3.81,1.29 z m -4.67,28.86 v -25.62 h 9.35 v 25.62 z"
               id="path22"
               style="display:inline;stroke-width:1.24574" />
            <path
               class="cls-3"
               d="m 216.88,222.64999 c -1.96,0.73 -4.2,1.09 -6.72,1.09 -3.15,-0.0299 -5.47,-0.77 -6.96,-2.21 -1.49,-1.44 -2.24,-3.72 -2.24,-6.84 v -10.65 h -3.53 v -5.27 l 3.78,-0.9 1.49,-6.87 h 7.61 V 197.67 h 6.47 v 6.36999 h -6.47 v 10.05 c 0,1 0.25001,1.69 0.75,2.09 0.5,0.4 1.34,0.6 2.54,0.6 0.93,0 2.02,-0.1 3.28,-0.29998 z"
               id="path21"
               style="display:inline;stroke-width:1.24574" />
            <path
               class="cls-3"
               d="m 187.43,223.29999 -0.79,-2.54 c -2.92,2.19 -5.85,3.28 -8.81,3.28 -2.39,0 -4.25,-0.69 -5.57,-2.06 -1.32,-1.37 -1.99,-3.26 -1.99,-5.65 V 197.67 h 9.35 v 16.86999 c 0,1 0.19,1.72 0.57,2.16 0.38,0.45 1,0.67 1.87,0.67 1.19,0 2.41,-0.34998 3.63,-1.04 V 197.67 h 9.35 v 25.61999 h -7.61 z"
               id="path20"
               style="display:inline;stroke-width:1.24574" />
            <path
               class="cls-3"
               d="m 167.38,222.99999 c -1.62,0.7 -3.45,1.04 -5.47,1.04 -2.65,0 -4.63,-0.71 -5.92,-2.14 -1.29,-1.43 -1.94,-3.58 -1.94,-6.47 v -28.96 h 9.35 v 28.21 c 0,0.86 0.15001,1.49 0.45,1.89 0.29998,0.4 0.8,0.6 1.49,0.6 0.56,0 1.24,-0.07 2.04,-0.20001 v 6.02 z"
               id="path19"
               style="display:inline;stroke-width:1.24574" />
            <path
               class="cls-3"
               d="m 136.69,224.04999 c -4.15,0 -7.4,-1.19 -9.75,-3.58 -2.36,-2.39 -3.53,-5.72 -3.53,-10 0,-4.28 1.18,-7.56 3.53,-9.95 2.35,-2.39 5.6,-3.58 9.75,-3.58 4.15,0 7.4,1.19 9.75,3.58 2.35,2.39 3.53,5.71 3.53,9.95 0,4.24 -1.18,7.61 -3.53,10 -2.35,2.39 -5.61,3.58 -9.75,3.58 z m 0,-6.57 c 2.55,0 3.83,-2.34 3.83,-7.01 0,-4.67 -1.28,-6.96 -3.83,-6.96 -2.55,0 -3.83,2.32 -3.83,6.96 0,4.64 1.28,7.01 3.83,7.01 z"
               id="path18"
               style="display:inline;stroke-width:1.24574" />
            <path
               class="cls-3"
               d="m 103.5,209.36999 c -3.15,-1.09 -5.42,-2.47 -6.820002,-4.13 -1.389996,-1.66 -2.089999,-3.83 -2.089999,-6.52 0,-2.18999 0.6,-4.1 1.789999,-5.72 1.190004,-1.62 2.830001,-2.87 4.900002,-3.72999 2.07,-0.86001 4.45,-1.29001 7.14,-1.29001 3.48,0 6.78,0.6 9.9,1.79 v 6.97 c -3.15,-0.9 -6.19,-1.34 -9.1,-1.34 -3.42,0 -5.12,0.9 -5.12,2.69001 0,0.66 0.29998,1.22999 0.9,1.68999 0.6,0.46 1.69,0.96 3.28,1.49001 l 2.99,0.99999 c 3.42,1.13 5.85,2.48 7.29,4.05 1.44,1.58 2.16,3.67 2.16,6.29 0,3.65 -1.3,6.48 -3.91,8.51 -2.6,2.02 -6.26,3.04 -10.97,3.04 -2.02,0 -3.98,-0.17 -5.869998,-0.52 C 98.08,223.29001 96.47,222.81999 95.14,222.21999 v -7.06 c 1.62,0.43 3.42,0.79 5.4,1.07 1.97,0.27999 3.77,0.42 5.4,0.42 1.72,0 3,-0.22 3.83,-0.67 0.83,-0.45 1.24,-1.15 1.24,-2.12 0,-0.53 -0.11002,-0.96 -0.32001,-1.29 -0.22001,-0.32999 -0.63,-0.65 -1.24,-0.97 -0.61,-0.32001 -1.63,-0.72 -3.06,-1.22 l -2.89,-1 z"
               id="path17"
               style="display:inline;stroke-width:1.24574" />
          </g>
        </g>
      </g>
    </g>
  </g>
</svg>
