<?xml version="1.0" encoding="UTF-8"?>
<svg xmlns="http://www.w3.org/2000/svg" xmlns:xlink="http://www.w3.org/1999/xlink" width="245.487058" height="283.464567" viewBox="0 0 245.487058 283.464567">
<defs>
<linearGradient id="linear-pattern-0" gradientUnits="userSpaceOnUse" x1="51.549999" y1="83.080002" x2="356.200012" y2="387.73999" gradientTransform="matrix(0.602053, 0, 0, 0.602053, 0, 0)">
<stop offset="0" stop-color="rgb(30.980393%, 34.901962%, 39.215687%)" stop-opacity="1"/>
<stop offset="0.28" stop-color="rgb(30.980393%, 34.901962%, 39.215687%)" stop-opacity="1"/>
<stop offset="1" stop-color="rgb(13.333334%, 18.039216%, 24.313726%)" stop-opacity="1"/>
</linearGradient>
<clipPath id="clip-0">
<path clip-rule="nonzero" d="M 0.691406 0 L 246 0 L 246 284 L 0.691406 284 Z M 0.691406 0 "/>
</clipPath>
<clipPath id="clip-1">
<rect x="0" y="0" width="246" height="284"/>
</clipPath>
<g id="source-19355978" clip-path="url(#clip-1)">
<path fill-rule="nonzero" fill="rgb(100%, 100%, 100%)" fill-opacity="1" d="M 202.320312 203.71875 L 202.320312 192.46875 L 205.453125 192.46875 L 205.453125 201.1875 L 210.148438 201.1875 L 210.148438 203.71875 Z M 202.320312 203.71875 "/>
</g>
<clipPath id="clip-2">
<rect x="0" y="0" width="246" height="284"/>
</clipPath>
<g id="source-19355981" clip-path="url(#clip-2)">
<path fill-rule="nonzero" fill="rgb(100%, 100%, 100%)" fill-opacity="1" d="M 117.414062 199.335938 L 119.679688 199.335938 L 118.53125 195.164062 Z M 120.882812 203.714844 L 120.269531 201.546875 L 116.828125 201.546875 L 116.242188 203.714844 L 112.929688 203.714844 L 116.894531 192.46875 L 120.351562 192.46875 L 124.3125 203.714844 Z M 120.882812 203.714844 "/>
</g>
<clipPath id="clip-3">
<rect x="0" y="0" width="246" height="284"/>
</clipPath>
<g id="source-19355984" clip-path="url(#clip-3)">
<path fill-rule="nonzero" fill="rgb(100%, 100%, 100%)" fill-opacity="1" d="M 173.175781 196.671875 L 173.175781 203.714844 L 170.480469 203.714844 L 170.480469 192.46875 L 173.726562 192.46875 L 177.671875 199.578125 L 177.671875 192.46875 L 180.363281 192.46875 L 180.363281 203.714844 L 177.121094 203.714844 Z M 173.175781 196.671875 "/>
</g>
<clipPath id="clip-4">
<rect x="0" y="0" width="246" height="284"/>
</clipPath>
<g id="source-19355987" clip-path="url(#clip-4)">
<path fill-rule="nonzero" fill="rgb(100%, 100%, 100%)" fill-opacity="1" d="M 158.667969 201.507812 C 159.484375 201.507812 160.105469 201.226562 160.527344 200.652344 C 160.941406 200.078125 161.152344 199.230469 161.152344 198.117188 C 161.152344 196.980469 160.933594 196.121094 160.515625 195.546875 C 160.09375 194.96875 159.480469 194.679688 158.667969 194.679688 C 157.855469 194.679688 157.242188 194.960938 156.820312 195.535156 C 156.40625 196.109375 156.195312 196.953125 156.195312 198.070312 C 156.195312 199.195312 156.40625 200.046875 156.820312 200.632812 C 157.242188 201.21875 157.855469 201.507812 158.667969 201.507812 M 158.667969 203.992188 C 157.492188 203.992188 156.46875 203.75 155.617188 203.253906 C 154.757812 202.765625 154.109375 202.070312 153.667969 201.183594 C 153.222656 200.296875 153 199.257812 153 198.070312 C 153 196.84375 153.234375 195.792969 153.699219 194.910156 C 154.167969 194.03125 154.820312 193.359375 155.671875 192.894531 C 156.519531 192.425781 157.519531 192.195312 158.667969 192.195312 C 159.84375 192.195312 160.859375 192.4375 161.71875 192.921875 C 162.570312 193.410156 163.226562 194.097656 163.675781 194.984375 C 164.125 195.871094 164.351562 196.917969 164.351562 198.117188 C 164.351562 199.339844 164.113281 200.394531 163.644531 201.28125 C 163.183594 202.167969 162.519531 202.84375 161.667969 203.304688 C 160.816406 203.765625 159.808594 203.992188 158.667969 203.992188 "/>
</g>
<clipPath id="clip-5">
<rect x="0" y="0" width="246" height="284"/>
</clipPath>
<g id="source-19355990" clip-path="url(#clip-5)">
<path fill-rule="nonzero" fill="rgb(100%, 100%, 100%)" fill-opacity="1" d="M 143.671875 192.472656 L 146.804688 192.472656 L 146.804688 203.71875 L 143.671875 203.71875 Z M 143.671875 192.472656 "/>
</g>
<clipPath id="clip-6">
<rect x="0" y="0" width="246" height="284"/>
</clipPath>
<g id="source-19355993" clip-path="url(#clip-6)">
<path fill-rule="nonzero" fill="rgb(100%, 100%, 100%)" fill-opacity="1" d="M 131.804688 203.71875 L 131.804688 194.917969 L 128.542969 194.917969 L 128.542969 192.46875 L 138.199219 192.46875 L 138.199219 194.917969 L 134.9375 194.917969 L 134.9375 203.71875 Z M 131.804688 203.71875 "/>
</g>
<clipPath id="clip-7">
<rect x="0" y="0" width="246" height="284"/>
</clipPath>
<g id="source-19355996" clip-path="url(#clip-7)">
<path fill-rule="nonzero" fill="rgb(100%, 100%, 100%)" fill-opacity="1" d="M 190.132812 199.335938 L 192.40625 199.335938 L 191.253906 195.164062 Z M 193.605469 203.714844 L 192.992188 201.546875 L 189.546875 201.546875 L 188.964844 203.714844 L 185.65625 203.714844 L 189.617188 192.46875 L 193.074219 192.46875 L 197.035156 203.714844 Z M 193.605469 203.714844 "/>
</g>
<clipPath id="clip-8">
<rect x="0" y="0" width="246" height="284"/>
</clipPath>
<g id="source-19355999" clip-path="url(#clip-8)">
<path fill-rule="nonzero" fill="rgb(100%, 100%, 100%)" fill-opacity="1" d="M 101.246094 194.871094 L 101.246094 201.316406 L 102.320312 201.316406 C 103.953125 201.316406 104.769531 200.289062 104.769531 198.230469 L 104.769531 197.941406 C 104.769531 195.894531 103.960938 194.871094 102.347656 194.871094 Z M 98.113281 203.714844 L 98.113281 192.472656 L 102.511719 192.472656 C 104.246094 192.472656 105.589844 192.957031 106.535156 193.929688 C 107.492188 194.90625 107.964844 196.292969 107.964844 198.089844 C 107.964844 199.265625 107.753906 200.28125 107.332031 201.128906 C 106.910156 201.976562 106.308594 202.625 105.519531 203.0625 C 104.742188 203.5 103.804688 203.714844 102.707031 203.714844 Z M 98.113281 203.714844 "/>
</g>
<clipPath id="clip-9">
<rect x="0" y="0" width="246" height="284"/>
</clipPath>
<g id="source-19356002" clip-path="url(#clip-9)">
<path fill-rule="nonzero" fill="rgb(100%, 100%, 100%)" fill-opacity="1" d="M 84.464844 196.671875 L 84.464844 203.714844 L 81.769531 203.714844 L 81.769531 192.46875 L 85.015625 192.46875 L 88.960938 199.578125 L 88.960938 192.46875 L 91.652344 192.46875 L 91.652344 203.714844 L 88.410156 203.714844 Z M 84.464844 196.671875 "/>
</g>
<clipPath id="clip-10">
<rect x="0" y="0" width="246" height="284"/>
</clipPath>
<g id="source-19356005" clip-path="url(#clip-10)">
<path fill-rule="nonzero" fill="rgb(100%, 100%, 100%)" fill-opacity="1" d="M 70.445312 203.992188 C 68.886719 203.992188 67.679688 203.613281 66.8125 202.851562 C 65.957031 202.082031 65.523438 201.003906 65.523438 199.59375 L 65.523438 192.46875 L 68.65625 192.46875 L 68.65625 199.691406 C 68.65625 200.289062 68.808594 200.738281 69.117188 201.050781 C 69.417969 201.355469 69.859375 201.511719 70.445312 201.511719 C 71.644531 201.511719 72.246094 200.902344 72.246094 199.691406 L 72.246094 192.46875 L 75.378906 192.46875 L 75.378906 199.613281 C 75.378906 201.007812 74.941406 202.082031 74.078125 202.851562 C 73.214844 203.613281 72.003906 203.992188 70.445312 203.992188 "/>
</g>
<clipPath id="clip-11">
<rect x="0" y="0" width="246" height="284"/>
</clipPath>
<g id="source-19356008" clip-path="url(#clip-11)">
<path fill-rule="nonzero" fill="rgb(100%, 100%, 100%)" fill-opacity="1" d="M 53.777344 201.507812 C 54.597656 201.507812 55.214844 201.226562 55.636719 200.652344 C 56.050781 200.078125 56.261719 199.230469 56.261719 198.117188 C 56.261719 196.980469 56.046875 196.121094 55.625 195.546875 C 55.203125 194.96875 54.589844 194.679688 53.777344 194.679688 C 52.964844 194.679688 52.351562 194.960938 51.929688 195.535156 C 51.515625 196.109375 51.304688 196.953125 51.304688 198.070312 C 51.304688 199.195312 51.515625 200.046875 51.929688 200.632812 C 52.351562 201.21875 52.964844 201.507812 53.777344 201.507812 M 53.777344 203.992188 C 52.601562 203.992188 51.578125 203.75 50.726562 203.253906 C 49.867188 202.765625 49.21875 202.070312 48.777344 201.183594 C 48.332031 200.296875 48.113281 199.257812 48.113281 198.070312 C 48.113281 196.84375 48.34375 195.792969 48.8125 194.910156 C 49.277344 194.03125 49.929688 193.359375 50.78125 192.894531 C 51.628906 192.425781 52.628906 192.195312 53.777344 192.195312 C 54.953125 192.195312 55.972656 192.4375 56.828125 192.921875 C 57.683594 193.410156 58.335938 194.097656 58.785156 194.984375 C 59.234375 195.871094 59.460938 196.917969 59.460938 198.117188 C 59.460938 199.339844 59.222656 200.394531 58.757812 201.28125 C 58.296875 202.167969 57.632812 202.84375 56.777344 203.304688 C 55.925781 203.765625 54.921875 203.992188 53.777344 203.992188 "/>
</g>
<clipPath id="clip-12">
<rect x="0" y="0" width="246" height="284"/>
</clipPath>
<g id="source-19356011" clip-path="url(#clip-12)">
<path fill-rule="nonzero" fill="rgb(100%, 100%, 100%)" fill-opacity="1" d="M 35.339844 203.71875 L 35.339844 192.46875 L 42.886719 192.46875 L 42.886719 194.875 L 38.46875 194.875 L 38.46875 197.226562 L 42.046875 197.226562 L 42.046875 199.632812 L 38.46875 199.632812 L 38.46875 203.71875 Z M 35.339844 203.71875 "/>
</g>
<clipPath id="clip-13">
<rect x="0" y="0" width="246" height="284"/>
</clipPath>
<g id="source-19356014" clip-path="url(#clip-13)">
<path fill-rule="nonzero" fill="rgb(100%, 100%, 100%)" fill-opacity="1" d="M 203.175781 153.710938 C 202.5625 153.613281 201.9375 153.570312 201.289062 153.570312 C 200.089844 153.570312 199 153.730469 198.03125 154.050781 L 198.03125 163.746094 L 192.652344 163.746094 L 192.652344 149.023438 L 197.027344 149.023438 L 197.6875 151.25 C 199.039062 149.652344 200.488281 148.851562 202.035156 148.851562 C 202.433594 148.851562 202.8125 148.882812 203.175781 148.9375 Z M 203.175781 153.710938 "/>
</g>
<clipPath id="clip-14">
<rect x="0" y="0" width="246" height="284"/>
</clipPath>
<g id="source-19356017" clip-path="url(#clip-14)">
<path fill-rule="nonzero" fill="rgb(100%, 100%, 100%)" fill-opacity="1" d="M 183.671875 152.167969 C 182.984375 152.167969 182.433594 152.382812 182.011719 152.808594 C 181.59375 153.242188 181.335938 153.855469 181.242188 154.65625 L 185.53125 154.65625 L 185.53125 154.308594 C 185.53125 152.882812 184.910156 152.167969 183.671875 152.167969 M 181.242188 157.742188 C 181.335938 158.695312 181.707031 159.390625 182.34375 159.816406 C 182.980469 160.246094 183.941406 160.464844 185.21875 160.464844 C 186.433594 160.464844 187.925781 160.214844 189.679688 159.71875 L 189.679688 163.003906 C 188.953125 163.367188 188.089844 163.652344 187.078125 163.863281 C 186.066406 164.070312 185.066406 164.179688 184.070312 164.179688 C 178.925781 164.179688 176.351562 161.582031 176.351562 156.398438 C 176.351562 153.957031 177.011719 152.046875 178.324219 150.664062 C 179.636719 149.285156 181.472656 148.589844 183.816406 148.589844 C 185.796875 148.589844 187.332031 149.121094 188.417969 150.183594 C 189.507812 151.238281 190.050781 152.75 190.050781 154.710938 C 190.050781 155.148438 190.015625 155.671875 189.953125 156.269531 C 189.882812 156.871094 189.8125 157.359375 189.738281 157.742188 Z M 181.242188 157.742188 "/>
</g>
<clipPath id="clip-15">
<rect x="0" y="0" width="246" height="284"/>
</clipPath>
<g id="source-19356020" clip-path="url(#clip-15)">
<path fill-rule="nonzero" fill="rgb(100%, 100%, 100%)" fill-opacity="1" d="M 168.402344 163.75 L 168.402344 154.082031 C 168.402344 153.515625 168.292969 153.09375 168.070312 152.828125 C 167.855469 152.558594 167.488281 152.425781 166.96875 152.425781 C 166.265625 152.425781 165.519531 152.664062 164.742188 153.140625 L 164.742188 163.75 L 159.367188 163.75 L 159.367188 149.019531 L 163.742188 149.019531 L 164.195312 150.507812 C 165.09375 149.84375 165.96875 149.355469 166.828125 149.054688 C 167.683594 148.746094 168.589844 148.59375 169.550781 148.59375 C 170.917969 148.59375 171.964844 148.960938 172.691406 149.707031 C 173.414062 150.453125 173.777344 151.507812 173.777344 152.882812 L 173.777344 163.75 Z M 168.402344 163.75 "/>
</g>
<clipPath id="clip-16">
<rect x="0" y="0" width="246" height="284"/>
</clipPath>
<g id="source-19356023" clip-path="url(#clip-16)">
<path fill-rule="nonzero" fill="rgb(100%, 100%, 100%)" fill-opacity="1" d="M 149.097656 160.402344 C 150.5625 160.402344 151.296875 159.058594 151.296875 156.367188 C 151.296875 153.703125 150.5625 152.367188 149.097656 152.367188 C 147.632812 152.367188 146.898438 153.703125 146.898438 156.367188 C 146.898438 159.058594 147.632812 160.402344 149.097656 160.402344 M 149.097656 164.175781 C 146.714844 164.175781 144.847656 163.496094 143.492188 162.121094 C 142.136719 160.746094 141.460938 158.828125 141.460938 156.367188 C 141.460938 153.929688 142.136719 152.027344 143.492188 150.652344 C 144.847656 149.277344 146.714844 148.59375 149.097656 148.59375 C 151.476562 148.59375 153.347656 149.277344 154.699219 150.652344 C 156.058594 152.027344 156.734375 153.929688 156.734375 156.367188 C 156.734375 158.828125 156.058594 160.746094 154.699219 162.121094 C 153.347656 163.496094 151.476562 164.175781 149.097656 164.175781 "/>
</g>
<clipPath id="clip-17">
<rect x="0" y="0" width="246" height="284"/>
</clipPath>
<g id="source-19356026" clip-path="url(#clip-17)">
<path fill-rule="nonzero" fill="rgb(100%, 100%, 100%)" fill-opacity="1" d="M 133.453125 149.023438 L 138.832031 149.023438 L 138.832031 163.753906 L 133.453125 163.753906 Z M 136.144531 147.164062 C 135.226562 147.164062 134.496094 146.914062 133.957031 146.417969 C 133.410156 145.925781 133.136719 145.265625 133.136719 144.445312 C 133.136719 143.625 133.410156 142.96875 133.957031 142.46875 C 134.496094 141.976562 135.226562 141.730469 136.144531 141.730469 C 137.058594 141.730469 137.785156 141.976562 138.332031 142.46875 C 138.871094 142.96875 139.144531 143.625 139.144531 144.445312 C 139.144531 145.265625 138.871094 145.925781 138.332031 146.417969 C 137.785156 146.914062 137.058594 147.164062 136.144531 147.164062 "/>
</g>
<clipPath id="clip-18">
<rect x="0" y="0" width="246" height="284"/>
</clipPath>
<g id="source-19356029" clip-path="url(#clip-18)">
<path fill-rule="nonzero" fill="rgb(100%, 100%, 100%)" fill-opacity="1" d="M 131.394531 163.378906 C 130.269531 163.796875 128.984375 164.007812 127.535156 164.007812 C 125.722656 163.984375 124.386719 163.566406 123.527344 162.734375 C 122.671875 161.90625 122.242188 160.59375 122.242188 158.804688 L 122.242188 152.683594 L 120.210938 152.683594 L 120.210938 149.652344 L 122.386719 149.136719 L 123.246094 145.1875 L 127.621094 145.1875 L 127.621094 149.023438 L 131.335938 149.023438 L 131.335938 152.683594 L 127.621094 152.683594 L 127.621094 158.460938 C 127.621094 159.03125 127.761719 159.433594 128.046875 159.660156 C 128.335938 159.886719 128.820312 160.003906 129.507812 160.003906 C 130.042969 160.003906 130.671875 159.945312 131.394531 159.832031 Z M 131.394531 163.378906 "/>
</g>
<clipPath id="clip-19">
<rect x="0" y="0" width="246" height="284"/>
</clipPath>
<g id="source-19356032" clip-path="url(#clip-19)">
<path fill-rule="nonzero" fill="rgb(100%, 100%, 100%)" fill-opacity="1" d="M 113.175781 149.023438 L 118.554688 149.023438 L 118.554688 163.753906 L 113.175781 163.753906 Z M 115.867188 147.164062 C 114.949219 147.164062 114.222656 146.914062 113.679688 146.417969 C 113.132812 145.925781 112.863281 145.265625 112.863281 144.445312 C 112.863281 143.625 113.132812 142.96875 113.679688 142.46875 C 114.222656 141.976562 114.949219 141.730469 115.867188 141.730469 C 116.78125 141.730469 117.515625 141.976562 118.054688 142.46875 C 118.597656 142.96875 118.871094 143.625 118.871094 144.445312 C 118.871094 145.265625 118.597656 145.925781 118.054688 146.417969 C 117.515625 146.914062 116.78125 147.164062 115.867188 147.164062 "/>
</g>
<clipPath id="clip-20">
<rect x="0" y="0" width="246" height="284"/>
</clipPath>
<g id="source-19356035" clip-path="url(#clip-20)">
<path fill-rule="nonzero" fill="rgb(100%, 100%, 100%)" fill-opacity="1" d="M 111.117188 163.378906 C 109.992188 163.796875 108.707031 164.007812 107.257812 164.007812 C 105.445312 163.984375 104.109375 163.566406 103.253906 162.734375 C 102.394531 161.90625 101.96875 160.59375 101.96875 158.804688 L 101.96875 152.683594 L 99.933594 152.683594 L 99.933594 149.652344 L 102.109375 149.136719 L 102.96875 145.1875 L 107.34375 145.1875 L 107.34375 149.023438 L 111.0625 149.023438 L 111.0625 152.683594 L 107.34375 152.683594 L 107.34375 158.460938 C 107.34375 159.03125 107.484375 159.433594 107.769531 159.660156 C 108.058594 159.886719 108.542969 160.003906 109.230469 160.003906 C 109.765625 160.003906 110.394531 159.945312 111.117188 159.832031 Z M 111.117188 163.378906 "/>
</g>
<clipPath id="clip-21">
<rect x="0" y="0" width="246" height="284"/>
</clipPath>
<g id="source-19356038" clip-path="url(#clip-21)">
<path fill-rule="nonzero" fill="rgb(100%, 100%, 100%)" fill-opacity="1" d="M 99.222656 163.089844 C 98.628906 163.398438 97.941406 163.636719 97.164062 163.808594 C 96.378906 163.976562 95.566406 164.0625 94.730469 164.0625 C 92.269531 164.0625 90.402344 163.421875 89.109375 162.132812 C 87.820312 160.847656 87.179688 158.964844 87.179688 156.488281 C 87.179688 154.027344 87.859375 152.117188 89.226562 150.746094 C 90.589844 149.390625 92.503906 148.707031 94.957031 148.707031 C 96.601562 148.707031 98 149.019531 99.164062 149.652344 L 99.164062 153.054688 C 98.054688 152.707031 97.015625 152.539062 96.042969 152.539062 C 94.863281 152.539062 94 152.832031 93.441406 153.425781 C 92.890625 154.015625 92.613281 154.941406 92.613281 156.199219 L 92.613281 156.601562 C 92.613281 157.839844 92.890625 158.753906 93.441406 159.347656 C 94 159.9375 94.832031 160.234375 95.960938 160.234375 C 96.988281 160.234375 98.078125 160.050781 99.222656 159.6875 Z M 99.222656 163.089844 "/>
</g>
<clipPath id="clip-22">
<rect x="0" y="0" width="246" height="284"/>
</clipPath>
<g id="source-19356041" clip-path="url(#clip-22)">
<path fill-rule="nonzero" fill="rgb(100%, 100%, 100%)" fill-opacity="1" d="M 77.570312 160.859375 C 77.933594 160.859375 78.304688 160.78125 78.683594 160.617188 C 79.066406 160.457031 79.382812 160.253906 79.628906 160.003906 L 79.628906 157.890625 C 79.09375 157.808594 78.570312 157.773438 78.058594 157.773438 C 76.78125 157.773438 76.140625 158.308594 76.140625 159.371094 C 76.140625 159.832031 76.269531 160.195312 76.527344 160.464844 C 76.78125 160.730469 77.132812 160.859375 77.570312 160.859375 M 80.402344 163.75 L 80.003906 162.605469 C 79.429688 163.140625 78.78125 163.550781 78.058594 163.832031 C 77.332031 164.125 76.589844 164.265625 75.828125 164.265625 C 74.417969 164.265625 73.273438 163.855469 72.410156 163.03125 C 71.542969 162.214844 71.109375 161.117188 71.109375 159.746094 C 71.109375 158.777344 71.367188 157.917969 71.878906 157.191406 C 72.394531 156.453125 73.097656 155.886719 73.996094 155.496094 C 74.894531 155.109375 75.910156 154.910156 77.054688 154.910156 C 77.914062 154.910156 78.769531 154.996094 79.628906 155.171875 L 79.628906 154.429688 C 79.628906 153.625 79.445312 153.074219 79.089844 152.769531 C 78.726562 152.460938 78.089844 152.308594 77.171875 152.308594 C 75.839844 152.308594 74.207031 152.605469 72.28125 153.195312 L 72.28125 149.882812 C 73.066406 149.476562 74.007812 149.164062 75.109375 148.9375 C 76.21875 148.707031 77.355469 148.589844 78.515625 148.589844 C 80.613281 148.589844 82.152344 149.019531 83.136719 149.863281 C 84.113281 150.71875 84.605469 152.050781 84.605469 153.882812 L 84.605469 163.75 Z M 80.402344 163.75 "/>
</g>
<clipPath id="clip-23">
<rect x="0" y="0" width="246" height="284"/>
</clipPath>
<g id="source-19356044" clip-path="url(#clip-23)">
<path fill-rule="nonzero" fill="rgb(100%, 100%, 100%)" fill-opacity="1" d="M 70.449219 153.710938 C 69.835938 153.613281 69.210938 153.570312 68.5625 153.570312 C 67.359375 153.570312 66.273438 153.730469 65.300781 154.050781 L 65.300781 163.746094 L 59.925781 163.746094 L 59.925781 149.023438 L 64.300781 149.023438 L 64.960938 151.25 C 66.3125 149.652344 67.761719 148.851562 69.308594 148.851562 C 69.707031 148.851562 70.085938 148.882812 70.449219 148.9375 Z M 70.449219 153.710938 "/>
</g>
<clipPath id="clip-24">
<rect x="0" y="0" width="246" height="284"/>
</clipPath>
<g id="source-19356047" clip-path="url(#clip-24)">
<path fill-rule="nonzero" fill="rgb(100%, 100%, 100%)" fill-opacity="1" d="M 47.628906 153.3125 L 49.628906 153.3125 C 50.503906 153.3125 51.183594 153.074219 51.664062 152.59375 C 52.136719 152.117188 52.375 151.464844 52.375 150.625 C 52.375 149.78125 52.136719 149.128906 51.664062 148.652344 C 51.183594 148.175781 50.503906 147.933594 49.628906 147.933594 L 47.628906 147.933594 Z M 47.628906 157.316406 L 47.628906 163.75 L 42.3125 163.75 L 42.3125 143.929688 L 50.433594 143.929688 C 52.699219 143.929688 54.496094 144.523438 55.824219 145.71875 C 57.148438 146.914062 57.808594 148.542969 57.808594 150.625 C 57.808594 152.699219 57.148438 154.335938 55.824219 155.527344 C 54.496094 156.722656 52.699219 157.316406 50.433594 157.316406 Z M 47.628906 157.316406 "/>
</g>
<clipPath id="clip-25">
<path clip-rule="nonzero" d="M 1.011719 0 L 246 0 L 246 284 L 1.011719 284 Z M 1.011719 0 "/>
</clipPath>
<clipPath id="clip-26">
<rect x="0" y="0" width="246" height="284"/>
</clipPath>
<g id="source-19356050" clip-path="url(#clip-26)">
<path fill-rule="nonzero" fill="rgb(100%, 100%, 100%)" fill-opacity="1" d="M 153.804688 131.691406 C 154.316406 131.691406 154.917969 131.546875 155.605469 131.257812 L 155.605469 124.109375 C 155.015625 123.84375 154.34375 123.710938 153.605469 123.710938 C 152.835938 123.710938 152.28125 124.035156 151.929688 124.683594 C 151.574219 125.332031 151.398438 126.347656 151.398438 127.746094 C 151.398438 129.117188 151.585938 130.117188 151.957031 130.746094 C 152.332031 131.371094 152.945312 131.691406 153.804688 131.691406 M 151.945312 135.464844 C 150.074219 135.464844 148.613281 134.789062 147.550781 133.433594 C 146.496094 132.082031 145.964844 130.222656 145.964844 127.859375 C 145.964844 126.242188 146.226562 124.835938 146.75 123.65625 C 147.277344 122.472656 148.007812 121.570312 148.9375 120.9375 C 149.875 120.308594 150.945312 119.996094 152.144531 119.996094 C 153.460938 119.996094 154.617188 120.351562 155.605469 121.078125 L 155.605469 113.988281 L 160.980469 113.988281 L 160.980469 135.152344 L 156.464844 135.152344 L 156.035156 133.832031 C 155.519531 134.351562 154.898438 134.746094 154.191406 135.039062 C 153.472656 135.320312 152.722656 135.464844 151.945312 135.464844 "/>
</g>
<clipPath id="clip-27">
<rect x="0" y="0" width="246" height="284"/>
</clipPath>
<g id="source-19356053" clip-path="url(#clip-27)">
<path fill-rule="nonzero" fill="rgb(100%, 100%, 100%)" fill-opacity="1" d="M 138.960938 135.148438 L 138.503906 133.691406 C 136.820312 134.953125 135.132812 135.582031 133.441406 135.582031 C 132.066406 135.582031 130.996094 135.183594 130.242188 134.394531 C 129.472656 133.605469 129.09375 132.519531 129.09375 131.144531 L 129.09375 120.417969 L 134.46875 120.417969 L 134.46875 130.113281 C 134.46875 130.6875 134.578125 131.105469 134.800781 131.359375 C 135.015625 131.621094 135.371094 131.746094 135.875 131.746094 C 136.554688 131.746094 137.253906 131.546875 137.957031 131.144531 L 137.957031 120.417969 L 143.335938 120.417969 L 143.335938 135.148438 Z M 138.960938 135.148438 "/>
</g>
<clipPath id="clip-28">
<rect x="0" y="0" width="246" height="284"/>
</clipPath>
<g id="source-19356056" clip-path="url(#clip-28)">
<path fill-rule="nonzero" fill="rgb(100%, 100%, 100%)" fill-opacity="1" d="M 118.941406 131.804688 C 120.40625 131.804688 121.144531 130.457031 121.144531 127.769531 C 121.144531 125.105469 120.40625 123.769531 118.941406 123.769531 C 117.476562 123.769531 116.734375 125.105469 116.734375 127.769531 C 116.734375 130.457031 117.476562 131.804688 118.941406 131.804688 M 118.941406 135.578125 C 116.554688 135.578125 114.691406 134.894531 113.335938 133.519531 C 111.980469 132.144531 111.304688 130.230469 111.304688 127.769531 C 111.304688 125.332031 111.980469 123.429688 113.335938 122.050781 C 114.691406 120.675781 116.554688 119.996094 118.941406 119.996094 C 121.328125 119.996094 123.191406 120.675781 124.550781 122.050781 C 125.902344 123.429688 126.578125 125.332031 126.578125 127.769531 C 126.578125 130.230469 125.902344 132.144531 124.550781 133.519531 C 123.191406 134.894531 121.328125 135.578125 118.941406 135.578125 "/>
</g>
<clipPath id="clip-29">
<rect x="0" y="0" width="246" height="284"/>
</clipPath>
<g id="source-19356059" clip-path="url(#clip-29)">
<path fill-rule="nonzero" fill="rgb(100%, 100%, 100%)" fill-opacity="1" d="M 109.988281 134.980469 C 109.050781 135.378906 108.007812 135.582031 106.847656 135.582031 C 105.320312 135.582031 104.183594 135.167969 103.441406 134.347656 C 102.699219 133.53125 102.324219 132.292969 102.324219 130.632812 L 102.324219 113.984375 L 107.707031 113.984375 L 107.707031 130.207031 C 107.707031 130.699219 107.785156 131.058594 107.957031 131.292969 C 108.132812 131.519531 108.414062 131.632812 108.820312 131.632812 C 109.144531 131.632812 109.535156 131.59375 109.988281 131.519531 Z M 109.988281 134.980469 "/>
</g>
<clipPath id="clip-30">
<rect x="0" y="0" width="246" height="284"/>
</clipPath>
<g id="source-19356062" clip-path="url(#clip-30)">
<path fill-rule="nonzero" fill="rgb(100%, 100%, 100%)" fill-opacity="1" d="M 99.980469 134.636719 C 98.417969 135.226562 96.605469 135.523438 94.546875 135.523438 C 91.269531 135.523438 88.773438 134.652344 87.070312 132.917969 C 85.363281 131.1875 84.507812 128.652344 84.507812 125.308594 C 84.507812 122.03125 85.398438 119.484375 87.183594 117.675781 C 88.96875 115.863281 91.449219 114.960938 94.632812 114.960938 C 96.390625 114.960938 98.078125 115.234375 99.695312 115.789062 L 99.695312 119.960938 C 98.09375 119.621094 96.71875 119.449219 95.578125 119.449219 C 93.820312 119.449219 92.496094 119.910156 91.605469 120.835938 C 90.707031 121.761719 90.257812 123.128906 90.257812 124.941406 L 90.257812 125.570312 C 90.257812 127.34375 90.6875 128.695312 91.558594 129.628906 C 92.429688 130.566406 93.707031 131.03125 95.40625 131.03125 C 96.703125 131.03125 98.226562 130.84375 99.980469 130.457031 Z M 99.980469 134.636719 "/>
</g>
</defs>
<path fill-rule="nonzero" fill="rgb(83.137256%, 85.490197%, 85.490197%)" fill-opacity="1" d="M 245.488281 70.867188 L 122.742188 0 L 0 70.867188 L 0 212.597656 L 122.742188 283.464844 L 245.488281 212.597656 Z M 245.488281 70.867188 "/>
<path fill-rule="nonzero" fill="url(#linear-pattern-0)" d="M 6.460938 74.59375 L 6.460938 208.871094 L 122.742188 276.003906 L 239.027344 208.871094 L 239.027344 74.59375 L 122.742188 7.460938 Z M 6.460938 74.59375 "/>
<g clip-path="url(#clip-0)">
<use xlink:href="#source-19355978" transform="matrix(1, 0, 0, 1, 0, 0)"/>
<use xlink:href="#source-19355981" transform="matrix(1, 0, 0, 1, 0, 0)"/>
<use xlink:href="#source-19355984" transform="matrix(1, 0, 0, 1, 0, 0)"/>
<use xlink:href="#source-19355987" transform="matrix(1, 0, 0, 1, 0, 0)"/>
<use xlink:href="#source-19355990" transform="matrix(1, 0, 0, 1, 0, 0)"/>
<use xlink:href="#source-19355993" transform="matrix(1, 0, 0, 1, 0, 0)"/>
<use xlink:href="#source-19355996" transform="matrix(1, 0, 0, 1, 0, 0)"/>
<use xlink:href="#source-19355999" transform="matrix(1, 0, 0, 1, 0, 0)"/>
<use xlink:href="#source-19356002" transform="matrix(1, 0, 0, 1, 0, 0)"/>
<use xlink:href="#source-19356005" transform="matrix(1, 0, 0, 1, 0, 0)"/>
<use xlink:href="#source-19356008" transform="matrix(1, 0, 0, 1, 0, 0)"/>
<use xlink:href="#source-19356011" transform="matrix(1, 0, 0, 1, 0, 0)"/>
</g>
<path fill="none" stroke-width="1" stroke-linecap="butt" stroke-linejoin="miter" stroke="rgb(100%, 100%, 100%)" stroke-opacity="1" stroke-miterlimit="10" d="M 94.964167 236.187507 L 282.990215 236.187507 " transform="matrix(0.75, 0, 0, 0.75, -18.988748, 0)"/>
<path fill="none" stroke-width="1" stroke-linecap="butt" stroke-linejoin="miter" stroke="rgb(100%, 100%, 100%)" stroke-opacity="1" stroke-miterlimit="10" d="M 94.964167 131.718754 L 282.990215 131.718754 " transform="matrix(0.75, 0, 0, 0.75, -18.988748, 0)"/>
<path fill-rule="nonzero" fill="rgb(100%, 100%, 100%)" fill-opacity="1" d="M 160.007812 85.363281 L 159.863281 84.023438 C 159.273438 84.515625 158.617188 84.90625 157.886719 85.195312 C 157.160156 85.484375 156.460938 85.628906 155.792969 85.628906 C 154.214844 85.628906 152.964844 85.074219 152.046875 83.96875 C 151.132812 82.859375 150.667969 81.335938 150.667969 79.410156 C 150.667969 77.484375 151.132812 75.863281 152.058594 74.707031 C 152.988281 73.554688 154.246094 72.976562 155.839844 72.976562 C 157.324219 72.976562 158.664062 73.5 159.863281 74.550781 L 159.863281 67.660156 L 161.230469 67.660156 L 161.230469 85.371094 L 160.007812 85.371094 Z M 156.105469 84.382812 C 157.304688 84.382812 158.558594 83.871094 159.863281 82.855469 L 159.863281 75.769531 C 159.195312 75.226562 158.550781 74.828125 157.9375 74.582031 C 157.324219 74.335938 156.671875 74.210938 155.984375 74.210938 C 154.710938 74.210938 153.738281 74.640625 153.078125 75.503906 C 152.414062 76.363281 152.085938 77.640625 152.085938 79.332031 C 152.085938 82.699219 153.425781 84.382812 156.105469 84.382812 Z M 156.105469 84.382812 "/>
<path fill-rule="nonzero" fill="rgb(100%, 100%, 100%)" fill-opacity="1" d="M 140.429688 79.574219 C 140.445312 81.246094 140.8125 82.488281 141.53125 83.28125 C 142.246094 84.082031 143.355469 84.480469 144.859375 84.480469 C 146.234375 84.480469 147.550781 84.203125 148.808594 83.644531 L 148.808594 84.769531 C 147.675781 85.40625 146.328125 85.726562 144.761719 85.726562 C 142.867188 85.726562 141.433594 85.191406 140.476562 84.113281 C 139.519531 83.035156 139.039062 81.433594 139.039062 79.3125 C 139.039062 77.304688 139.519531 75.746094 140.488281 74.636719 C 141.457031 73.527344 142.808594 72.976562 144.546875 72.976562 C 145.996094 72.976562 147.113281 73.390625 147.886719 74.222656 C 148.664062 75.050781 149.050781 76.238281 149.050781 77.785156 C 149.050781 78.5 149.003906 79.105469 148.90625 79.578125 L 140.433594 79.578125 Z M 144.425781 74.191406 C 141.902344 74.191406 140.574219 75.617188 140.429688 78.476562 L 147.703125 78.476562 C 147.71875 78.253906 147.726562 77.988281 147.726562 77.6875 C 147.726562 76.539062 147.449219 75.671875 146.890625 75.082031 C 146.328125 74.492188 145.511719 74.195312 144.425781 74.195312 Z M 144.425781 74.191406 "/>
<path fill-rule="nonzero" fill="rgb(100%, 100%, 100%)" fill-opacity="1" d="M 127.4375 85.363281 L 127.4375 74.523438 L 125.089844 74.523438 L 125.089844 73.566406 L 127.4375 73.347656 L 127.4375 70.597656 C 127.4375 69.523438 127.714844 68.710938 128.273438 68.152344 C 128.832031 67.59375 129.628906 67.316406 130.667969 67.316406 C 131.054688 67.316406 131.445312 67.351562 131.855469 67.425781 C 132.265625 67.496094 132.609375 67.585938 132.898438 67.699219 L 132.898438 68.828125 C 132.097656 68.652344 131.417969 68.5625 130.839844 68.5625 C 130.121094 68.5625 129.605469 68.710938 129.285156 69.007812 C 128.964844 69.300781 128.808594 69.785156 128.808594 70.453125 L 128.808594 73.324219 L 136.613281 73.324219 L 136.613281 85.363281 L 135.246094 85.363281 L 135.246094 74.523438 L 128.808594 74.523438 L 128.808594 85.363281 Z M 135.929688 70.742188 C 135.613281 70.742188 135.359375 70.644531 135.179688 70.453125 C 135 70.257812 134.902344 70.007812 134.902344 69.6875 C 134.902344 69.367188 134.992188 69.117188 135.179688 68.921875 C 135.367188 68.730469 135.613281 68.632812 135.929688 68.632812 C 136.25 68.632812 136.503906 68.730469 136.683594 68.921875 C 136.863281 69.117188 136.960938 69.367188 136.960938 69.6875 C 136.960938 70.007812 136.871094 70.257812 136.683594 70.453125 C 136.503906 70.644531 136.25 70.742188 135.929688 70.742188 Z M 135.929688 70.742188 "/>
<path fill-rule="nonzero" fill="rgb(100%, 100%, 100%)" fill-opacity="1" d="M 122.691406 70.742188 C 122.375 70.742188 122.121094 70.644531 121.941406 70.453125 C 121.757812 70.257812 121.664062 70.007812 121.664062 69.6875 C 121.664062 69.367188 121.753906 69.117188 121.941406 68.921875 C 122.125 68.730469 122.375 68.632812 122.691406 68.632812 C 123.011719 68.632812 123.265625 68.730469 123.445312 68.921875 C 123.625 69.117188 123.722656 69.367188 123.722656 69.6875 C 123.722656 70.007812 123.632812 70.257812 123.445312 70.453125 C 123.265625 70.644531 123.011719 70.742188 122.691406 70.742188 Z M 122 85.363281 L 122 73.324219 L 123.367188 73.324219 L 123.367188 85.363281 Z M 122 85.363281 "/>
<path fill-rule="nonzero" fill="rgb(100%, 100%, 100%)" fill-opacity="1" d="M 120.132812 85.105469 C 119.464844 85.378906 118.660156 85.515625 117.71875 85.515625 C 116.78125 85.515625 116.058594 85.261719 115.5625 84.761719 C 115.070312 84.261719 114.824219 83.527344 114.824219 82.570312 L 114.824219 74.527344 L 112.570312 74.527344 L 112.570312 73.570312 L 114.871094 73.355469 L 115.0625 69.839844 L 116.191406 69.839844 L 116.191406 73.328125 L 120.019531 73.328125 L 120.019531 74.527344 L 116.191406 74.527344 L 116.191406 82.5 C 116.191406 83.15625 116.328125 83.617188 116.613281 83.890625 C 116.886719 84.160156 117.359375 84.300781 118.015625 84.300781 C 118.671875 84.300781 119.382812 84.203125 120.144531 84.011719 L 120.144531 85.113281 Z M 120.132812 85.105469 "/>
<path fill-rule="nonzero" fill="rgb(100%, 100%, 100%)" fill-opacity="1" d="M 106.0625 85.363281 L 106.0625 73.324219 L 107.261719 73.324219 L 107.40625 75.070312 C 108.015625 74.402344 108.605469 73.925781 109.1875 73.644531 C 109.773438 73.367188 110.429688 73.222656 111.164062 73.222656 C 111.433594 73.222656 111.757812 73.246094 112.144531 73.292969 L 112.144531 74.515625 C 111.730469 74.484375 111.355469 74.46875 111.019531 74.46875 C 110.285156 74.46875 109.632812 74.605469 109.066406 74.878906 C 108.503906 75.148438 107.953125 75.585938 107.429688 76.195312 L 107.429688 85.363281 Z M 106.0625 85.363281 "/>
<path fill-rule="nonzero" fill="rgb(100%, 100%, 100%)" fill-opacity="1" d="M 95.195312 79.574219 C 95.214844 81.246094 95.582031 82.488281 96.296875 83.28125 C 97.015625 84.082031 98.121094 84.480469 99.628906 84.480469 C 101 84.480469 102.3125 84.203125 103.578125 83.644531 L 103.578125 84.769531 C 102.445312 85.40625 101.097656 85.726562 99.53125 85.726562 C 97.636719 85.726562 96.203125 85.191406 95.246094 84.113281 C 94.289062 83.035156 93.8125 81.433594 93.8125 79.3125 C 93.8125 77.304688 94.292969 75.746094 95.257812 74.636719 C 96.21875 73.527344 97.574219 72.976562 99.316406 72.976562 C 100.765625 72.976562 101.878906 73.390625 102.65625 74.222656 C 103.433594 75.050781 103.816406 76.238281 103.816406 77.785156 C 103.816406 78.5 103.769531 79.105469 103.671875 79.578125 L 95.203125 79.578125 Z M 99.195312 74.191406 C 96.671875 74.191406 95.339844 75.617188 95.195312 78.476562 L 102.476562 78.476562 C 102.492188 78.253906 102.5 77.988281 102.5 77.6875 C 102.5 76.539062 102.222656 75.671875 101.664062 75.082031 C 101.101562 74.492188 100.285156 74.195312 99.199219 74.195312 Z M 99.195312 74.191406 "/>
<path fill-rule="nonzero" fill="rgb(100%, 100%, 100%)" fill-opacity="1" d="M 92.898438 84.960938 C 91.910156 85.40625 90.910156 85.628906 89.90625 85.628906 C 88.054688 85.628906 86.648438 85.101562 85.691406 84.039062 C 84.734375 82.980469 84.25 81.421875 84.25 79.363281 C 84.25 77.304688 84.738281 75.761719 85.707031 74.683594 C 86.683594 73.605469 88.09375 73.070312 89.945312 73.070312 C 90.933594 73.070312 91.867188 73.265625 92.746094 73.644531 L 92.746094 74.769531 C 91.867188 74.480469 90.957031 74.335938 90.019531 74.335938 C 88.5 74.335938 87.40625 74.722656 86.726562 75.496094 C 86.046875 76.273438 85.707031 77.515625 85.707031 79.21875 L 85.707031 79.507812 C 85.707031 81.167969 86.050781 82.390625 86.738281 83.179688 C 87.425781 83.96875 88.5 84.367188 89.972656 84.367188 C 90.851562 84.367188 91.820312 84.191406 92.890625 83.84375 L 92.890625 84.96875 Z M 92.898438 84.960938 "/>
<path fill-rule="nonzero" fill="rgb(100%, 60.000002%, 0%)" fill-opacity="1" d="M 161.585938 48.445312 L 151.84375 42.816406 L 142.097656 48.445312 L 142.097656 59.695312 L 151.84375 65.324219 L 161.585938 59.695312 Z M 161.585938 48.445312 "/>
<path fill-rule="nonzero" fill="rgb(100%, 100%, 100%)" fill-opacity="1" d="M 157.285156 51.035156 L 156.183594 49.933594 C 156.082031 49.832031 155.917969 49.832031 155.824219 49.933594 L 149.296875 56.460938 L 147.753906 54.917969 C 147.652344 54.816406 147.492188 54.816406 147.394531 54.917969 L 146.292969 56.019531 C 146.191406 56.125 146.191406 56.285156 146.292969 56.382812 L 149.019531 59.109375 C 149.175781 59.265625 149.433594 59.265625 149.597656 59.109375 L 157.296875 51.398438 C 157.402344 51.292969 157.402344 51.132812 157.296875 51.035156 Z M 157.285156 51.035156 "/>
<path fill-rule="nonzero" fill="rgb(100%, 100%, 100%)" fill-opacity="1" d="M 98.054688 58.175781 C 98.054688 58.753906 98.054688 59.339844 98.351562 59.902344 C 98.496094 60.34375 98.777344 60.921875 98.929688 61.347656 C 99.074219 61.5 99.074219 61.644531 99.074219 61.789062 C 99.074219 62.070312 98.929688 62.226562 98.632812 62.367188 L 97.332031 63.234375 L 96.90625 63.234375 C 96.613281 63.234375 96.46875 63.089844 96.328125 62.949219 C 96.046875 62.65625 95.75 62.371094 95.605469 62.078125 C 95.460938 61.792969 95.167969 61.355469 95.027344 60.929688 C 93.582031 62.65625 91.558594 63.671875 89.25 63.671875 C 87.804688 63.816406 86.359375 63.234375 85.351562 62.226562 C 84.335938 61.210938 83.90625 59.910156 83.90625 58.464844 C 83.90625 56.875 84.484375 55.429688 85.636719 54.425781 C 86.9375 53.40625 88.671875 52.835938 90.410156 52.835938 C 91.132812 52.835938 91.855469 52.835938 92.433594 52.980469 C 93.15625 53.125 93.878906 53.261719 94.601562 53.40625 L 94.601562 51.964844 C 94.746094 50.8125 94.449219 49.652344 93.726562 48.789062 C 92.859375 48.066406 91.710938 47.785156 90.554688 47.921875 C 89.832031 47.921875 89.109375 48.066406 88.386719 48.207031 C 87.664062 48.351562 86.941406 48.644531 86.21875 48.929688 C 85.9375 49.074219 85.78125 49.074219 85.496094 49.222656 L 85.214844 49.222656 C 84.917969 49.222656 84.773438 49.074219 84.773438 48.644531 L 84.773438 47.628906 C 84.773438 47.34375 84.773438 47.199219 84.917969 46.90625 C 85.0625 46.761719 85.214844 46.621094 85.496094 46.476562 C 86.21875 46.039062 87.085938 45.757812 87.949219 45.613281 C 88.964844 45.316406 89.972656 45.171875 90.988281 45.171875 C 92.859375 45.027344 94.601562 45.613281 96.046875 46.761719 C 97.195312 48.0625 97.773438 49.796875 97.636719 51.535156 L 98.0625 58.183594 Z M 90.109375 61.066406 C 90.832031 61.066406 91.410156 60.921875 92.132812 60.785156 C 92.855469 60.488281 93.433594 60.0625 94.015625 59.484375 C 94.300781 59.1875 94.59375 58.761719 94.738281 58.183594 C 94.882812 57.605469 94.882812 57.019531 94.882812 56.453125 L 94.882812 55.582031 C 94.304688 55.4375 93.722656 55.296875 93.15625 55.296875 C 92.578125 55.152344 91.992188 55.152344 91.269531 55.152344 C 90.265625 55.007812 89.25 55.296875 88.382812 55.875 C 87.21875 57.027344 87.082031 58.910156 88.097656 60.210938 C 88.671875 60.933594 89.394531 61.214844 90.117188 61.078125 Z M 105.859375 63.234375 C 105.574219 63.234375 105.28125 63.234375 105.136719 63.089844 C 104.992188 62.945312 104.855469 62.648438 104.710938 62.367188 L 100.078125 47.195312 C 99.933594 46.898438 99.933594 46.617188 99.933594 46.472656 C 99.933594 46.175781 100.078125 46.03125 100.21875 46.03125 L 102.242188 46.03125 C 102.535156 46.03125 102.820312 46.03125 102.964844 46.175781 C 103.109375 46.328125 103.257812 46.617188 103.402344 46.898438 L 106.71875 59.761719 L 109.761719 46.898438 C 109.761719 46.617188 109.90625 46.328125 110.1875 46.175781 C 110.484375 46.03125 110.765625 46.03125 110.910156 46.03125 L 112.5 46.03125 C 112.792969 46.03125 113.078125 46.03125 113.222656 46.175781 C 113.371094 46.328125 113.515625 46.617188 113.660156 46.898438 L 116.695312 60.054688 L 120.023438 46.898438 C 120.023438 46.617188 120.167969 46.328125 120.453125 46.175781 C 120.746094 46.03125 120.890625 46.03125 121.175781 46.03125 L 123.058594 46.03125 C 123.34375 46.03125 123.5 46.175781 123.5 46.328125 L 123.5 46.753906 C 123.5 46.898438 123.347656 47.050781 123.347656 47.195312 L 118.730469 62.222656 C 118.730469 62.503906 118.585938 62.792969 118.292969 62.945312 C 118.148438 63.226562 117.863281 63.226562 117.570312 63.226562 L 115.839844 63.226562 C 115.558594 63.226562 115.261719 63.226562 115.117188 63.082031 C 114.972656 62.789062 114.835938 62.644531 114.679688 62.359375 L 111.644531 49.785156 L 108.609375 62.359375 C 108.609375 62.644531 108.464844 62.9375 108.171875 63.082031 C 108.027344 63.226562 107.742188 63.226562 107.597656 63.226562 L 105.859375 63.226562 Z M 131 63.816406 C 129.996094 63.816406 128.976562 63.671875 127.964844 63.523438 C 127.242188 63.378906 126.375 63.09375 125.65625 62.800781 C 125.214844 62.65625 124.933594 62.226562 124.933594 61.648438 L 124.933594 60.632812 C 124.933594 60.207031 125.078125 60.0625 125.359375 60.0625 L 125.65625 60.0625 C 125.800781 60.0625 125.9375 60.207031 126.082031 60.207031 C 126.804688 60.488281 127.527344 60.785156 128.25 60.929688 C 128.972656 61.070312 129.839844 61.210938 130.5625 61.210938 C 131.578125 61.210938 132.585938 61.066406 133.449219 60.488281 C 134.027344 60.0625 134.46875 59.339844 134.46875 58.617188 C 134.46875 58.039062 134.324219 57.597656 133.890625 57.316406 C 133.3125 56.875 132.589844 56.449219 131.867188 56.296875 L 128.976562 55.429688 C 127.828125 55.148438 126.664062 54.425781 125.804688 53.40625 C 125.226562 52.542969 124.789062 51.535156 124.789062 50.519531 C 124.789062 49.796875 124.9375 49.074219 125.367188 48.351562 C 125.660156 47.777344 126.234375 47.199219 126.808594 46.761719 C 127.386719 46.335938 128.109375 45.894531 128.832031 45.757812 C 129.699219 45.460938 130.421875 45.460938 131.285156 45.460938 C 131.722656 45.460938 132.15625 45.460938 132.585938 45.613281 C 133.023438 45.613281 133.449219 45.757812 133.882812 45.894531 C 134.324219 46.039062 134.605469 46.039062 135.046875 46.175781 C 135.328125 46.328125 135.617188 46.328125 135.914062 46.472656 C 136.195312 46.617188 136.339844 46.753906 136.492188 46.898438 C 136.636719 47.050781 136.636719 47.339844 136.636719 47.621094 L 136.636719 48.496094 C 136.636719 48.921875 136.492188 49.066406 136.195312 49.066406 C 135.902344 49.066406 135.617188 48.921875 135.472656 48.785156 C 134.324219 48.207031 133.023438 48.0625 131.71875 48.0625 C 130.851562 48.0625 129.988281 48.207031 129.109375 48.640625 C 128.539062 48.921875 128.105469 49.644531 128.242188 50.367188 C 128.242188 50.945312 128.386719 51.386719 128.820312 51.8125 C 129.398438 52.390625 130.121094 52.679688 130.988281 52.832031 L 133.734375 53.695312 C 134.882812 53.980469 135.902344 54.703125 136.769531 55.570312 C 137.347656 56.292969 137.636719 57.308594 137.636719 58.316406 C 137.636719 59.039062 137.492188 59.902344 137.058594 60.625 C 136.773438 61.347656 136.191406 61.925781 135.613281 62.367188 C 135.039062 62.792969 134.167969 63.234375 133.445312 63.515625 C 132.875 63.667969 131.855469 63.8125 130.996094 63.8125 Z M 131 63.816406 "/>
<use xlink:href="#source-19356014" transform="matrix(1, 0, 0, 1, 0, 0)"/>
<use xlink:href="#source-19356017" transform="matrix(1, 0, 0, 1, 0, 0)"/>
<use xlink:href="#source-19356020" transform="matrix(1, 0, 0, 1, 0, 0)"/>
<use xlink:href="#source-19356023" transform="matrix(1, 0, 0, 1, 0, 0)"/>
<use xlink:href="#source-19356026" transform="matrix(1, 0, 0, 1, 0, 0)"/>
<use xlink:href="#source-19356029" transform="matrix(1, 0, 0, 1, 0, 0)"/>
<use xlink:href="#source-19356032" transform="matrix(1, 0, 0, 1, 0, 0)"/>
<use xlink:href="#source-19356035" transform="matrix(1, 0, 0, 1, 0, 0)"/>
<use xlink:href="#source-19356038" transform="matrix(1, 0, 0, 1, 0, 0)"/>
<use xlink:href="#source-19356041" transform="matrix(1, 0, 0, 1, 0, 0)"/>
<use xlink:href="#source-19356044" transform="matrix(1, 0, 0, 1, 0, 0)"/>
<use xlink:href="#source-19356047" transform="matrix(1, 0, 0, 1, 0, 0)"/>
<g clip-path="url(#clip-25)">
<use xlink:href="#source-19356050" transform="matrix(1, 0, 0, 1, -0.000000000000227374, 0)"/>
<use xlink:href="#source-19356053" transform="matrix(1, 0, 0, 1, -0.000000000000227374, 0)"/>
<use xlink:href="#source-19356056" transform="matrix(1, 0, 0, 1, -0.000000000000227374, 0)"/>
<use xlink:href="#source-19356059" transform="matrix(1, 0, 0, 1, -0.000000000000227374, 0)"/>
<use xlink:href="#source-19356062" transform="matrix(1, 0, 0, 1, -0.000000000000227374, 0)"/>
</g>
</svg>
